Rubik-BoldItalic.ufo
<glyph name="ampersand" format="2">
  <advance width="783"/>
  <unicode hex="0026"/>
  <guideline x="350" y="-10" angle="0"/>
  <guideline x="350" y="710" angle="0"/>
  <guideline x="667"/>
  <outline>
    <contour>
      <point x="260" y="-10" type="curve" smooth="yes"/>
      <point x="328" y="-10"/>
      <point x="388" y="-3"/>
      <point x="452" y="34" type="curve"/>
      <point x="474" y="10" type="line" smooth="yes"/>
      <point x="478" y="6"/>
      <point x="483" y="0"/>
      <point x="497" y="0" type="curve" smooth="yes"/>
      <point x="701" y="0" type="line" smooth="yes"/>
      <point x="711" y="0"/>
      <point x="721" y="8"/>
      <point x="723" y="17" type="curve" smooth="yes"/>
      <point x="724" y="22"/>
      <point x="723" y="27"/>
      <point x="720" y="31" type="curve" smooth="yes"/>
      <point x="627" y="155" type="line"/>
      <point x="678" y="199"/>
      <point x="778" y="305"/>
      <point x="787" y="348" type="curve" smooth="yes"/>
      <point x="789" y="358"/>
      <point x="783" y="366"/>
      <point x="773" y="366" type="curve" smooth="yes"/>
      <point x="622" y="366" type="line" smooth="yes"/>
      <point x="611" y="366"/>
      <point x="603" y="361"/>
      <point x="600" y="356" type="curve" smooth="yes"/>
      <point x="564" y="300"/>
      <point x="533" y="274"/>
      <point x="533" y="274" type="curve"/>
      <point x="475" y="352" type="line"/>
      <point x="569" y="401"/>
      <point x="625" y="454"/>
      <point x="641" y="529" type="curve" smooth="yes"/>
      <point x="660" y="621"/>
      <point x="603" y="710"/>
      <point x="451" y="710" type="curve" smooth="yes"/>
      <point x="280" y="710"/>
      <point x="188" y="621"/>
      <point x="168" y="524" type="curve" smooth="yes"/>
      <point x="159" y="482"/>
      <point x="166" y="436"/>
      <point x="198" y="391" type="curve"/>
      <point x="102" y="343"/>
      <point x="45" y="282"/>
      <point x="28" y="201" type="curve" smooth="yes"/>
      <point x="-1" y="64"/>
      <point x="88" y="-10"/>
    </contour>
    <contour>
      <point x="296" y="157" type="curve" smooth="yes"/>
      <point x="268" y="157"/>
      <point x="241" y="180"/>
      <point x="248" y="212" type="curve" smooth="yes"/>
      <point x="253" y="232"/>
      <point x="271" y="252"/>
      <point x="289" y="260" type="curve"/>
      <point x="358" y="169" type="line"/>
      <point x="341" y="160"/>
      <point x="322" y="157"/>
    </contour>
    <contour>
      <point x="390" y="472" type="curve"/>
      <point x="376" y="488"/>
      <point x="370" y="506"/>
      <point x="373" y="520" type="curve" smooth="yes"/>
      <point x="377" y="542"/>
      <point x="399" y="557"/>
      <point x="418" y="557" type="curve" smooth="yes"/>
      <point x="440" y="557"/>
      <point x="451" y="542"/>
      <point x="447" y="521" type="curve" smooth="yes"/>
      <point x="442" y="500"/>
      <point x="421" y="485"/>
    </contour>
  </outline>
</glyph>
<glyph name="parenleft" format="2">
  <advance width="423"/>
  <unicode hex="0028"/>
  <outline>
    <contour>
      <point x="278" y="-159" type="curve" smooth="yes"/>
      <point x="293" y="-159"/>
      <point x="307" y="-147"/>
      <point x="310" y="-132" type="curve" smooth="yes"/>
      <point x="337" y="-5" type="line" smooth="yes"/>
      <point x="341" y="10"/>
      <point x="331" y="21"/>
      <point x="316" y="22" type="curve" smooth="yes"/>
      <point x="210" y="32"/>
      <point x="213" y="165"/>
      <point x="243" y="309" type="curve" smooth="yes"/>
      <point x="274" y="453"/>
      <point x="328" y="585"/>
      <point x="438" y="595" type="curve" smooth="yes"/>
      <point x="453" y="596"/>
      <point x="468" y="607"/>
      <point x="471" y="622" type="curve" smooth="yes"/>
      <point x="498" y="749" type="line" smooth="yes"/>
      <point x="501" y="764"/>
      <point x="491" y="776"/>
      <point x="476" y="776" type="curve" smooth="yes"/>
      <point x="234" y="776"/>
      <point x="104" y="649"/>
      <point x="32" y="309" type="curve" smooth="yes"/>
      <point x="-40" y="-31"/>
      <point x="136" y="-159"/>
    </contour>
  </outline>
</glyph>
<glyph name="period" format="2">
  <advance width="310"/>
  <unicode hex="002E"/>
  <outline>
    <contour>
      <point x="7" y="0" type="curve" smooth="yes"/>
      <point x="181" y="0" type="line" smooth="yes"/>
      <point x="196" y="0"/>
      <point x="210" y="12"/>
      <point x="213" y="27" type="curve" smooth="yes"/>
      <point x="250" y="201" type="line" smooth="yes"/>
      <point x="253" y="216"/>
      <point x="244" y="228"/>
      <point x="229" y="228" type="curve" smooth="yes"/>
      <point x="55" y="228" type="line" smooth="yes"/>
      <point x="40" y="228"/>
      <point x="25" y="216"/>
      <point x="22" y="201" type="curve" smooth="yes"/>
      <point x="-15" y="27" type="line" smooth="yes"/>
      <point x="-18" y="12"/>
      <point x="-8" y="0"/>
    </contour>
  </outline>
</glyph>
<glyph name="three" format="2">
  <advance width="709"/>
  <unicode hex="0033"/>
  <guideline x="400"/>
  <guideline x="1052"/>
  <guideline x="726"/>
  <outline>
    <contour>
      <point x="297" y="-10" type="curve" smooth="yes"/>
      <point x="486" y="-10"/>
      <point x="643" y="80"/>
      <point x="673" y="219" type="curve" smooth="yes"/>
      <point x="700" y="345"/>
      <point x="631" y="401"/>
      <point x="537" y="425" type="curve"/>
      <point x="537" y="428" type="line"/>
      <point x="671" y="506" type="line" smooth="yes"/>
      <point x="682" y="513"/>
      <point x="695" y="527"/>
      <point x="699" y="546" type="curve" smooth="yes"/>
      <point x="726" y="673" type="line" smooth="yes"/>
      <point x="729" y="688"/>
      <point x="720" y="700"/>
      <point x="705" y="700" type="curve" smooth="yes"/>
      <point x="193" y="700" type="line" smooth="yes"/>
      <point x="178" y="700"/>
      <point x="163" y="688"/>
      <point x="160" y="673" type="curve" smooth="yes"/>
      <point x="130" y="532" type="line" smooth="yes"/>
      <point x="127" y="517"/>
      <point x="137" y="505"/>
      <point x="152" y="505" type="curve" smooth="yes"/>
      <point x="415" y="505" type="line"/>
      <point x="259" y="429" type="line" smooth="yes"/>
      <point x="248" y="423"/>
      <point x="235" y="409"/>
      <point x="231" y="389" type="curve" smooth="yes"/>
      <point x="214" y="308" type="line" smooth="yes"/>
      <point x="210" y="293"/>
      <point x="220" y="281"/>
      <point x="235" y="281" type="curve" smooth="yes"/>
      <point x="360" y="281" type="line" smooth="yes"/>
      <point x="404" y="281"/>
      <point x="423" y="267"/>
      <point x="417" y="237" type="curve" smooth="yes"/>
      <point x="410" y="208"/>
      <point x="386" y="184"/>
      <point x="339" y="184" type="curve" smooth="yes"/>
      <point x="297" y="184"/>
      <point x="283" y="193"/>
      <point x="275" y="204" type="curve" smooth="yes"/>
      <point x="267" y="213"/>
      <point x="262" y="220"/>
      <point x="244" y="220" type="curve" smooth="yes"/>
      <point x="43" y="220" type="line" smooth="yes"/>
      <point x="31" y="220"/>
      <point x="19" y="210"/>
      <point x="16" y="198" type="curve" smooth="yes"/>
      <point x="3" y="119"/>
      <point x="56" y="-10"/>
    </contour>
  </outline>
</glyph>
<glyph name="six" format="2">
  <advance width="692"/>
  <unicode hex="0036"/>
  <guideline x="350" y="253" angle="0"/>
  <guideline x="728"/>
  <outline>
    <contour>
      <point x="299" y="-10" type="curve" smooth="yes"/>
      <point x="487" y="-10"/>
      <point x="644" y="103"/>
      <point x="676" y="254" type="curve" smooth="yes"/>
      <point x="709" y="410"/>
      <point x="571" y="489"/>
      <point x="476" y="498" type="curve" smooth="yes"/>
      <point x="474" y="498"/>
      <point x="471" y="498"/>
      <point x="469" y="498" type="curve"/>
      <point x="631" y="665" type="line" smooth="yes"/>
      <point x="633" y="668"/>
      <point x="636" y="672"/>
      <point x="637" y="678" type="curve" smooth="yes"/>
      <point x="640" y="690"/>
      <point x="632" y="700"/>
      <point x="620" y="700" type="curve" smooth="yes"/>
      <point x="419" y="700" type="line" smooth="yes"/>
      <point x="397" y="700"/>
      <point x="382" y="687"/>
      <point x="376" y="680" type="curve" smooth="yes"/>
      <point x="167" y="467" type="line" smooth="yes"/>
      <point x="133" y="432"/>
      <point x="42" y="335"/>
      <point x="24" y="249" type="curve" smooth="yes"/>
      <point x="-11" y="84"/>
      <point x="111" y="-10"/>
    </contour>
    <contour>
      <point x="338" y="185" type="curve" smooth="yes"/>
      <point x="300" y="185"/>
      <point x="273" y="208"/>
      <point x="282" y="250" type="curve" smooth="yes"/>
      <point x="291" y="292"/>
      <point x="326" y="315"/>
      <point x="365" y="315" type="curve" smooth="yes"/>
      <point x="404" y="315"/>
      <point x="429" y="292"/>
      <point x="420" y="250" type="curve" smooth="yes"/>
      <point x="411" y="208"/>
      <point x="376" y="185"/>
    </contour>
  </outline>
</glyph>
<glyph name="seven" format="2">
  <advance width="625"/>
  <unicode hex="0037"/>
  <guideline x="350" y="522" angle="0"/>
  <guideline x="672"/>
  <outline>
    <contour>
      <point x="85" y="0" type="curve" smooth="yes"/>
      <point x="278" y="0" type="line" smooth="yes"/>
      <point x="303" y="0"/>
      <point x="319" y="16"/>
      <point x="324" y="23" type="curve" smooth="yes"/>
      <point x="641" y="490" type="line" smooth="yes"/>
      <point x="650" y="503"/>
      <point x="660" y="518"/>
      <point x="665" y="541" type="curve" smooth="yes"/>
      <point x="693" y="673" type="line" smooth="yes"/>
      <point x="696" y="688"/>
      <point x="688" y="700"/>
      <point x="672" y="700" type="curve" smooth="yes"/>
      <point x="155" y="700" type="line" smooth="yes"/>
      <point x="140" y="700"/>
      <point x="125" y="688"/>
      <point x="122" y="673" type="curve" smooth="yes"/>
      <point x="90" y="522" type="line" smooth="yes"/>
      <point x="87" y="507"/>
      <point x="96" y="495"/>
      <point x="111" y="495" type="curve" smooth="yes"/>
      <point x="386" y="495" type="line"/>
      <point x="72" y="31" type="line" smooth="yes"/>
      <point x="70" y="29"/>
      <point x="69" y="26"/>
      <point x="68" y="22" type="curve" smooth="yes"/>
      <point x="65" y="10"/>
      <point x="73" y="0"/>
    </contour>
  </outline>
</glyph>
<glyph name="less" format="2">
  <advance width="538"/>
  <unicode hex="003C"/>
  <outline>
    <contour>
      <point x="418" y="14" type="curve" smooth="yes"/>
      <point x="430" y="14"/>
      <point x="441" y="23"/>
      <point x="444" y="35" type="curve" smooth="yes"/>
      <point x="478" y="197" type="line" smooth="yes"/>
      <point x="484" y="223"/>
      <point x="466" y="233"/>
      <point x="455" y="240" type="curve" smooth="yes"/>
      <point x="304" y="350" type="line"/>
      <point x="502" y="459" type="line" smooth="yes"/>
      <point x="515" y="466"/>
      <point x="538" y="477"/>
      <point x="543" y="503" type="curve" smooth="yes"/>
      <point x="578" y="665" type="line" smooth="yes"/>
      <point x="580" y="677"/>
      <point x="573" y="686"/>
      <point x="561" y="686" type="curve" smooth="yes"/>
      <point x="559" y="686"/>
      <point x="555" y="686"/>
      <point x="549" y="683" type="curve" smooth="yes"/>
      <point x="92" y="413" type="line" smooth="yes"/>
      <point x="71" y="401"/>
      <point x="59" y="392"/>
      <point x="54" y="371" type="curve" smooth="yes"/>
      <point x="45" y="329" type="line" smooth="yes"/>
      <point x="41" y="308"/>
      <point x="50" y="299"/>
      <point x="65" y="287" type="curve" smooth="yes"/>
      <point x="408" y="17" type="line" smooth="yes"/>
      <point x="412" y="14"/>
      <point x="416" y="14"/>
    </contour>
  </outline>
</glyph>
<glyph name="at" format="2">
  <advance width="856"/>
  <unicode hex="0040"/>
  <outline>
    <contour>
      <point x="365" y="-141" type="curve" smooth="yes"/>
      <point x="540" y="-141"/>
      <point x="661" y="-76"/>
      <point x="734" y="-5" type="curve" smooth="yes"/>
      <point x="739" y="0"/>
      <point x="743" y="4"/>
      <point x="744" y="10" type="curve" smooth="yes"/>
      <point x="749" y="27"/>
      <point x="738" y="38"/>
      <point x="723" y="38" type="curve" smooth="yes"/>
      <point x="625" y="38" type="line" smooth="yes"/>
      <point x="611" y="38"/>
      <point x="603" y="33"/>
      <point x="587" y="23" type="curve" smooth="yes"/>
      <point x="538" y="-9"/>
      <point x="500" y="-20"/>
      <point x="391" y="-20" type="curve" smooth="yes"/>
      <point x="207" y="-20"/>
      <point x="145" y="59"/>
      <point x="159" y="190" type="curve" smooth="yes"/>
      <point x="163" y="228"/>
      <point x="181" y="316"/>
      <point x="193" y="351" type="curve" smooth="yes"/>
      <point x="232" y="471"/>
      <point x="321" y="563"/>
      <point x="495" y="563" type="curve" smooth="yes"/>
      <point x="700" y="563"/>
      <point x="750" y="499"/>
      <point x="726" y="351" type="curve" smooth="yes"/>
      <point x="721" y="317"/>
      <point x="713" y="285"/>
      <point x="705" y="249" type="curve" smooth="yes"/>
      <point x="699" y="219"/>
      <point x="682" y="200"/>
      <point x="652" y="200" type="curve" smooth="yes"/>
      <point x="623" y="200"/>
      <point x="612" y="218"/>
      <point x="618" y="250" type="curve" smooth="yes"/>
      <point x="659" y="443" type="line" smooth="yes"/>
      <point x="663" y="458"/>
      <point x="653" y="470"/>
      <point x="638" y="470" type="curve" smooth="yes"/>
      <point x="566" y="470" type="line" smooth="yes"/>
      <point x="551" y="470"/>
      <point x="537" y="458"/>
      <point x="533" y="443" type="curve" smooth="yes"/>
      <point x="531" y="434" type="line"/>
      <point x="516" y="463"/>
      <point x="492" y="478"/>
      <point x="442" y="478" type="curve" smooth="yes"/>
      <point x="343" y="478"/>
      <point x="271" y="395"/>
      <point x="245" y="273" type="curve" smooth="yes"/>
      <point x="219" y="151"/>
      <point x="260" y="69"/>
      <point x="360" y="69" type="curve" smooth="yes"/>
      <point x="454" y="69"/>
      <point x="485" y="101"/>
      <point x="504" y="125" type="curve"/>
      <point x="518" y="103"/>
      <point x="559" y="79"/>
      <point x="626" y="79" type="curve" smooth="yes"/>
      <point x="702" y="79"/>
      <point x="798" y="133"/>
      <point x="826" y="234" type="curve" smooth="yes"/>
      <point x="836" y="270"/>
      <point x="848" y="322"/>
      <point x="852" y="356" type="curve" smooth="yes"/>
      <point x="874" y="532"/>
      <point x="824" y="684"/>
      <point x="521" y="684" type="curve" smooth="yes"/>
      <point x="269" y="684"/>
      <point x="114" y="512"/>
      <point x="68" y="356" type="curve" smooth="yes"/>
      <point x="57" y="321"/>
      <point x="36" y="222"/>
      <point x="32" y="185" type="curve" smooth="yes"/>
      <point x="8" y="6"/>
      <point x="94" y="-141"/>
    </contour>
    <contour>
      <point x="416" y="190" type="curve" smooth="yes"/>
      <point x="380" y="190"/>
      <point x="356" y="208"/>
      <point x="370" y="273" type="curve" smooth="yes"/>
      <point x="384" y="338"/>
      <point x="415" y="357"/>
      <point x="451" y="357" type="curve" smooth="yes"/>
      <point x="490" y="357"/>
      <point x="511" y="338"/>
      <point x="497" y="273" type="curve" smooth="yes"/>
      <point x="483" y="207"/>
      <point x="455" y="190"/>
    </contour>
  </outline>
</glyph>
<glyph name="E" format="2">
  <advance width="666"/>
  <unicode hex="0045"/>
  <outline>
    <contour>
      <point x="19" y="0" type="curve" smooth="yes"/>
      <point x="540" y="0" type="line" smooth="yes"/>
      <point x="555" y="0"/>
      <point x="569" y="12"/>
      <point x="572" y="27" type="curve" smooth="yes"/>
      <point x="602" y="168" type="line" smooth="yes"/>
      <point x="605" y="183"/>
      <point x="596" y="195"/>
      <point x="581" y="195" type="curve" smooth="yes"/>
      <point x="273" y="195" type="line"/>
      <point x="286" y="258" type="line"/>
      <point x="564" y="258" type="line" smooth="yes"/>
      <point x="579" y="258"/>
      <point x="594" y="270"/>
      <point x="597" y="285" type="curve" smooth="yes"/>
      <point x="625" y="415" type="line" smooth="yes"/>
      <point x="628" y="430"/>
      <point x="618" y="442"/>
      <point x="603" y="442" type="curve" smooth="yes"/>
      <point x="325" y="442" type="line"/>
      <point x="339" y="505" type="line"/>
      <point x="639" y="505" type="line" smooth="yes"/>
      <point x="654" y="505"/>
      <point x="668" y="517"/>
      <point x="672" y="532" type="curve" smooth="yes"/>
      <point x="702" y="673" type="line" smooth="yes"/>
      <point x="705" y="688"/>
      <point x="695" y="700"/>
      <point x="680" y="700" type="curve" smooth="yes"/>
      <point x="167" y="700" type="line" smooth="yes"/>
      <point x="152" y="700"/>
      <point x="138" y="688"/>
      <point x="135" y="673" type="curve" smooth="yes"/>
      <point x="-3" y="27" type="line" smooth="yes"/>
      <point x="-6" y="12"/>
      <point x="4" y="0"/>
    </contour>
  </outline>
</glyph>
<glyph name="Q" format="2">
  <advance width="742"/>
  <unicode hex="0051"/>
  <guideline x="350" y="710" angle="0"/>
  <guideline x="350" y="-10" angle="0"/>
  <guideline x="350" y="-42" angle="0"/>
  <guideline x="397"/>
  <guideline x="1065"/>
  <outline>
    <contour>
      <point x="435" y="-65" type="curve"/>
      <point x="631" y="-65" type="line"/>
      <point x="643" y="-65"/>
      <point x="656" y="-55"/>
      <point x="656" y="-43" type="curve" smooth="yes"/>
      <point x="657" y="-40"/>
      <point x="656" y="-36"/>
      <point x="655" y="-34" type="curve"/>
      <point x="600" y="79" type="line"/>
      <point x="652" y="123"/>
      <point x="690" y="184"/>
      <point x="710" y="260" type="curve" smooth="yes"/>
      <point x="724" y="314"/>
      <point x="738" y="379"/>
      <point x="748" y="436" type="curve" smooth="yes"/>
      <point x="778" y="611"/>
      <point x="668" y="710"/>
      <point x="472" y="710" type="curve" smooth="yes"/>
      <point x="276" y="710"/>
      <point x="124" y="611"/>
      <point x="80" y="436" type="curve" smooth="yes"/>
      <point x="66" y="379"/>
      <point x="52" y="314"/>
      <point x="42" y="260" type="curve" smooth="yes"/>
      <point x="12" y="81"/>
      <point x="123" y="-10"/>
      <point x="319" y="-10" type="curve" smooth="yes"/>
      <point x="339" y="-10"/>
      <point x="359" y="-9"/>
      <point x="378" y="-7" type="curve"/>
      <point x="398" y="-42" type="line"/>
      <point x="403" y="-50"/>
      <point x="410" y="-65"/>
    </contour>
    <contour>
      <point x="361" y="185" type="curve" smooth="yes"/>
      <point x="317" y="185"/>
      <point x="294" y="210"/>
      <point x="304" y="266" type="curve" smooth="yes"/>
      <point x="314" y="323"/>
      <point x="326" y="379"/>
      <point x="339" y="434" type="curve" smooth="yes"/>
      <point x="353" y="490"/>
      <point x="388" y="515"/>
      <point x="431" y="515" type="curve" smooth="yes"/>
      <point x="474" y="515"/>
      <point x="497" y="490"/>
      <point x="487" y="434" type="curve" smooth="yes"/>
      <point x="478" y="379"/>
      <point x="466" y="323"/>
      <point x="452" y="266" type="curve" smooth="yes"/>
      <point x="438" y="210"/>
      <point x="405" y="185"/>
    </contour>
  </outline>
</glyph>
<glyph name="V" format="2">
  <advance width="726"/>
  <unicode hex="0056"/>
  <outline>
    <contour>
      <point x="185" y="0" type="curve" smooth="yes"/>
      <point x="416" y="0" type="line" smooth="yes"/>
      <point x="443" y="0"/>
      <point x="460" y="18"/>
      <point x="468" y="33" type="curve" smooth="yes"/>
      <point x="791" y="671" type="line" smooth="yes"/>
      <point x="798" y="685"/>
      <point x="792" y="700"/>
      <point x="776" y="700" type="curve" smooth="yes"/>
      <point x="580" y="700" type="line" smooth="yes"/>
      <point x="553" y="700"/>
      <point x="535" y="682"/>
      <point x="528" y="667" type="curve"/>
      <point x="354" y="295" type="line"/>
      <point x="338" y="667" type="line" smooth="yes"/>
      <point x="337" y="682"/>
      <point x="327" y="700"/>
      <point x="300" y="700" type="curve" smooth="yes"/>
      <point x="121" y="700" type="line" smooth="yes"/>
      <point x="106" y="700"/>
      <point x="93" y="689"/>
      <point x="94" y="671" type="curve" smooth="yes"/>
      <point x="147" y="33" type="line" smooth="yes"/>
      <point x="147" y="18"/>
      <point x="158" y="0"/>
    </contour>
  </outline>
</glyph>
<glyph name="bracketleft" format="2">
  <advance width="431"/>
  <unicode hex="005B"/>
  <outline>
    <contour>
      <point x="-19" y="-159" type="curve" smooth="yes"/>
      <point x="284" y="-159" type="line" smooth="yes"/>
      <point x="299" y="-159"/>
      <point x="313" y="-147"/>
      <point x="316" y="-132" type="curve" smooth="yes"/>
      <point x="348" y="15" type="line" smooth="yes"/>
      <point x="351" y="30"/>
      <point x="341" y="42"/>
      <point x="326" y="42" type="curve" smooth="yes"/>
      <point x="207" y="42" type="line"/>
      <point x="325" y="593" type="line"/>
      <point x="444" y="593" type="line" smooth="yes"/>
      <point x="459" y="593"/>
      <point x="473" y="605"/>
      <point x="476" y="620" type="curve" smooth="yes"/>
      <point x="504" y="749" type="line" smooth="yes"/>
      <point x="507" y="764"/>
      <point x="497" y="776"/>
      <point x="482" y="776" type="curve" smooth="yes"/>
      <point x="179" y="776" type="line" smooth="yes"/>
      <point x="164" y="776"/>
      <point x="150" y="764"/>
      <point x="147" y="749" type="curve" smooth="yes"/>
      <point x="-41" y="-132" type="line" smooth="yes"/>
      <point x="-44" y="-147"/>
      <point x="-34" y="-159"/>
    </contour>
  </outline>
</glyph>
<glyph name="asciitilde" format="2">
  <advance width="549"/>
  <unicode hex="007E"/>
  <guideline x="350" y="300" angle="0"/>
  <outline>
    <contour>
      <point x="64" y="191" type="curve"/>
      <point x="73" y="192"/>
      <point x="80" y="196"/>
      <point x="86" y="200" type="curve" smooth="yes"/>
      <point x="98" y="209"/>
      <point x="127" y="226"/>
      <point x="158" y="226" type="curve" smooth="yes"/>
      <point x="251" y="226"/>
      <point x="281" y="184"/>
      <point x="380" y="184" type="curve" smooth="yes"/>
      <point x="448" y="184"/>
      <point x="498" y="220"/>
      <point x="507" y="264" type="curve" smooth="yes"/>
      <point x="530" y="372" type="line" smooth="yes"/>
      <point x="536" y="397"/>
      <point x="535" y="409"/>
      <point x="516" y="409" type="curve"/>
      <point x="507" y="408"/>
      <point x="500" y="404"/>
      <point x="494" y="400" type="curve" smooth="yes"/>
      <point x="482" y="391"/>
      <point x="453" y="374"/>
      <point x="422" y="374" type="curve" smooth="yes"/>
      <point x="329" y="374"/>
      <point x="299" y="416"/>
      <point x="200" y="416" type="curve" smooth="yes"/>
      <point x="132" y="416"/>
      <point x="82" y="380"/>
      <point x="73" y="336" type="curve" smooth="yes"/>
      <point x="50" y="228" type="line" smooth="yes"/>
      <point x="44" y="203"/>
      <point x="45" y="191"/>
    </contour>
  </outline>
</glyph>
<glyph name="sterling" format="2">
  <advance width="758"/>
  <unicode hex="00A3"/>
  <guideline x="350" y="345" angle="0"/>
  <guideline x="350" y="-11" angle="0"/>
  <guideline x="350" y="183" angle="0"/>
  <guideline x="350" y="86" angle="0"/>
  <guideline x="350" y="195" angle="0"/>
  <guideline x="766"/>
  <outline>
    <contour>
      <point x="471" y="-10" type="curve" smooth="yes"/>
      <point x="566" y="-10"/>
      <point x="687" y="69"/>
      <point x="720" y="209" type="curve" smooth="yes"/>
      <point x="722" y="219"/>
      <point x="717" y="228"/>
      <point x="705" y="228" type="curve" smooth="yes"/>
      <point x="574" y="228" type="line" smooth="yes"/>
      <point x="564" y="228"/>
      <point x="559" y="224"/>
      <point x="554" y="219" type="curve" smooth="yes"/>
      <point x="531" y="196"/>
      <point x="503" y="182"/>
      <point x="470" y="182" type="curve" smooth="yes"/>
      <point x="428" y="182"/>
      <point x="401" y="189"/>
      <point x="357" y="199" type="curve"/>
      <point x="362" y="217"/>
      <point x="366" y="234"/>
      <point x="369" y="250" type="curve"/>
      <point x="477" y="250" type="line" smooth="yes"/>
      <point x="492" y="250"/>
      <point x="507" y="262"/>
      <point x="510" y="277" type="curve" smooth="yes"/>
      <point x="534" y="389" type="line" smooth="yes"/>
      <point x="537" y="404"/>
      <point x="528" y="416"/>
      <point x="513" y="416" type="curve" smooth="yes"/>
      <point x="400" y="416" type="line"/>
      <point x="401" y="425"/>
      <point x="403" y="435"/>
      <point x="405" y="445" type="curve" smooth="yes"/>
      <point x="415" y="493"/>
      <point x="430" y="516"/>
      <point x="464" y="516" type="curve" smooth="yes"/>
      <point x="488" y="516"/>
      <point x="499" y="504"/>
      <point x="506" y="472" type="curve" smooth="yes"/>
      <point x="510" y="450"/>
      <point x="518" y="443"/>
      <point x="540" y="443" type="curve" smooth="yes"/>
      <point x="744" y="443" type="line" smooth="yes"/>
      <point x="756" y="443"/>
      <point x="768" y="453"/>
      <point x="771" y="465" type="curve" smooth="yes"/>
      <point x="802" y="627"/>
      <point x="685" y="711"/>
      <point x="505" y="711" type="curve" smooth="yes"/>
      <point x="313" y="711"/>
      <point x="185" y="632"/>
      <point x="145" y="446" type="curve" smooth="yes"/>
      <point x="143" y="435"/>
      <point x="141" y="425"/>
      <point x="140" y="416" type="curve"/>
      <point x="105" y="416" type="line" smooth="yes"/>
      <point x="90" y="416"/>
      <point x="75" y="404"/>
      <point x="72" y="389" type="curve" smooth="yes"/>
      <point x="48" y="277" type="line" smooth="yes"/>
      <point x="45" y="262"/>
      <point x="54" y="250"/>
      <point x="69" y="250" type="curve" smooth="yes"/>
      <point x="144" y="250" type="line"/>
      <point x="143" y="235"/>
      <point x="142" y="219"/>
      <point x="138" y="202" type="curve"/>
      <point x="63" y="166"/>
      <point x="12" y="96"/>
      <point x="-8" y="18" type="curve" smooth="yes"/>
      <point x="-10" y="8"/>
      <point x="-3" y="0"/>
      <point x="7" y="0" type="curve" smooth="yes"/>
      <point x="161" y="0" type="line" smooth="yes"/>
      <point x="168" y="0"/>
      <point x="174" y="4"/>
      <point x="178" y="9" type="curve" smooth="yes"/>
      <point x="194" y="28"/>
      <point x="215" y="35"/>
      <point x="239" y="35" type="curve" smooth="yes"/>
      <point x="307" y="35"/>
      <point x="369" y="-10"/>
    </contour>
  </outline>
</glyph>
<glyph name="section" format="2">
  <advance width="636"/>
  <unicode hex="00A7"/>
  <guideline x="350" y="-140" angle="0"/>
  <guideline x="350" y="275" angle="0"/>
  <guideline x="350" y="548" angle="0"/>
  <guideline x="350" y="239" angle="0"/>
  <guideline x="350" y="503" angle="0"/>
  <guideline x="683"/>
  <outline>
    <contour>
      <point x="228" y="-140" type="curve" smooth="yes"/>
      <point x="391" y="-140"/>
      <point x="499" y="-49"/>
      <point x="523" y="65" type="curve" smooth="yes"/>
      <point x="529" y="93"/>
      <point x="528" y="116"/>
      <point x="522" y="137" type="curve"/>
      <point x="574" y="171"/>
      <point x="608" y="219"/>
      <point x="620" y="275" type="curve" smooth="yes"/>
      <point x="641" y="377"/>
      <point x="606" y="438"/>
      <point x="469" y="474" type="curve"/>
      <point x="370" y="493"/>
      <point x="368" y="514"/>
      <point x="372" y="532" type="curve" smooth="yes"/>
      <point x="375" y="547"/>
      <point x="387" y="559"/>
      <point x="402" y="559" type="curve" smooth="yes"/>
      <point x="422" y="559"/>
      <point x="431" y="552"/>
      <point x="437" y="546" type="curve" smooth="yes"/>
      <point x="445" y="539"/>
      <point x="449" y="532"/>
      <point x="464" y="532" type="curve" smooth="yes"/>
      <point x="630" y="532" type="line" smooth="yes"/>
      <point x="642" y="532"/>
      <point x="655" y="540"/>
      <point x="657" y="555" type="curve" smooth="yes"/>
      <point x="667" y="617"/>
      <point x="594" y="710"/>
      <point x="431" y="710" type="curve" smooth="yes"/>
      <point x="268" y="710"/>
      <point x="161" y="619"/>
      <point x="137" y="505" type="curve" smooth="yes"/>
      <point x="131" y="477"/>
      <point x="131" y="453"/>
      <point x="137" y="433" type="curve"/>
      <point x="85" y="398"/>
      <point x="52" y="351"/>
      <point x="40" y="295" type="curve" smooth="yes"/>
      <point x="18" y="193"/>
      <point x="53" y="132"/>
      <point x="191" y="96" type="curve"/>
      <point x="290" y="77"/>
      <point x="291" y="56"/>
      <point x="287" y="38" type="curve" smooth="yes"/>
      <point x="284" y="23"/>
      <point x="273" y="11"/>
      <point x="258" y="11" type="curve" smooth="yes"/>
      <point x="236" y="11"/>
      <point x="227" y="19"/>
      <point x="221" y="27" type="curve" smooth="yes"/>
      <point x="214" y="34"/>
      <point x="209" y="40"/>
      <point x="196" y="40" type="curve" smooth="yes"/>
      <point x="30" y="40" type="line" smooth="yes"/>
      <point x="18" y="40"/>
      <point x="5" y="32"/>
      <point x="3" y="17" type="curve" smooth="yes"/>
      <point x="-7" y="-45"/>
      <point x="65" y="-140"/>
    </contour>
    <contour>
      <point x="377" y="242" type="curve" smooth="yes"/>
      <point x="338" y="252"/>
      <point x="310" y="260"/>
      <point x="291" y="267" type="curve" smooth="yes"/>
      <point x="256" y="279"/>
      <point x="247" y="289"/>
      <point x="251" y="308" type="curve" smooth="yes"/>
      <point x="253" y="317"/>
      <point x="264" y="332"/>
      <point x="283" y="327" type="curve" smooth="yes"/>
      <point x="309" y="320"/>
      <point x="331" y="314"/>
      <point x="371" y="302" type="curve" smooth="yes"/>
      <point x="401" y="294"/>
      <point x="414" y="284"/>
      <point x="409" y="262" type="curve" smooth="yes"/>
      <point x="406" y="250"/>
      <point x="395" y="239"/>
    </contour>
  </outline>
</glyph>
<glyph name="guillemetleft" format="2">
  <advance width="632"/>
  <unicode hex="00AB"/>
  <outline>
    <contour>
      <point x="518" y="52" type="curve" smooth="yes"/>
      <point x="530" y="52"/>
      <point x="542" y="62"/>
      <point x="545" y="74" type="curve" smooth="yes"/>
      <point x="575" y="215" type="line" smooth="yes"/>
      <point x="580" y="238"/>
      <point x="577" y="247"/>
      <point x="566" y="260" type="curve" smooth="yes"/>
      <point x="512" y="329" type="line"/>
      <point x="596" y="398" type="line" smooth="yes"/>
      <point x="612" y="411"/>
      <point x="618" y="420"/>
      <point x="623" y="443" type="curve" smooth="yes"/>
      <point x="653" y="584" type="line" smooth="yes"/>
      <point x="656" y="596"/>
      <point x="648" y="606"/>
      <point x="636" y="606" type="curve" smooth="yes"/>
      <point x="635" y="606"/>
      <point x="628" y="606"/>
      <point x="621" y="601" type="curve" smooth="yes"/>
      <point x="359" y="390" type="line" smooth="yes"/>
      <point x="350" y="383"/>
      <point x="342" y="374"/>
      <point x="339" y="362" type="curve" smooth="yes"/>
      <point x="325" y="296" type="line" smooth="yes"/>
      <point x="323" y="284"/>
      <point x="327" y="275"/>
      <point x="333" y="268" type="curve" smooth="yes"/>
      <point x="505" y="57" type="line" smooth="yes"/>
      <point x="510" y="52"/>
      <point x="517" y="52"/>
    </contour>
    <contour>
      <point x="228" y="52" type="curve" smooth="yes"/>
      <point x="240" y="52"/>
      <point x="252" y="62"/>
      <point x="255" y="74" type="curve" smooth="yes"/>
      <point x="285" y="215" type="line" smooth="yes"/>
      <point x="290" y="238"/>
      <point x="287" y="247"/>
      <point x="276" y="260" type="curve" smooth="yes"/>
      <point x="222" y="329" type="line"/>
      <point x="306" y="398" type="line" smooth="yes"/>
      <point x="322" y="411"/>
      <point x="328" y="420"/>
      <point x="333" y="443" type="curve" smooth="yes"/>
      <point x="363" y="584" type="line" smooth="yes"/>
      <point x="366" y="596"/>
      <point x="358" y="606"/>
      <point x="346" y="606" type="curve" smooth="yes"/>
      <point x="345" y="606"/>
      <point x="338" y="606"/>
      <point x="331" y="601" type="curve" smooth="yes"/>
      <point x="69" y="390" type="line" smooth="yes"/>
      <point x="60" y="383"/>
      <point x="52" y="374"/>
      <point x="49" y="362" type="curve"/>
      <point x="35" y="296" type="line" smooth="yes"/>
      <point x="33" y="284"/>
      <point x="37" y="275"/>
      <point x="43" y="268" type="curve" smooth="yes"/>
      <point x="215" y="57" type="line" smooth="yes"/>
      <point x="220" y="52"/>
      <point x="227" y="52"/>
    </contour>
  </outline>
</glyph>
<glyph name="logicalnot" format="2">
  <advance width="563"/>
  <unicode hex="00AC"/>
  <outline>
    <contour>
      <point x="316" y="53" type="curve" smooth="yes"/>
      <point x="432" y="53" type="line" smooth="yes"/>
      <point x="447" y="53"/>
      <point x="461" y="65"/>
      <point x="465" y="80" type="curve" smooth="yes"/>
      <point x="516" y="323" type="line" smooth="yes"/>
      <point x="519" y="338"/>
      <point x="510" y="350"/>
      <point x="495" y="350" type="curve" smooth="yes"/>
      <point x="80" y="350" type="line" smooth="yes"/>
      <point x="65" y="350"/>
      <point x="50" y="338"/>
      <point x="47" y="323" type="curve" smooth="yes"/>
      <point x="22" y="207" type="line" smooth="yes"/>
      <point x="19" y="192"/>
      <point x="29" y="180"/>
      <point x="44" y="180" type="curve" smooth="yes"/>
      <point x="316" y="180" type="line"/>
      <point x="295" y="80" type="line" smooth="yes"/>
      <point x="291" y="65"/>
      <point x="301" y="53"/>
    </contour>
  </outline>
</glyph>
<glyph name="macron" format="2">
  <advance width="427"/>
  <unicode hex="00AF"/>
  <outline>
    <contour>
      <point x="49" y="595" type="curve" smooth="yes"/>
      <point x="376" y="595" type="line" smooth="yes"/>
      <point x="389" y="595"/>
      <point x="401" y="605"/>
      <point x="404" y="618" type="curve" smooth="yes"/>
      <point x="426" y="722" type="line" smooth="yes"/>
      <point x="429" y="735"/>
      <point x="421" y="745"/>
      <point x="408" y="745" type="curve" smooth="yes"/>
      <point x="81" y="745" type="line" smooth="yes"/>
      <point x="68" y="745"/>
      <point x="56" y="735"/>
      <point x="53" y="722" type="curve" smooth="yes"/>
      <point x="31" y="618" type="line" smooth="yes"/>
      <point x="28" y="605"/>
      <point x="36" y="595"/>
    </contour>
  </outline>
</glyph>
<glyph name="germandbls" format="2">
  <advance width="682"/>
  <unicode hex="00DF"/>
  <guideline x="350" y="541" angle="0"/>
  <outline>
    <contour>
      <point x="23" y="0" type="curve" smooth="yes"/>
      <point x="201" y="0" type="line" smooth="yes"/>
      <point x="216" y="0"/>
      <point x="231" y="12"/>
      <point x="234" y="27" type="curve"/>
      <point x="326" y="459" type="line" smooth="yes"/>
      <point x="338" y="518"/>
      <point x="367" y="541"/>
      <point x="406" y="541" type="curve"/>
      <point x="445" y="541"/>
      <point x="464" y="518"/>
      <point x="458" y="489" type="curve" smooth="yes"/>
      <point x="452" y="460"/>
      <point x="421" y="439"/>
      <point x="383" y="438" type="curve"/>
      <point x="380" y="438" type="line"/>
      <point x="355" y="438"/>
      <point x="349" y="426"/>
      <point x="346" y="411" type="curve" smooth="yes"/>
      <point x="325" y="313" type="line" smooth="yes"/>
      <point x="322" y="298"/>
      <point x="327" y="286"/>
      <point x="348" y="286" type="curve"/>
      <point x="350" y="286" type="line"/>
      <point x="396" y="286"/>
      <point x="416" y="262"/>
      <point x="408" y="227" type="curve" smooth="yes"/>
      <point x="401" y="191"/>
      <point x="367" y="168"/>
      <point x="329" y="168" type="curve"/>
      <point x="327" y="168" type="line"/>
      <point x="306" y="169"/>
      <point x="291" y="156"/>
      <point x="288" y="141" type="curve" smooth="yes"/>
      <point x="264" y="27" type="line" smooth="yes"/>
      <point x="261" y="12"/>
      <point x="270" y="0"/>
      <point x="291" y="0" type="curve"/>
      <point x="326" y="0" type="line"/>
      <point x="520" y="0"/>
      <point x="630" y="113"/>
      <point x="652" y="216" type="curve" smooth="yes"/>
      <point x="671" y="303"/>
      <point x="645" y="348"/>
      <point x="597" y="375" type="curve"/>
      <point x="645" y="407"/>
      <point x="671" y="447"/>
      <point x="683" y="502" type="curve" smooth="yes"/>
      <point x="705" y="608"/>
      <point x="648" y="709"/>
      <point x="442" y="710" type="curve"/>
      <point x="236" y="709"/>
      <point x="123" y="598"/>
      <point x="92" y="452" type="curve" smooth="yes"/>
      <point x="2" y="27" type="line" smooth="yes"/>
      <point x="-1" y="12"/>
      <point x="8" y="0"/>
    </contour>
  </outline>
</glyph>
<glyph name="oslash" format="2">
  <advance width="667"/>
  <unicode hex="00F8"/>
  <outline>
    <contour>
      <point x="284" y="-10" type="curve" smooth="yes"/>
      <point x="468" y="-10"/>
      <point x="580" y="66"/>
      <point x="621" y="213" type="curve" smooth="yes"/>
      <point x="630" y="243"/>
      <point x="639" y="285"/>
      <point x="642" y="316" type="curve"/>
      <point x="655" y="321" type="line"/>
      <point x="673" y="327"/>
      <point x="681" y="336"/>
      <point x="684" y="354" type="curve"/>
      <point x="699" y="422" type="line"/>
      <point x="701" y="434"/>
      <point x="694" y="443"/>
      <point x="682" y="443" type="curve" smooth="yes"/>
      <point x="680" y="443"/>
      <point x="676" y="442"/>
      <point x="671" y="440" type="curve"/>
      <point x="631" y="425" type="line"/>
      <point x="600" y="496"/>
      <point x="521" y="530"/>
      <point x="399" y="530" type="curve" smooth="yes"/>
      <point x="226" y="530"/>
      <point x="103" y="454"/>
      <point x="61" y="307" type="curve" smooth="yes"/>
      <point x="53" y="277"/>
      <point x="46" y="244"/>
      <point x="42" y="214" type="curve"/>
      <point x="26" y="209" type="line"/>
      <point x="8" y="203"/>
      <point x="0" y="194"/>
      <point x="-3" y="176" type="curve"/>
      <point x="-18" y="108" type="line"/>
      <point x="-20" y="96"/>
      <point x="-13" y="87"/>
      <point x="-1" y="87" type="curve" smooth="yes"/>
      <point x="1" y="87"/>
      <point x="5" y="88"/>
      <point x="10" y="90" type="curve"/>
      <point x="48" y="103" type="line"/>
      <point x="75" y="28"/>
      <point x="153" y="-10"/>
    </contour>
    <contour>
      <point x="318" y="150" type="curve" smooth="yes"/>
      <point x="289" y="150"/>
      <point x="283" y="162"/>
      <point x="284" y="188" type="curve"/>
      <point x="378" y="222" type="line"/>
      <point x="378" y="221"/>
      <point x="378" y="219"/>
      <point x="378" y="218" type="curve"/>
      <point x="365" y="171"/>
      <point x="356" y="150"/>
    </contour>
    <contour>
      <point x="307" y="309" type="line"/>
      <point x="307" y="311"/>
      <point x="308" y="313"/>
      <point x="308" y="315" type="curve" smooth="yes"/>
      <point x="320" y="350"/>
      <point x="331" y="370"/>
      <point x="365" y="370" type="curve" smooth="yes"/>
      <point x="389" y="370"/>
      <point x="397" y="360"/>
      <point x="398" y="342" type="curve"/>
    </contour>
  </outline>
</glyph>
<glyph name="aogonek" format="2">
  <advance width="622"/>
  <unicode hex="0105"/>
  <outline>
    <contour>
      <point x="445" y="-220" type="curve"/>
      <point x="459" y="-220" type="line"/>
      <point x="474" y="-220"/>
      <point x="489" y="-208"/>
      <point x="492" y="-193" type="curve"/>
      <point x="507" y="-125" type="line"/>
      <point x="510" y="-110"/>
      <point x="500" y="-98"/>
      <point x="485" y="-98" type="curve"/>
      <point x="475" y="-98" type="line"/>
      <point x="436" y="-98"/>
      <point x="431" y="-70"/>
      <point x="436" y="-49" type="curve" smooth="yes"/>
      <point x="440" y="-29"/>
      <point x="456" y="-2"/>
      <point x="490" y="0" type="curve"/>
      <point x="506" y="0" type="line"/>
      <point x="521" y="0"/>
      <point x="536" y="12"/>
      <point x="539" y="27" type="curve"/>
      <point x="600" y="314" type="line"/>
      <point x="629" y="451"/>
      <point x="559" y="530"/>
      <point x="378" y="530" type="curve" smooth="yes"/>
      <point x="191" y="530"/>
      <point x="97" y="431"/>
      <point x="83" y="380" type="curve" smooth="yes"/>
      <point x="79" y="367"/>
      <point x="87" y="358"/>
      <point x="100" y="358" type="curve"/>
      <point x="267" y="358" type="line"/>
      <point x="268" y="358"/>
      <point x="269" y="358"/>
      <point x="270" y="358" type="curve"/>
      <point x="302" y="358"/>
      <point x="312" y="390"/>
      <point x="346" y="390" type="curve" smooth="yes"/>
      <point x="374" y="390"/>
      <point x="373" y="375"/>
      <point x="365" y="340" type="curve"/>
      <point x="365" y="339" type="line"/>
      <point x="256" y="322" type="line"/>
      <point x="118" y="299"/>
      <point x="20" y="246"/>
      <point x="0" y="149" type="curve" smooth="yes"/>
      <point x="-19" y="59"/>
      <point x="45" y="-10"/>
      <point x="160" y="-10" type="curve" smooth="yes"/>
      <point x="222" y="-10"/>
      <point x="278" y="15"/>
      <point x="316" y="55" type="curve"/>
      <point x="310" y="27" type="line"/>
      <point x="307" y="14"/>
      <point x="313" y="3"/>
      <point x="324" y="0" type="curve"/>
      <point x="318" y="-14"/>
      <point x="313" y="-33"/>
      <point x="310" y="-49" type="curve" smooth="yes"/>
      <point x="290" y="-144"/>
      <point x="324" y="-220"/>
    </contour>
    <contour>
      <point x="261" y="138" type="curve" smooth="yes"/>
      <point x="236" y="138"/>
      <point x="225" y="151"/>
      <point x="228" y="166" type="curve" smooth="yes"/>
      <point x="231" y="180"/>
      <point x="244" y="195"/>
      <point x="280" y="203" type="curve"/>
      <point x="342" y="216" type="line"/>
      <point x="342" y="215" type="line"/>
      <point x="331" y="162"/>
      <point x="300" y="138"/>
    </contour>
  </outline>
</glyph>
<glyph name="Iogonek" format="2">
  <advance width="368"/>
  <unicode hex="012E"/>
  <outline>
    <contour>
      <point x="176" y="-222" type="curve" smooth="yes"/>
      <point x="190" y="-222" type="line" smooth="yes"/>
      <point x="205" y="-222"/>
      <point x="220" y="-210"/>
      <point x="223" y="-195" type="curve" smooth="yes"/>
      <point x="237" y="-127" type="line" smooth="yes"/>
      <point x="240" y="-112"/>
      <point x="231" y="-100"/>
      <point x="216" y="-100" type="curve" smooth="yes"/>
      <point x="206" y="-100" type="line"/>
      <point x="167" y="-100"/>
      <point x="162" y="-71"/>
      <point x="167" y="-50" type="curve" smooth="yes"/>
      <point x="171" y="-29"/>
      <point x="188" y="0"/>
      <point x="227" y="0" type="curve" smooth="yes"/>
      <point x="237" y="0" type="line" smooth="yes"/>
      <point x="252" y="0"/>
      <point x="267" y="12"/>
      <point x="270" y="27" type="curve" smooth="yes"/>
      <point x="407" y="673" type="line" smooth="yes"/>
      <point x="410" y="688"/>
      <point x="401" y="700"/>
      <point x="386" y="700" type="curve" smooth="yes"/>
      <point x="182" y="700" type="line" smooth="yes"/>
      <point x="167" y="700"/>
      <point x="152" y="688"/>
      <point x="149" y="673" type="curve" smooth="yes"/>
      <point x="12" y="27" type="line" smooth="yes"/>
      <point x="9" y="12"/>
      <point x="18" y="0"/>
      <point x="33" y="0" type="curve" smooth="yes"/>
      <point x="56" y="0" type="line"/>
      <point x="50" y="-16"/>
      <point x="44" y="-32"/>
      <point x="41" y="-50" type="curve" smooth="yes"/>
      <point x="20" y="-145"/>
      <point x="55" y="-222"/>
    </contour>
  </outline>
</glyph>
<glyph name="iogonek" format="2">
  <advance width="323"/>
  <unicode hex="012F"/>
  <outline>
    <contour>
      <point x="147" y="-192" type="curve" smooth="yes"/>
      <point x="161" y="-192" type="line" smooth="yes"/>
      <point x="176" y="-192"/>
      <point x="191" y="-180"/>
      <point x="194" y="-165" type="curve" smooth="yes"/>
      <point x="206" y="-107" type="line" smooth="yes"/>
      <point x="210" y="-92"/>
      <point x="200" y="-80"/>
      <point x="185" y="-80" type="curve"/>
      <point x="175" y="-80" type="line" smooth="yes"/>
      <point x="136" y="-80"/>
      <point x="129" y="-61"/>
      <point x="134" y="-40" type="curve" smooth="yes"/>
      <point x="138" y="-19"/>
      <point x="153" y="0"/>
      <point x="192" y="0" type="curve" smooth="yes"/>
      <point x="202" y="0" type="line" smooth="yes"/>
      <point x="217" y="0"/>
      <point x="232" y="12"/>
      <point x="235" y="27" type="curve" smooth="yes"/>
      <point x="334" y="493" type="line" smooth="yes"/>
      <point x="337" y="508"/>
      <point x="328" y="520"/>
      <point x="313" y="520" type="curve" smooth="yes"/>
      <point x="134" y="520" type="line" smooth="yes"/>
      <point x="119" y="520"/>
      <point x="104" y="508"/>
      <point x="101" y="493" type="curve" smooth="yes"/>
      <point x="2" y="27" type="line" smooth="yes"/>
      <point x="-1" y="12"/>
      <point x="8" y="0"/>
      <point x="23" y="0" type="curve" smooth="yes"/>
      <point x="30" y="0" type="line"/>
      <point x="25" y="-12"/>
      <point x="21" y="-26"/>
      <point x="18" y="-40" type="curve" smooth="yes"/>
      <point x="0" y="-125"/>
      <point x="36" y="-192"/>
    </contour>
    <contour>
      <point x="150" y="575" type="curve" smooth="yes"/>
      <point x="319" y="575" type="line" smooth="yes"/>
      <point x="334" y="575"/>
      <point x="349" y="587"/>
      <point x="352" y="602" type="curve" smooth="yes"/>
      <point x="378" y="723" type="line" smooth="yes"/>
      <point x="381" y="738"/>
      <point x="372" y="750"/>
      <point x="357" y="750" type="curve" smooth="yes"/>
      <point x="188" y="750" type="line" smooth="yes"/>
      <point x="173" y="750"/>
      <point x="158" y="738"/>
      <point x="155" y="723" type="curve" smooth="yes"/>
      <point x="129" y="602" type="line" smooth="yes"/>
      <point x="126" y="587"/>
      <point x="135" y="575"/>
    </contour>
  </outline>
</glyph>
<glyph name="Eng" format="2">
  <advance width="740"/>
  <unicode hex="014A"/>
  <guideline x="350" y="26" angle="0"/>
  <outline>
    <contour>
      <point x="246" y="-225" type="curve" smooth="yes"/>
      <point x="262" y="-225" type="line" smooth="yes"/>
      <point x="444" y="-225"/>
      <point x="605" y="-145"/>
      <point x="642" y="26" type="curve" smooth="yes"/>
      <point x="779" y="673" type="line" smooth="yes"/>
      <point x="782" y="688"/>
      <point x="773" y="700"/>
      <point x="758" y="700" type="curve" smooth="yes"/>
      <point x="577" y="700" type="line" smooth="yes"/>
      <point x="562" y="700"/>
      <point x="547" y="688"/>
      <point x="544" y="673" type="curve" smooth="yes"/>
      <point x="486" y="400" type="line"/>
      <point x="376" y="677" type="line" smooth="yes"/>
      <point x="374" y="684"/>
      <point x="367" y="700"/>
      <point x="340" y="700" type="curve" smooth="yes"/>
      <point x="182" y="700" type="line" smooth="yes"/>
      <point x="167" y="700"/>
      <point x="152" y="688"/>
      <point x="149" y="673" type="curve" smooth="yes"/>
      <point x="12" y="27" type="line" smooth="yes"/>
      <point x="9" y="12"/>
      <point x="18" y="0"/>
      <point x="33" y="0" type="curve" smooth="yes"/>
      <point x="214" y="0" type="line" smooth="yes"/>
      <point x="229" y="0"/>
      <point x="244" y="12"/>
      <point x="247" y="27" type="curve" smooth="yes"/>
      <point x="300" y="278" type="line"/>
      <point x="409" y="38" type="line"/>
      <point x="409" y="36" type="line"/>
      <point x="402" y="2"/>
      <point x="373" y="-22"/>
      <point x="330" y="-22" type="curve" smooth="yes"/>
      <point x="290" y="-22" type="line" smooth="yes"/>
      <point x="275" y="-22"/>
      <point x="260" y="-34"/>
      <point x="257" y="-49" type="curve"/>
      <point x="225" y="-198" type="line" smooth="yes"/>
      <point x="222" y="-213"/>
      <point x="231" y="-225"/>
    </contour>
  </outline>
</glyph>
<glyph name="ogonek" format="2">
  <advance width="280"/>
  <unicode hex="02DB"/>
  <outline>
    <contour>
      <point x="181" y="-220" type="curve" smooth="yes"/>
      <point x="185" y="-220" type="line" smooth="yes"/>
      <point x="200" y="-220"/>
      <point x="214" y="-208"/>
      <point x="217" y="-193" type="curve" smooth="yes"/>
      <point x="232" y="-125" type="line" smooth="yes"/>
      <point x="235" y="-110"/>
      <point x="226" y="-98"/>
      <point x="211" y="-98" type="curve" smooth="yes"/>
      <point x="201" y="-98" type="line" smooth="yes"/>
      <point x="162" y="-98"/>
      <point x="157" y="-70"/>
      <point x="161" y="-49" type="curve" smooth="yes"/>
      <point x="166" y="-28"/>
      <point x="183" y="0"/>
      <point x="222" y="0" type="curve" smooth="yes"/>
      <point x="232" y="0" type="line" smooth="yes"/>
      <point x="247" y="0"/>
      <point x="261" y="12"/>
      <point x="264" y="27" type="curve" smooth="yes"/>
      <point x="279" y="95" type="line" smooth="yes"/>
      <point x="282" y="110"/>
      <point x="272" y="122"/>
      <point x="257" y="122" type="curve" smooth="yes"/>
      <point x="213" y="122" type="line" smooth="yes"/>
      <point x="102" y="122"/>
      <point x="55" y="56"/>
      <point x="35" y="-39" type="curve" smooth="yes"/>
      <point x="15" y="-134"/>
      <point x="60" y="-220"/>
    </contour>
  </outline>
</glyph>
<glyph name="commaaccentcomb" format="2">
  <unicode hex="0326"/>
  <guideline x="350" y="-50" angle="0"/>
  <guideline x="350" y="-250" angle="0"/>
  <anchor x="117" y="0" name="_bottom"/>
  <anchor x="61" y="-250" name="bottom"/>
  <outline>
    <contour>
      <point x="-30" y="-250" type="curve" smooth="yes"/>
      <point x="75" y="-250" type="line" smooth="yes"/>
      <point x="101" y="-250"/>
      <point x="117" y="-231"/>
      <point x="125" y="-218" type="curve" smooth="yes"/>
      <point x="209" y="-79" type="line" smooth="yes"/>
      <point x="211" y="-76"/>
      <point x="211" y="-74"/>
      <point x="212" y="-72" type="curve" smooth="yes"/>
      <point x="214" y="-60"/>
      <point x="207" y="-50"/>
      <point x="195" y="-50" type="curve" smooth="yes"/>
      <point x="55" y="-50" type="line" smooth="yes"/>
      <point x="28" y="-50"/>
      <point x="10" y="-71"/>
      <point x="3" y="-89" type="curve"/>
      <point x="-47" y="-228" type="line"/>
      <point x="-50" y="-240"/>
      <point x="-42" y="-250"/>
    </contour>
  </outline>
</glyph>
<glyph name="E-cy" format="2">
  <advance width="718"/>
  <unicode hex="0404"/>
  <outline>
    <contour>
      <point x="306" y="-10" type="curve" smooth="yes"/>
      <point x="470" y="-10"/>
      <point x="628" y="52"/>
      <point x="675" y="197" type="curve" smooth="yes"/>
      <point x="679" y="209"/>
      <point x="670" y="219"/>
      <point x="658" y="219" type="curve" smooth="yes"/>
      <point x="462" y="219" type="line" smooth="yes"/>
      <point x="446" y="219"/>
      <point x="439" y="215"/>
      <point x="425" y="203" type="curve" smooth="yes"/>
      <point x="409" y="190"/>
      <point x="389" y="183"/>
      <point x="354" y="183" type="curve" smooth="yes"/>
      <point x="303" y="183"/>
      <point x="277" y="205"/>
      <point x="287" y="250" type="curve"/>
      <point x="289" y="260" type="line"/>
      <point x="442" y="260" type="line" smooth="yes"/>
      <point x="457" y="260"/>
      <point x="472" y="274"/>
      <point x="475" y="289" type="curve" smooth="yes"/>
      <point x="501" y="409" type="line" smooth="yes"/>
      <point x="504" y="424"/>
      <point x="495" y="438"/>
      <point x="480" y="438" type="curve" smooth="yes"/>
      <point x="327" y="438" type="line"/>
      <point x="329" y="448" type="line"/>
      <point x="339" y="496"/>
      <point x="372" y="515"/>
      <point x="424" y="515" type="curve" smooth="yes"/>
      <point x="459" y="515"/>
      <point x="477" y="504"/>
      <point x="482" y="495" type="curve" smooth="yes"/>
      <point x="488" y="483"/>
      <point x="493" y="479"/>
      <point x="510" y="479" type="curve" smooth="yes"/>
      <point x="708" y="479" type="line" smooth="yes"/>
      <point x="720" y="479"/>
      <point x="734" y="489"/>
      <point x="735" y="501" type="curve" smooth="yes"/>
      <point x="748" y="644"/>
      <point x="632" y="710"/>
      <point x="460" y="710" type="curve" smooth="yes"/>
      <point x="264" y="710"/>
      <point x="113" y="618"/>
      <point x="67" y="439" type="curve" smooth="yes"/>
      <point x="62" y="419"/>
      <point x="32" y="280"/>
      <point x="29" y="261" type="curve" smooth="yes"/>
      <point x="-2" y="77"/>
      <point x="105" y="-10"/>
    </contour>
  </outline>
</glyph>
<glyph name="Dzhe-cy" format="2">
  <advance width="771"/>
  <unicode hex="040F"/>
  <outline>
    <contour>
      <point x="195" y="-140" type="curve" smooth="yes"/>
      <point x="391" y="-140" type="line" smooth="yes"/>
      <point x="406" y="-140"/>
      <point x="420" y="-128"/>
      <point x="423" y="-113" type="curve" smooth="yes"/>
      <point x="447" y="0" type="line"/>
      <point x="626" y="0" type="line" smooth="yes"/>
      <point x="641" y="0"/>
      <point x="656" y="12"/>
      <point x="659" y="27" type="curve" smooth="yes"/>
      <point x="797" y="673" type="line" smooth="yes"/>
      <point x="800" y="688"/>
      <point x="790" y="700"/>
      <point x="775" y="700" type="curve" smooth="yes"/>
      <point x="579" y="700" type="line" smooth="yes"/>
      <point x="564" y="700"/>
      <point x="550" y="688"/>
      <point x="547" y="673" type="curve" smooth="yes"/>
      <point x="450" y="220" type="line"/>
      <point x="288" y="220" type="line"/>
      <point x="385" y="673" type="line" smooth="yes"/>
      <point x="388" y="688"/>
      <point x="378" y="700"/>
      <point x="363" y="700" type="curve" smooth="yes"/>
      <point x="167" y="700" type="line" smooth="yes"/>
      <point x="152" y="700"/>
      <point x="138" y="689"/>
      <point x="135" y="673" type="curve" smooth="yes"/>
      <point x="-3" y="27" type="line" smooth="yes"/>
      <point x="-6" y="12"/>
      <point x="3" y="0"/>
      <point x="18" y="0" type="curve" smooth="yes"/>
      <point x="197" y="0" type="line"/>
      <point x="173" y="-113" type="line" smooth="yes"/>
      <point x="170" y="-128"/>
      <point x="180" y="-140"/>
    </contour>
  </outline>
</glyph>
<glyph name="Ge-cy" format="2">
  <advance width="599"/>
  <unicode hex="0413"/>
  <anchor x="-19" y="0" name="bottomright"/>
  <anchor x="178" y="350" name="center"/>
  <anchor x="397" y="700" name="top"/>
  <outline>
    <contour>
      <point x="8" y="0" type="curve" smooth="yes"/>
      <point x="204" y="0" type="line" smooth="yes"/>
      <point x="219" y="0"/>
      <point x="233" y="12"/>
      <point x="236" y="27" type="curve" smooth="yes"/>
      <point x="336" y="495" type="line"/>
      <point x="583" y="495" type="line" smooth="yes"/>
      <point x="598" y="495"/>
      <point x="612" y="507"/>
      <point x="616" y="522" type="curve" smooth="yes"/>
      <point x="648" y="673" type="line" smooth="yes"/>
      <point x="651" y="688"/>
      <point x="641" y="700"/>
      <point x="626" y="700" type="curve" smooth="yes"/>
      <point x="156" y="700" type="line" smooth="yes"/>
      <point x="141" y="700"/>
      <point x="127" y="688"/>
      <point x="124" y="673" type="curve" smooth="yes"/>
      <point x="-14" y="27" type="line" smooth="yes"/>
      <point x="-17" y="12"/>
      <point x="-7" y="0"/>
    </contour>
  </outline>
</glyph>
<glyph name="Ka-cy" format="2">
  <advance width="764"/>
  <unicode hex="041A"/>
  <anchor x="380" y="0" name="bottomright"/>
  <anchor x="331" y="350" name="center"/>
  <anchor x="448" y="700" name="top"/>
  <outline>
    <contour>
      <point x="789" y="700" type="curve" smooth="yes"/>
      <point x="568" y="700" type="line" smooth="yes"/>
      <point x="546" y="700"/>
      <point x="532" y="689"/>
      <point x="524" y="678" type="curve" smooth="yes"/>
      <point x="356" y="463" type="line"/>
      <point x="340" y="463" type="line"/>
      <point x="385" y="673" type="line" smooth="yes"/>
      <point x="388" y="688"/>
      <point x="378" y="700"/>
      <point x="363" y="700" type="curve" smooth="yes"/>
      <point x="167" y="700" type="line" smooth="yes"/>
      <point x="152" y="700"/>
      <point x="138" y="688"/>
      <point x="135" y="673" type="curve" smooth="yes"/>
      <point x="-3" y="27" type="line" smooth="yes"/>
      <point x="-6" y="11"/>
      <point x="4" y="0"/>
      <point x="19" y="0" type="curve" smooth="yes"/>
      <point x="215" y="0" type="line" smooth="yes"/>
      <point x="230" y="0"/>
      <point x="244" y="12"/>
      <point x="247" y="27" type="curve" smooth="yes"/>
      <point x="293" y="243" type="line"/>
      <point x="327" y="243" type="line"/>
      <point x="403" y="23" type="line"/>
      <point x="406" y="17"/>
      <point x="413" y="0"/>
      <point x="440" y="0" type="curve" smooth="yes"/>
      <point x="658" y="0" type="line" smooth="yes"/>
      <point x="670" y="0"/>
      <point x="682" y="10"/>
      <point x="684" y="22" type="curve"/>
      <point x="685" y="25"/>
      <point x="685" y="30"/>
      <point x="684" y="33" type="curve"/>
      <point x="557" y="365" type="line"/>
      <point x="801" y="667" type="line"/>
      <point x="804" y="670"/>
      <point x="806" y="674"/>
      <point x="807" y="678" type="curve"/>
      <point x="809" y="690"/>
      <point x="801" y="700"/>
    </contour>
  </outline>
</glyph>
<glyph name="U-cy" format="2">
  <advance width="698"/>
  <unicode hex="0423"/>
  <anchor x="457" y="700" name="top"/>
  <outline>
    <contour>
      <point x="85" y="0" type="curve" smooth="yes"/>
      <point x="150" y="0" type="line" smooth="yes"/>
      <point x="320" y="0"/>
      <point x="383" y="44"/>
      <point x="486" y="204" type="curve" smooth="yes"/>
      <point x="776" y="656" type="line" smooth="yes"/>
      <point x="781" y="663"/>
      <point x="785" y="672"/>
      <point x="787" y="679" type="curve" smooth="yes"/>
      <point x="789" y="690"/>
      <point x="781" y="700"/>
      <point x="768" y="700" type="curve" smooth="yes"/>
      <point x="571" y="700" type="line" smooth="yes"/>
      <point x="555" y="700"/>
      <point x="542" y="692"/>
      <point x="532" y="676" type="curve" smooth="yes"/>
      <point x="266" y="267" type="line" smooth="yes"/>
      <point x="241" y="229"/>
      <point x="215" y="214"/>
      <point x="171" y="214" type="curve" smooth="yes"/>
      <point x="130" y="214" type="line" smooth="yes"/>
      <point x="115" y="214"/>
      <point x="101" y="202"/>
      <point x="97" y="187" type="curve" smooth="yes"/>
      <point x="63" y="27" type="line" smooth="yes"/>
      <point x="60" y="12"/>
      <point x="70" y="0"/>
    </contour>
    <contour>
      <point x="240" y="188" type="line"/>
      <point x="407" y="429" type="line"/>
      <point x="345" y="676" type="line" smooth="yes"/>
      <point x="341" y="691"/>
      <point x="335" y="700"/>
      <point x="318" y="700" type="curve" smooth="yes"/>
      <point x="119" y="700" type="line" smooth="yes"/>
      <point x="101" y="700"/>
      <point x="88" y="690"/>
      <point x="88" y="676" type="curve" smooth="yes"/>
      <point x="88" y="674"/>
      <point x="88" y="671"/>
      <point x="89" y="669" type="curve" smooth="yes"/>
    </contour>
  </outline>
</glyph>
<glyph name="Ef-cy" format="2">
  <advance width="989"/>
  <unicode hex="0424"/>
  <outline>
    <contour>
      <point x="327" y="-32" type="curve" smooth="yes"/>
      <point x="523" y="-32" type="line" smooth="yes"/>
      <point x="538" y="-32"/>
      <point x="552" y="-20"/>
      <point x="556" y="-5" type="curve" smooth="yes"/>
      <point x="568" y="55" type="line"/>
      <point x="768" y="55"/>
      <point x="910" y="148"/>
      <point x="959" y="325" type="curve" smooth="yes"/>
      <point x="968" y="359"/>
      <point x="970" y="369"/>
      <point x="975" y="403" type="curve" smooth="yes"/>
      <point x="1003" y="576"/>
      <point x="897" y="677"/>
      <point x="700" y="677" type="curve"/>
      <point x="710" y="724" type="line" smooth="yes"/>
      <point x="714" y="739"/>
      <point x="704" y="751"/>
      <point x="689" y="751" type="curve" smooth="yes"/>
      <point x="493" y="751" type="line" smooth="yes"/>
      <point x="478" y="751"/>
      <point x="464" y="739"/>
      <point x="460" y="724" type="curve" smooth="yes"/>
      <point x="450" y="677" type="line"/>
      <point x="253" y="677"/>
      <point x="105" y="576"/>
      <point x="59" y="403" type="curve"/>
      <point x="56" y="394"/>
      <point x="44" y="334"/>
      <point x="43" y="325" type="curve"/>
      <point x="16" y="148"/>
      <point x="118" y="55"/>
      <point x="318" y="55" type="curve"/>
      <point x="306" y="-5" type="line" smooth="yes"/>
      <point x="302" y="-20"/>
      <point x="312" y="-32"/>
    </contour>
    <contour>
      <point x="362" y="250" type="line"/>
      <point x="313" y="250"/>
      <point x="294" y="276"/>
      <point x="303" y="331" type="curve" smooth="yes"/>
      <point x="308" y="354"/>
      <point x="313" y="378"/>
      <point x="318" y="401" type="curve" smooth="yes"/>
      <point x="332" y="455"/>
      <point x="363" y="482"/>
      <point x="411" y="482" type="curve"/>
    </contour>
    <contour>
      <point x="608" y="250" type="curve"/>
      <point x="657" y="482" type="line"/>
      <point x="705" y="482"/>
      <point x="724" y="455"/>
      <point x="716" y="401" type="curve"/>
      <point x="715" y="393"/>
      <point x="704" y="340"/>
      <point x="701" y="331" type="curve"/>
      <point x="686" y="276"/>
      <point x="657" y="250"/>
    </contour>
  </outline>
</glyph>
<glyph name="Tse-cy" format="2">
  <advance width="815"/>
  <unicode hex="0426"/>
  <guideline x="-87" y="-110" angle="0"/>
  <outline>
    <contour>
      <point x="473" y="-140" type="curve" smooth="yes"/>
      <point x="669" y="-140" type="line" smooth="yes"/>
      <point x="684" y="-140"/>
      <point x="698" y="-128"/>
      <point x="701" y="-113" type="curve" smooth="yes"/>
      <point x="767" y="193" type="line" smooth="yes"/>
      <point x="770" y="208"/>
      <point x="760" y="220"/>
      <point x="745" y="220" type="curve" smooth="yes"/>
      <point x="700" y="220" type="line"/>
      <point x="797" y="673" type="line" smooth="yes"/>
      <point x="800" y="688"/>
      <point x="790" y="700"/>
      <point x="775" y="700" type="curve" smooth="yes"/>
      <point x="579" y="700" type="line" smooth="yes"/>
      <point x="564" y="700"/>
      <point x="550" y="688"/>
      <point x="547" y="673" type="curve" smooth="yes"/>
      <point x="450" y="220" type="line"/>
      <point x="288" y="220" type="line"/>
      <point x="385" y="673" type="line" smooth="yes"/>
      <point x="388" y="688"/>
      <point x="378" y="700"/>
      <point x="363" y="700" type="curve" smooth="yes"/>
      <point x="167" y="700" type="line" smooth="yes"/>
      <point x="152" y="700"/>
      <point x="138" y="689"/>
      <point x="135" y="673" type="curve" smooth="yes"/>
      <point x="-3" y="27" type="line" smooth="yes"/>
      <point x="-6" y="12"/>
      <point x="3" y="0"/>
      <point x="18" y="0" type="curve" smooth="yes"/>
      <point x="475" y="0" type="line"/>
      <point x="451" y="-113" type="line" smooth="yes"/>
      <point x="448" y="-128"/>
      <point x="458" y="-140"/>
    </contour>
  </outline>
</glyph>
<glyph name="Sha-cy" format="2">
  <advance width="1012"/>
  <unicode hex="0428"/>
  <outline>
    <contour>
      <point x="19" y="0" type="curve" smooth="yes"/>
      <point x="868" y="0" type="line" smooth="yes"/>
      <point x="883" y="0"/>
      <point x="897" y="12"/>
      <point x="900" y="27" type="curve" smooth="yes"/>
      <point x="1038" y="673" type="line" smooth="yes"/>
      <point x="1041" y="688"/>
      <point x="1031" y="700"/>
      <point x="1016" y="700" type="curve" smooth="yes"/>
      <point x="820" y="700" type="line" smooth="yes"/>
      <point x="805" y="700"/>
      <point x="791" y="688"/>
      <point x="788" y="673" type="curve" smooth="yes"/>
      <point x="691" y="220" type="line"/>
      <point x="615" y="220" type="line"/>
      <point x="712" y="673" type="line" smooth="yes"/>
      <point x="715" y="688"/>
      <point x="705" y="700"/>
      <point x="690" y="700" type="curve" smooth="yes"/>
      <point x="494" y="700" type="line" smooth="yes"/>
      <point x="479" y="700"/>
      <point x="465" y="688"/>
      <point x="462" y="673" type="curve" smooth="yes"/>
      <point x="365" y="220" type="line"/>
      <point x="288" y="220" type="line"/>
      <point x="385" y="673" type="line" smooth="yes"/>
      <point x="388" y="688"/>
      <point x="378" y="700"/>
      <point x="363" y="700" type="curve" smooth="yes"/>
      <point x="167" y="700" type="line" smooth="yes"/>
      <point x="152" y="700"/>
      <point x="138" y="689"/>
      <point x="135" y="673" type="curve" smooth="yes"/>
      <point x="-3" y="27" type="line" smooth="yes"/>
      <point x="-6" y="12"/>
      <point x="4" y="0"/>
    </contour>
  </outline>
</glyph>
<glyph name="Shcha-cy" format="2">
  <advance width="1056"/>
  <unicode hex="0429"/>
  <guideline x="-87" y="-110" angle="0"/>
  <outline>
    <contour>
      <point x="714" y="-140" type="curve" smooth="yes"/>
      <point x="910" y="-140" type="line" smooth="yes"/>
      <point x="925" y="-140"/>
      <point x="939" y="-128"/>
      <point x="942" y="-113" type="curve" smooth="yes"/>
      <point x="1008" y="193" type="line" smooth="yes"/>
      <point x="1011" y="208"/>
      <point x="1001" y="220"/>
      <point x="986" y="220" type="curve" smooth="yes"/>
      <point x="941" y="220" type="line"/>
      <point x="1038" y="673" type="line" smooth="yes"/>
      <point x="1041" y="688"/>
      <point x="1031" y="700"/>
      <point x="1016" y="700" type="curve" smooth="yes"/>
      <point x="820" y="700" type="line" smooth="yes"/>
      <point x="805" y="700"/>
      <point x="791" y="688"/>
      <point x="788" y="673" type="curve" smooth="yes"/>
      <point x="691" y="220" type="line"/>
      <point x="615" y="220" type="line"/>
      <point x="712" y="673" type="line" smooth="yes"/>
      <point x="715" y="688"/>
      <point x="705" y="700"/>
      <point x="690" y="700" type="curve" smooth="yes"/>
      <point x="494" y="700" type="line" smooth="yes"/>
      <point x="479" y="700"/>
      <point x="465" y="688"/>
      <point x="462" y="673" type="curve" smooth="yes"/>
      <point x="365" y="220" type="line"/>
      <point x="288" y="220" type="line"/>
      <point x="385" y="673" type="line" smooth="yes"/>
      <point x="388" y="688"/>
      <point x="378" y="700"/>
      <point x="363" y="700" type="curve" smooth="yes"/>
      <point x="167" y="700" type="line" smooth="yes"/>
      <point x="152" y="700"/>
      <point x="138" y="689"/>
      <point x="135" y="673" type="curve" smooth="yes"/>
      <point x="-3" y="27" type="line" smooth="yes"/>
      <point x="-6" y="12"/>
      <point x="3" y="0"/>
      <point x="18" y="0" type="curve" smooth="yes"/>
      <point x="716" y="0" type="line"/>
      <point x="692" y="-113" type="line" smooth="yes"/>
      <point x="689" y="-128"/>
      <point x="699" y="-140"/>
    </contour>
  </outline>
</glyph>
<glyph name="Iu-cy" format="2">
  <advance width="1110"/>
  <unicode hex="042E"/>
  <outline>
    <contour>
      <point x="662" y="-10" type="curve" smooth="yes"/>
      <point x="858" y="-10"/>
      <point x="1008" y="81"/>
      <point x="1054" y="260" type="curve" smooth="yes"/>
      <point x="1067" y="314"/>
      <point x="1081" y="379"/>
      <point x="1091" y="436" type="curve" smooth="yes"/>
      <point x="1121" y="611"/>
      <point x="1012" y="710"/>
      <point x="816" y="710" type="curve" smooth="yes"/>
      <point x="633" y="710"/>
      <point x="488" y="624"/>
      <point x="434" y="471" type="curve" smooth="yes"/>
      <point x="433" y="469"/>
      <point x="432" y="466"/>
      <point x="431" y="463" type="curve"/>
      <point x="329" y="463" type="line"/>
      <point x="374" y="673" type="line"/>
      <point x="377" y="688"/>
      <point x="367" y="700"/>
      <point x="352" y="700" type="curve"/>
      <point x="156" y="700" type="line"/>
      <point x="141" y="700"/>
      <point x="127" y="688"/>
      <point x="124" y="673" type="curve"/>
      <point x="-14" y="27" type="line"/>
      <point x="-17" y="11"/>
      <point x="-7" y="0"/>
      <point x="8" y="0" type="curve"/>
      <point x="204" y="0" type="line"/>
      <point x="219" y="0"/>
      <point x="233" y="12"/>
      <point x="236" y="27" type="curve"/>
      <point x="282" y="243" type="line"/>
      <point x="383" y="243" type="line"/>
      <point x="383" y="241"/>
      <point x="383" y="240"/>
      <point x="383" y="238" type="curve" smooth="yes"/>
      <point x="366" y="73"/>
      <point x="474" y="-10"/>
    </contour>
    <contour>
      <point x="704" y="185" type="curve" smooth="yes"/>
      <point x="660" y="185"/>
      <point x="637" y="210"/>
      <point x="647" y="266" type="curve" smooth="yes"/>
      <point x="657" y="323"/>
      <point x="669" y="379"/>
      <point x="683" y="434" type="curve" smooth="yes"/>
      <point x="697" y="490"/>
      <point x="731" y="515"/>
      <point x="774" y="515" type="curve" smooth="yes"/>
      <point x="817" y="515"/>
      <point x="841" y="490"/>
      <point x="831" y="434" type="curve" smooth="yes"/>
      <point x="821" y="379"/>
      <point x="809" y="323"/>
      <point x="795" y="266" type="curve" smooth="yes"/>
      <point x="781" y="210"/>
      <point x="748" y="185"/>
    </contour>
  </outline>
</glyph>
<glyph name="Ia-cy" format="2">
  <advance width="744"/>
  <unicode hex="042F"/>
  <outline>
    <contour>
      <point x="404" y="0" type="curve" smooth="yes"/>
      <point x="600" y="0" type="line" smooth="yes"/>
      <point x="615" y="0"/>
      <point x="629" y="12"/>
      <point x="632" y="27" type="curve" smooth="yes"/>
      <point x="770" y="673" type="line" smooth="yes"/>
      <point x="773" y="688"/>
      <point x="763" y="700"/>
      <point x="748" y="700" type="curve" smooth="yes"/>
      <point x="452" y="700" type="line" smooth="yes"/>
      <point x="260" y="700"/>
      <point x="127" y="609"/>
      <point x="95" y="457" type="curve" smooth="yes"/>
      <point x="64" y="314"/>
      <point x="161" y="218"/>
      <point x="314" y="218" type="curve" smooth="yes"/>
      <point x="423" y="218" type="line"/>
      <point x="382" y="27" type="line" smooth="yes"/>
      <point x="379" y="12"/>
      <point x="389" y="0"/>
    </contour>
    <contour>
      <point x="2" y="0" type="curve" smooth="yes"/>
      <point x="207" y="0" type="line" smooth="yes"/>
      <point x="231" y="0"/>
      <point x="248" y="14"/>
      <point x="255" y="27" type="curve"/>
      <point x="392" y="233" type="line"/>
      <point x="172" y="275" type="line"/>
      <point x="-10" y="33" type="line" smooth="yes"/>
      <point x="-13" y="29"/>
      <point x="-15" y="25"/>
      <point x="-16" y="22" type="curve" smooth="yes"/>
      <point x="-18" y="10"/>
      <point x="-10" y="0"/>
    </contour>
    <contour>
      <point x="390" y="408" type="line" smooth="yes"/>
      <point x="361" y="408"/>
      <point x="349" y="430"/>
      <point x="355" y="459" type="curve" smooth="yes"/>
      <point x="361" y="488"/>
      <point x="382" y="514"/>
      <point x="413" y="514" type="curve" smooth="yes"/>
      <point x="486" y="514" type="line"/>
      <point x="463" y="408" type="line"/>
    </contour>
  </outline>
</glyph>
<glyph name="be-cy" format="2">
  <advance width="663"/>
  <unicode hex="0431"/>
  <guideline x="18" y="320" angle="0"/>
  <guideline x="1" y="236" angle="0"/>
  <outline>
    <contour>
      <point x="269" y="-10" type="curve" smooth="yes"/>
      <point x="453" y="-10"/>
      <point x="564" y="58"/>
      <point x="602" y="189" type="curve" smooth="yes"/>
      <point x="609" y="215"/>
      <point x="616" y="246"/>
      <point x="619" y="272" type="curve" smooth="yes"/>
      <point x="637" y="403"/>
      <point x="571" y="471"/>
      <point x="415" y="471" type="curve" smooth="yes"/>
      <point x="353" y="471"/>
      <point x="293" y="443"/>
      <point x="264" y="414" type="curve"/>
      <point x="282" y="369" type="line"/>
      <point x="318" y="539"/>
      <point x="340" y="555"/>
      <point x="612" y="596" type="curve" smooth="yes"/>
      <point x="627" y="598"/>
      <point x="639" y="612"/>
      <point x="640" y="629" type="curve" smooth="yes"/>
      <point x="644" y="764" type="line"/>
      <point x="645" y="781"/>
      <point x="632" y="790"/>
      <point x="617" y="787" type="curve" smooth="yes"/>
      <point x="258" y="718"/>
      <point x="137" y="666"/>
      <point x="68" y="406" type="curve" smooth="yes"/>
      <point x="58" y="368"/>
      <point x="48" y="322"/>
      <point x="42" y="284" type="curve" smooth="yes"/>
      <point x="7" y="67"/>
      <point x="66" y="-10"/>
    </contour>
    <contour>
      <point x="299" y="132" type="curve" smooth="yes"/>
      <point x="261" y="132"/>
      <point x="260" y="151"/>
      <point x="267" y="193" type="curve" smooth="yes"/>
      <point x="270" y="211"/>
      <point x="279" y="250"/>
      <point x="283" y="268" type="curve" smooth="yes"/>
      <point x="294" y="307"/>
      <point x="304" y="328"/>
      <point x="345" y="328" type="curve" smooth="yes"/>
      <point x="380" y="328"/>
      <point x="380" y="307"/>
      <point x="373" y="268" type="curve" smooth="yes"/>
      <point x="371" y="250"/>
      <point x="362" y="211"/>
      <point x="357" y="193" type="curve" smooth="yes"/>
      <point x="346" y="151"/>
      <point x="337" y="132"/>
    </contour>
  </outline>
</glyph>
<glyph name="ve-cy" format="2">
  <advance width="644"/>
  <unicode hex="0432"/>
  <guideline x="21" y="357" angle="0"/>
  <guideline x="-21" y="162" angle="0"/>
  <guideline x="299"/>
  <outline>
    <contour>
      <point x="17" y="0" type="curve"/>
      <point x="294" y="0" type="line" smooth="yes"/>
      <point x="480" y="0"/>
      <point x="568" y="63"/>
      <point x="589" y="159" type="curve" smooth="yes"/>
      <point x="600" y="212"/>
      <point x="580" y="244"/>
      <point x="545" y="267" type="curve"/>
      <point x="576" y="289"/>
      <point x="603" y="321"/>
      <point x="612" y="364" type="curve" smooth="yes"/>
      <point x="633" y="460"/>
      <point x="570" y="520"/>
      <point x="384" y="520" type="curve" smooth="yes"/>
      <point x="127" y="520" type="line" smooth="yes"/>
      <point x="112" y="520"/>
      <point x="98" y="508"/>
      <point x="95" y="493" type="curve" smooth="yes"/>
      <point x="-5" y="27" type="line" smooth="yes"/>
      <point x="-8" y="12"/>
      <point x="2" y="0"/>
    </contour>
    <contour>
      <point x="243" y="137" type="line"/>
      <point x="254" y="188" type="line"/>
      <point x="344" y="188" type="line" smooth="yes"/>
      <point x="367" y="188"/>
      <point x="378" y="182"/>
      <point x="374" y="162" type="curve" smooth="yes"/>
      <point x="370" y="142"/>
      <point x="356" y="137"/>
      <point x="333" y="137" type="curve" smooth="yes"/>
    </contour>
    <contour>
      <point x="284" y="332" type="line"/>
      <point x="295" y="383" type="line"/>
      <point x="365" y="383" type="line" smooth="yes"/>
      <point x="388" y="383"/>
      <point x="400" y="377"/>
      <point x="396" y="357" type="curve" smooth="yes"/>
      <point x="391" y="337"/>
      <point x="378" y="332"/>
      <point x="354" y="332" type="curve" smooth="yes"/>
    </contour>
  </outline>
</glyph>
<glyph name="ge-cy" format="2">
  <advance width="484"/>
  <unicode hex="0433"/>
  <anchor x="-10" y="0" name="bottomright"/>
  <anchor x="156" y="240" name="center"/>
  <anchor x="309" y="520" name="top"/>
  <outline>
    <contour>
      <point x="17" y="0" type="curve" smooth="yes"/>
      <point x="196" y="0" type="line" smooth="yes"/>
      <point x="211" y="0"/>
      <point x="225" y="12"/>
      <point x="228" y="27" type="curve" smooth="yes"/>
      <point x="296" y="345" type="line"/>
      <point x="455" y="345" type="line" smooth="yes"/>
      <point x="470" y="345"/>
      <point x="485" y="357"/>
      <point x="488" y="372" type="curve" smooth="yes"/>
      <point x="514" y="493" type="line" smooth="yes"/>
      <point x="517" y="508"/>
      <point x="507" y="520"/>
      <point x="492" y="520" type="curve" smooth="yes"/>
      <point x="127" y="520" type="line" smooth="yes"/>
      <point x="112" y="520"/>
      <point x="98" y="508"/>
      <point x="95" y="493" type="curve" smooth="yes"/>
      <point x="-5" y="27" type="line" smooth="yes"/>
      <point x="-8" y="12"/>
      <point x="2" y="0"/>
    </contour>
  </outline>
</glyph>
<glyph name="ze-cy" format="2">
  <advance width="615"/>
  <unicode hex="0437"/>
  <anchor x="263" y="0" name="bottom"/>
  <anchor x="373" y="520" name="top"/>
  <outline>
    <contour>
      <point x="249" y="-10" type="curve" smooth="yes"/>
      <point x="423" y="-10"/>
      <point x="532" y="59"/>
      <point x="551" y="149" type="curve" smooth="yes"/>
      <point x="561" y="196"/>
      <point x="555" y="252"/>
      <point x="499" y="273" type="curve"/>
      <point x="552" y="295"/>
      <point x="580" y="340"/>
      <point x="589" y="380" type="curve" smooth="yes"/>
      <point x="608" y="471"/>
      <point x="551" y="530"/>
      <point x="363" y="530" type="curve" smooth="yes"/>
      <point x="161" y="530"/>
      <point x="90" y="427"/>
      <point x="68" y="368" type="curve" smooth="yes"/>
      <point x="64" y="359"/>
      <point x="71" y="351"/>
      <point x="80" y="351" type="curve" smooth="yes"/>
      <point x="249" y="351" type="line" smooth="yes"/>
      <point x="266" y="351"/>
      <point x="272" y="358"/>
      <point x="280" y="363" type="curve" smooth="yes"/>
      <point x="293" y="372"/>
      <point x="303" y="376"/>
      <point x="329" y="376" type="curve" smooth="yes"/>
      <point x="354" y="376"/>
      <point x="363" y="366"/>
      <point x="359" y="350" type="curve" smooth="yes"/>
      <point x="356" y="334"/>
      <point x="347" y="324"/>
      <point x="317" y="324" type="curve" smooth="yes"/>
      <point x="260" y="324" type="line" smooth="yes"/>
      <point x="248" y="324"/>
      <point x="236" y="313"/>
      <point x="234" y="302" type="curve" smooth="yes"/>
      <point x="216" y="219" type="line" smooth="yes"/>
      <point x="214" y="208"/>
      <point x="221" y="197"/>
      <point x="233" y="197" type="curve" smooth="yes"/>
      <point x="290" y="197" type="line" smooth="yes"/>
      <point x="324" y="197"/>
      <point x="328" y="185"/>
      <point x="325" y="171" type="curve" smooth="yes"/>
      <point x="321" y="152"/>
      <point x="309" y="142"/>
      <point x="279" y="142" type="curve" smooth="yes"/>
      <point x="252" y="142"/>
      <point x="244" y="148"/>
      <point x="237" y="154" type="curve" smooth="yes"/>
      <point x="232" y="159"/>
      <point x="229" y="166"/>
      <point x="212" y="166" type="curve" smooth="yes"/>
      <point x="37" y="166" type="line" smooth="yes"/>
      <point x="29" y="166"/>
      <point x="16" y="158"/>
      <point x="17" y="149" type="curve" smooth="yes"/>
      <point x="15" y="90"/>
      <point x="40" y="-10"/>
    </contour>
  </outline>
</glyph>
<glyph name="em-cy" format="2">
  <advance width="760"/>
  <unicode hex="043C"/>
  <outline>
    <contour>
      <point x="10" y="0" type="curve" smooth="yes"/>
      <point x="198" y="0" type="line" smooth="yes"/>
      <point x="209" y="0"/>
      <point x="220" y="9"/>
      <point x="222" y="20" type="curve" smooth="yes"/>
      <point x="278" y="284" type="line"/>
      <point x="226" y="288" type="line"/>
      <point x="296" y="92" type="line" smooth="yes"/>
      <point x="301" y="79"/>
      <point x="309" y="73"/>
      <point x="320" y="73" type="curve" smooth="yes"/>
      <point x="362" y="73" type="line" smooth="yes"/>
      <point x="375" y="73"/>
      <point x="384" y="80"/>
      <point x="393" y="92" type="curve" smooth="yes"/>
      <point x="540" y="287" type="line"/>
      <point x="484" y="284" type="line"/>
      <point x="428" y="20" type="line" smooth="yes"/>
      <point x="426" y="9"/>
      <point x="432" y="0"/>
      <point x="444" y="0" type="curve" smooth="yes"/>
      <point x="632" y="0" type="line" smooth="yes"/>
      <point x="644" y="0"/>
      <point x="655" y="9"/>
      <point x="657" y="20" type="curve" smooth="yes"/>
      <point x="759" y="500" type="line" smooth="yes"/>
      <point x="761" y="511"/>
      <point x="754" y="520"/>
      <point x="742" y="520" type="curve" smooth="yes"/>
      <point x="568" y="520" type="line" smooth="yes"/>
      <point x="555" y="520"/>
      <point x="542" y="513"/>
      <point x="532" y="500" type="curve" smooth="yes"/>
      <point x="328" y="235" type="line"/>
      <point x="426" y="217" type="line"/>
      <point x="309" y="500" type="line" smooth="yes"/>
      <point x="304" y="513"/>
      <point x="294" y="520"/>
      <point x="281" y="520" type="curve" smooth="yes"/>
      <point x="120" y="520" type="line" smooth="yes"/>
      <point x="109" y="520"/>
      <point x="98" y="511"/>
      <point x="96" y="500" type="curve" smooth="yes"/>
      <point x="-6" y="20" type="line" smooth="yes"/>
      <point x="-8" y="9"/>
      <point x="-1" y="0"/>
    </contour>
  </outline>
</glyph>
<glyph name="en-cy" format="2">
  <advance width="663"/>
  <unicode hex="043D"/>
  <anchor x="323" y="0" name="bottomright"/>
  <outline>
    <contour>
      <point x="17" y="0" type="curve" smooth="yes"/>
      <point x="196" y="0" type="line" smooth="yes"/>
      <point x="211" y="0"/>
      <point x="225" y="12"/>
      <point x="228" y="27" type="curve" smooth="yes"/>
      <point x="260" y="175" type="line"/>
      <point x="360" y="175" type="line"/>
      <point x="328" y="27" type="line" smooth="yes"/>
      <point x="325" y="12"/>
      <point x="335" y="0"/>
      <point x="350" y="0" type="curve" smooth="yes"/>
      <point x="529" y="0" type="line" smooth="yes"/>
      <point x="544" y="0"/>
      <point x="558" y="12"/>
      <point x="561" y="27" type="curve" smooth="yes"/>
      <point x="661" y="493" type="line" smooth="yes"/>
      <point x="664" y="508"/>
      <point x="654" y="520"/>
      <point x="639" y="520" type="curve" smooth="yes"/>
      <point x="460" y="520" type="line" smooth="yes"/>
      <point x="445" y="520"/>
      <point x="431" y="508"/>
      <point x="428" y="493" type="curve" smooth="yes"/>
      <point x="397" y="350" type="line"/>
      <point x="297" y="350" type="line"/>
      <point x="328" y="493" type="line" smooth="yes"/>
      <point x="331" y="508"/>
      <point x="321" y="520"/>
      <point x="306" y="520" type="curve" smooth="yes"/>
      <point x="127" y="520" type="line" smooth="yes"/>
      <point x="112" y="520"/>
      <point x="98" y="508"/>
      <point x="95" y="493" type="curve" smooth="yes"/>
      <point x="-5" y="27" type="line" smooth="yes"/>
      <point x="-8" y="12"/>
      <point x="2" y="0"/>
    </contour>
  </outline>
</glyph>
<glyph name="pe-cy" format="2">
  <advance width="663"/>
  <unicode hex="043F"/>
  <anchor x="323" y="0" name="bottomright"/>
  <outline>
    <contour>
      <point x="17" y="0" type="curve" smooth="yes"/>
      <point x="196" y="0" type="line" smooth="yes"/>
      <point x="211" y="0"/>
      <point x="225" y="12"/>
      <point x="228" y="27" type="curve" smooth="yes"/>
      <point x="296" y="345" type="line"/>
      <point x="396" y="345" type="line"/>
      <point x="328" y="27" type="line" smooth="yes"/>
      <point x="325" y="12"/>
      <point x="335" y="0"/>
      <point x="350" y="0" type="curve" smooth="yes"/>
      <point x="529" y="0" type="line" smooth="yes"/>
      <point x="544" y="0"/>
      <point x="558" y="12"/>
      <point x="561" y="27" type="curve" smooth="yes"/>
      <point x="661" y="493" type="line" smooth="yes"/>
      <point x="664" y="508"/>
      <point x="654" y="520"/>
      <point x="639" y="520" type="curve" smooth="yes"/>
      <point x="127" y="520" type="line" smooth="yes"/>
      <point x="112" y="520"/>
      <point x="98" y="508"/>
      <point x="95" y="493" type="curve" smooth="yes"/>
      <point x="-5" y="27" type="line" smooth="yes"/>
      <point x="-8" y="12"/>
      <point x="2" y="0"/>
    </contour>
  </outline>
</glyph>
<glyph name="er-cy" format="2">
  <advance width="661"/>
  <unicode hex="0440"/>
  <outline>
    <contour>
      <point x="-5" y="-190" type="curve" smooth="yes"/>
      <point x="180" y="-190" type="line" smooth="yes"/>
      <point x="195" y="-190"/>
      <point x="210" y="-178"/>
      <point x="213" y="-163" type="curve" smooth="yes"/>
      <point x="258" y="50" type="line"/>
      <point x="279" y="7"/>
      <point x="323" y="-10"/>
      <point x="379" y="-10" type="curve" smooth="yes"/>
      <point x="495" y="-10"/>
      <point x="600" y="63"/>
      <point x="640" y="220" type="curve" smooth="yes"/>
      <point x="647" y="250"/>
      <point x="651" y="269"/>
      <point x="656" y="299" type="curve" smooth="yes"/>
      <point x="685" y="466"/>
      <point x="610" y="530"/>
      <point x="494" y="530" type="curve" smooth="yes"/>
      <point x="425" y="530"/>
      <point x="370" y="502"/>
      <point x="331" y="463" type="curve"/>
      <point x="338" y="493" type="line" smooth="yes"/>
      <point x="341" y="508"/>
      <point x="331" y="520"/>
      <point x="316" y="520" type="curve" smooth="yes"/>
      <point x="146" y="520" type="line" smooth="yes"/>
      <point x="131" y="520"/>
      <point x="117" y="508"/>
      <point x="114" y="493" type="curve" smooth="yes"/>
      <point x="-26" y="-163" type="line" smooth="yes"/>
      <point x="-29" y="-178"/>
      <point x="-20" y="-190"/>
    </contour>
    <contour>
      <point x="334" y="169" type="curve" smooth="yes"/>
      <point x="300" y="169"/>
      <point x="290" y="187"/>
      <point x="294" y="219" type="curve" smooth="yes"/>
      <point x="299" y="249"/>
      <point x="302" y="263"/>
      <point x="310" y="293" type="curve" smooth="yes"/>
      <point x="320" y="329"/>
      <point x="335" y="351"/>
      <point x="372" y="351" type="curve" smooth="yes"/>
      <point x="409" y="351"/>
      <point x="414" y="329"/>
      <point x="410" y="293" type="curve" smooth="yes"/>
      <point x="408" y="273"/>
      <point x="402" y="247"/>
      <point x="396" y="227" type="curve" smooth="yes"/>
      <point x="384" y="191"/>
      <point x="371" y="169"/>
    </contour>
  </outline>
</glyph>
<glyph name="ef-cy" format="2">
  <advance width="863"/>
  <unicode hex="0444"/>
  <guideline x="1349"/>
  <outline>
    <contour>
      <point x="238" y="-190" type="curve" smooth="yes"/>
      <point x="417" y="-190" type="line" smooth="yes"/>
      <point x="432" y="-190"/>
      <point x="447" y="-178"/>
      <point x="450" y="-163" type="curve" smooth="yes"/>
      <point x="485" y="0" type="line"/>
      <point x="666" y="0"/>
      <point x="775" y="73"/>
      <point x="814" y="213" type="curve" smooth="yes"/>
      <point x="823" y="244"/>
      <point x="829" y="276"/>
      <point x="834" y="307" type="curve" smooth="yes"/>
      <point x="853" y="447"/>
      <point x="763" y="520"/>
      <point x="595" y="520" type="curve"/>
      <point x="630" y="683" type="line" smooth="yes"/>
      <point x="633" y="698"/>
      <point x="624" y="710"/>
      <point x="609" y="710" type="curve" smooth="yes"/>
      <point x="430" y="710" type="line" smooth="yes"/>
      <point x="415" y="710"/>
      <point x="400" y="698"/>
      <point x="397" y="683" type="curve" smooth="yes"/>
      <point x="362" y="520" type="line"/>
      <point x="192" y="520"/>
      <point x="72" y="447"/>
      <point x="33" y="307" type="curve" smooth="yes"/>
      <point x="24" y="276"/>
      <point x="18" y="244"/>
      <point x="13" y="213" type="curve" smooth="yes"/>
      <point x="-6" y="73"/>
      <point x="73" y="0"/>
      <point x="252" y="0" type="curve"/>
      <point x="217" y="-163" type="line" smooth="yes"/>
      <point x="214" y="-178"/>
      <point x="223" y="-190"/>
    </contour>
    <contour>
      <point x="288" y="160" type="line"/>
      <point x="241" y="160"/>
      <point x="231" y="174"/>
      <point x="237" y="228" type="curve" smooth="yes"/>
      <point x="239" y="243"/>
      <point x="246" y="275"/>
      <point x="251" y="292" type="curve" smooth="yes"/>
      <point x="263" y="340"/>
      <point x="280" y="360"/>
      <point x="330" y="360" type="curve"/>
    </contour>
    <contour>
      <point x="517" y="160" type="curve"/>
      <point x="559" y="360" type="line"/>
      <point x="606" y="360"/>
      <point x="619" y="343"/>
      <point x="610" y="292" type="curve" smooth="yes"/>
      <point x="607" y="275"/>
      <point x="600" y="243"/>
      <point x="596" y="228" type="curve" smooth="yes"/>
      <point x="581" y="177"/>
      <point x="567" y="160"/>
    </contour>
  </outline>
</glyph>
<glyph name="yeru-cy" format="2">
  <advance width="921"/>
  <unicode hex="044B"/>
  <anchor x="516" y="520" name="top"/>
  <outline>
    <contour>
      <point x="17" y="0" type="curve" smooth="yes"/>
      <point x="304" y="0" type="line" smooth="yes"/>
      <point x="437" y="0"/>
      <point x="542" y="68"/>
      <point x="567" y="184" type="curve" smooth="yes"/>
      <point x="592" y="300"/>
      <point x="515" y="369"/>
      <point x="382" y="369" type="curve" smooth="yes"/>
      <point x="302" y="369" type="line"/>
      <point x="329" y="493" type="line" smooth="yes"/>
      <point x="332" y="508"/>
      <point x="322" y="520"/>
      <point x="307" y="520" type="curve" smooth="yes"/>
      <point x="127" y="520" type="line" smooth="yes"/>
      <point x="112" y="520"/>
      <point x="98" y="508"/>
      <point x="95" y="493" type="curve" smooth="yes"/>
      <point x="-5" y="27" type="line" smooth="yes"/>
      <point x="-8" y="12"/>
      <point x="2" y="0"/>
    </contour>
    <contour>
      <point x="250" y="149" type="line"/>
      <point x="265" y="220" type="line"/>
      <point x="330" y="220" type="line" smooth="yes"/>
      <point x="357" y="220"/>
      <point x="368" y="207"/>
      <point x="363" y="184" type="curve" smooth="yes"/>
      <point x="358" y="161"/>
      <point x="342" y="149"/>
      <point x="315" y="149" type="curve" smooth="yes"/>
    </contour>
    <contour>
      <point x="608" y="0" type="curve" smooth="yes"/>
      <point x="787" y="0" type="line"/>
      <point x="802" y="0"/>
      <point x="816" y="12"/>
      <point x="819" y="27" type="curve" smooth="yes"/>
      <point x="919" y="493" type="line" smooth="yes"/>
      <point x="922" y="508"/>
      <point x="912" y="520"/>
      <point x="897" y="520" type="curve" smooth="yes"/>
      <point x="718" y="520" type="line" smooth="yes"/>
      <point x="703" y="520"/>
      <point x="689" y="508"/>
      <point x="686" y="493" type="curve" smooth="yes"/>
      <point x="586" y="27" type="line" smooth="yes"/>
      <point x="583" y="12"/>
      <point x="593" y="0"/>
    </contour>
  </outline>
</glyph>
<glyph name="softsign-cy" format="2">
  <advance width="608"/>
  <unicode hex="044C"/>
  <outline>
    <contour>
      <point x="17" y="0" type="curve" smooth="yes"/>
      <point x="304" y="0" type="line" smooth="yes"/>
      <point x="437" y="0"/>
      <point x="542" y="68"/>
      <point x="567" y="184" type="curve" smooth="yes"/>
      <point x="592" y="300"/>
      <point x="515" y="369"/>
      <point x="382" y="369" type="curve" smooth="yes"/>
      <point x="302" y="369" type="line"/>
      <point x="329" y="493" type="line" smooth="yes"/>
      <point x="332" y="508"/>
      <point x="322" y="520"/>
      <point x="307" y="520" type="curve" smooth="yes"/>
      <point x="127" y="520" type="line" smooth="yes"/>
      <point x="112" y="520"/>
      <point x="98" y="508"/>
      <point x="95" y="493" type="curve" smooth="yes"/>
      <point x="-5" y="27" type="line" smooth="yes"/>
      <point x="-8" y="12"/>
      <point x="2" y="0"/>
    </contour>
    <contour>
      <point x="250" y="149" type="line"/>
      <point x="265" y="220" type="line"/>
      <point x="330" y="220" type="line" smooth="yes"/>
      <point x="357" y="220"/>
      <point x="368" y="207"/>
      <point x="363" y="184" type="curve" smooth="yes"/>
      <point x="358" y="161"/>
      <point x="342" y="149"/>
      <point x="315" y="149" type="curve" smooth="yes"/>
    </contour>
  </outline>
</glyph>
<glyph name="ereversed-cy" format="2">
  <advance width="632"/>
  <unicode hex="044D"/>
  <guideline x="367" y="407" angle="90"/>
  <outline>
    <contour>
      <point x="246" y="-10" type="curve" smooth="yes"/>
      <point x="430" y="-10"/>
      <point x="542" y="66"/>
      <point x="583" y="213" type="curve" smooth="yes"/>
      <point x="591" y="243"/>
      <point x="599" y="277"/>
      <point x="603" y="307" type="curve" smooth="yes"/>
      <point x="624" y="454"/>
      <point x="533" y="530"/>
      <point x="360" y="530" type="curve" smooth="yes"/>
      <point x="158" y="530"/>
      <point x="87" y="427"/>
      <point x="65" y="368" type="curve"/>
      <point x="61" y="359"/>
      <point x="68" y="351"/>
      <point x="77" y="351" type="curve" smooth="yes"/>
      <point x="246" y="351" type="line" smooth="yes"/>
      <point x="263" y="351"/>
      <point x="269" y="358"/>
      <point x="277" y="363" type="curve"/>
      <point x="290" y="372"/>
      <point x="302" y="376"/>
      <point x="328" y="376" type="curve" smooth="yes"/>
      <point x="361" y="376"/>
      <point x="367" y="353"/>
      <point x="362" y="329" type="curve" smooth="yes"/>
      <point x="361" y="324" type="line"/>
      <point x="257" y="324" type="line" smooth="yes"/>
      <point x="245" y="324"/>
      <point x="233" y="313"/>
      <point x="231" y="302" type="curve" smooth="yes"/>
      <point x="213" y="219" type="line" smooth="yes"/>
      <point x="211" y="208"/>
      <point x="218" y="197"/>
      <point x="230" y="197" type="curve" smooth="yes"/>
      <point x="334" y="197" type="line"/>
      <point x="333" y="192" type="line" smooth="yes"/>
      <point x="325" y="158"/>
      <point x="311" y="142"/>
      <point x="278" y="142" type="curve" smooth="yes"/>
      <point x="251" y="142"/>
      <point x="241" y="148"/>
      <point x="234" y="154" type="curve" smooth="yes"/>
      <point x="229" y="159"/>
      <point x="226" y="166"/>
      <point x="209" y="166" type="curve" smooth="yes"/>
      <point x="34" y="166" type="line" smooth="yes"/>
      <point x="26" y="166"/>
      <point x="13" y="158"/>
      <point x="14" y="149" type="curve"/>
      <point x="12" y="90"/>
      <point x="37" y="-10"/>
    </contour>
  </outline>
</glyph>
<glyph name="e-cy" format="2">
  <advance width="632"/>
  <unicode hex="0454"/>
  <outline>
    <contour>
      <point x="272" y="-10" type="curve" smooth="yes"/>
      <point x="456" y="-10"/>
      <point x="538" y="66"/>
      <point x="570" y="149" type="curve"/>
      <point x="573" y="158"/>
      <point x="567" y="166"/>
      <point x="558" y="166" type="curve" smooth="yes"/>
      <point x="383" y="166" type="line" smooth="yes"/>
      <point x="374" y="166"/>
      <point x="367" y="164"/>
      <point x="362" y="161" type="curve" smooth="yes"/>
      <point x="341" y="147"/>
      <point x="335" y="142"/>
      <point x="304" y="142" type="curve" smooth="yes"/>
      <point x="272" y="142"/>
      <point x="263" y="156"/>
      <point x="270" y="191" type="curve" smooth="yes"/>
      <point x="272" y="197" type="line"/>
      <point x="376" y="197" type="line" smooth="yes"/>
      <point x="388" y="197"/>
      <point x="399" y="207"/>
      <point x="401" y="219" type="curve" smooth="yes"/>
      <point x="419" y="302" type="line" smooth="yes"/>
      <point x="421" y="314"/>
      <point x="415" y="324"/>
      <point x="403" y="324" type="curve" smooth="yes"/>
      <point x="299" y="324" type="line"/>
      <point x="299" y="328" type="line" smooth="yes"/>
      <point x="306" y="359"/>
      <point x="326" y="376"/>
      <point x="354" y="376" type="curve" smooth="yes"/>
      <point x="380" y="376"/>
      <point x="389" y="371"/>
      <point x="405" y="356" type="curve" smooth="yes"/>
      <point x="409" y="353"/>
      <point x="415" y="351"/>
      <point x="424" y="351" type="curve" smooth="yes"/>
      <point x="593" y="351" type="line" smooth="yes"/>
      <point x="603" y="351"/>
      <point x="613" y="357"/>
      <point x="613" y="368" type="curve" smooth="yes"/>
      <point x="616" y="451"/>
      <point x="565" y="530"/>
      <point x="386" y="530" type="curve" smooth="yes"/>
      <point x="211" y="530"/>
      <point x="89" y="452"/>
      <point x="49" y="307" type="curve" smooth="yes"/>
      <point x="46" y="296"/>
      <point x="30" y="224"/>
      <point x="29" y="213" type="curve" smooth="yes"/>
      <point x="7" y="64"/>
      <point x="89" y="-10"/>
    </contour>
  </outline>
</glyph>
<glyph name="lje-cy" format="2">
  <advance width="948"/>
  <unicode hex="0459"/>
  <guideline x="350"/>
  <outline>
    <contour>
      <point x="357" y="0" type="curve" smooth="yes"/>
      <point x="644" y="0" type="line" smooth="yes"/>
      <point x="777" y="0"/>
      <point x="882" y="68"/>
      <point x="907" y="184" type="curve" smooth="yes"/>
      <point x="932" y="300"/>
      <point x="855" y="369"/>
      <point x="722" y="369" type="curve" smooth="yes"/>
      <point x="642" y="369" type="line"/>
      <point x="669" y="493" type="line" smooth="yes"/>
      <point x="672" y="508"/>
      <point x="662" y="520"/>
      <point x="647" y="520" type="curve" smooth="yes"/>
      <point x="189" y="520" type="line" smooth="yes"/>
      <point x="174" y="520"/>
      <point x="160" y="508"/>
      <point x="157" y="493" type="curve" smooth="yes"/>
      <point x="124" y="341" type="line" smooth="yes"/>
      <point x="101" y="232"/>
      <point x="91" y="194"/>
      <point x="41" y="185" type="curve" smooth="yes"/>
      <point x="24" y="182"/>
      <point x="12" y="173"/>
      <point x="8" y="158" type="curve" smooth="yes"/>
      <point x="-20" y="27" type="line" smooth="yes"/>
      <point x="-23" y="12"/>
      <point x="-13" y="0"/>
      <point x="2" y="0" type="curve" smooth="yes"/>
      <point x="232" y="0"/>
      <point x="285" y="64"/>
      <point x="339" y="316" type="curve" smooth="yes"/>
      <point x="345" y="345" type="line"/>
      <point x="403" y="345" type="line"/>
      <point x="335" y="27" type="line" smooth="yes"/>
      <point x="332" y="12"/>
      <point x="342" y="0"/>
    </contour>
    <contour>
      <point x="590" y="149" type="line"/>
      <point x="605" y="220" type="line"/>
      <point x="670" y="220" type="line" smooth="yes"/>
      <point x="697" y="220"/>
      <point x="708" y="207"/>
      <point x="703" y="184" type="curve" smooth="yes"/>
      <point x="698" y="161"/>
      <point x="682" y="149"/>
      <point x="655" y="149" type="curve" smooth="yes"/>
    </contour>
  </outline>
</glyph>
<glyph name="nje-cy" format="2">
  <advance width="940"/>
  <unicode hex="045A"/>
  <outline>
    <contour>
      <point x="17" y="0" type="curve" smooth="yes"/>
      <point x="196" y="0" type="line" smooth="yes"/>
      <point x="211" y="0"/>
      <point x="225" y="12"/>
      <point x="228" y="27" type="curve" smooth="yes"/>
      <point x="260" y="175" type="line"/>
      <point x="360" y="175" type="line"/>
      <point x="328" y="27" type="line" smooth="yes"/>
      <point x="325" y="12"/>
      <point x="335" y="0"/>
      <point x="350" y="0" type="curve" smooth="yes"/>
      <point x="636" y="0" type="line" smooth="yes"/>
      <point x="769" y="0"/>
      <point x="874" y="68"/>
      <point x="899" y="184" type="curve" smooth="yes"/>
      <point x="924" y="300"/>
      <point x="847" y="369"/>
      <point x="714" y="369" type="curve" smooth="yes"/>
      <point x="634" y="369" type="line"/>
      <point x="661" y="493" type="line" smooth="yes"/>
      <point x="664" y="508"/>
      <point x="654" y="520"/>
      <point x="639" y="520" type="curve" smooth="yes"/>
      <point x="460" y="520" type="line" smooth="yes"/>
      <point x="445" y="520"/>
      <point x="431" y="508"/>
      <point x="428" y="493" type="curve" smooth="yes"/>
      <point x="397" y="350" type="line"/>
      <point x="297" y="350" type="line"/>
      <point x="328" y="493" type="line" smooth="yes"/>
      <point x="331" y="508"/>
      <point x="321" y="520"/>
      <point x="306" y="520" type="curve" smooth="yes"/>
      <point x="127" y="520" type="line" smooth="yes"/>
      <point x="112" y="520"/>
      <point x="98" y="508"/>
      <point x="95" y="493" type="curve" smooth="yes"/>
      <point x="-5" y="27" type="line" smooth="yes"/>
      <point x="-8" y="12"/>
      <point x="2" y="0"/>
    </contour>
    <contour>
      <point x="582" y="149" type="line"/>
      <point x="597" y="220" type="line"/>
      <point x="662" y="220" type="line" smooth="yes"/>
      <point x="689" y="220"/>
      <point x="700" y="207"/>
      <point x="695" y="184" type="curve" smooth="yes"/>
      <point x="690" y="161"/>
      <point x="674" y="149"/>
      <point x="647" y="149" type="curve" smooth="yes"/>
    </contour>
  </outline>
</glyph>
<glyph name="yusbig-cy" format="2">
  <advance width="953"/>
  <unicode hex="046B"/>
  <guideline x="490" y="320" angle="90"/>
  <guideline x="203" y="270" angle="0"/>
  <guideline x="767" y="376" angle="53.8759"/>
  <guideline x="236" y="376" angle="126.1241"/>
  <outline>
    <contour>
      <point x="-16" y="0" type="curve" smooth="yes"/>
      <point x="194" y="0" type="line" smooth="yes"/>
      <point x="214" y="0"/>
      <point x="221" y="6"/>
      <point x="228" y="17" type="curve" smooth="yes"/>
      <point x="316" y="163" type="line"/>
      <point x="322" y="171"/>
      <point x="333" y="175"/>
      <point x="342" y="175" type="curve"/>
      <point x="344" y="175" type="line"/>
      <point x="312" y="27" type="line" smooth="yes"/>
      <point x="309" y="12"/>
      <point x="319" y="0"/>
      <point x="334" y="0" type="curve" smooth="yes"/>
      <point x="509" y="0" type="line" smooth="yes"/>
      <point x="524" y="0"/>
      <point x="538" y="12"/>
      <point x="541" y="27" type="curve" smooth="yes"/>
      <point x="573" y="175" type="line"/>
      <point x="575" y="175" type="line"/>
      <point x="582" y="175"/>
      <point x="593" y="173"/>
      <point x="595" y="163" type="curve" smooth="yes"/>
      <point x="621" y="17" type="line" smooth="yes"/>
      <point x="623" y="7"/>
      <point x="631" y="0"/>
      <point x="649" y="0" type="curve" smooth="yes"/>
      <point x="859" y="0" type="line" smooth="yes"/>
      <point x="875" y="0"/>
      <point x="888" y="13"/>
      <point x="888" y="29" type="curve" smooth="yes"/>
      <point x="888" y="32"/>
      <point x="888" y="34"/>
      <point x="887" y="37" type="curve" smooth="yes"/>
      <point x="855" y="175" type="line" smooth="yes"/>
      <point x="837" y="254"/>
      <point x="774" y="270"/>
      <point x="714" y="270" type="curve" smooth="yes"/>
      <point x="667" y="270" type="line"/>
      <point x="866" y="481" type="line" smooth="yes"/>
      <point x="872" y="487"/>
      <point x="874" y="494"/>
      <point x="874" y="500" type="curve" smooth="yes"/>
      <point x="874" y="511"/>
      <point x="867" y="520"/>
      <point x="855" y="520" type="curve" smooth="yes"/>
      <point x="208" y="520" type="line" smooth="yes"/>
      <point x="194" y="520"/>
      <point x="179" y="509"/>
      <point x="179" y="492" type="curve" smooth="yes"/>
      <point x="179" y="489"/>
      <point x="180" y="485"/>
      <point x="181" y="481" type="curve" smooth="yes"/>
      <point x="290" y="270" type="line"/>
      <point x="233" y="270" type="line" smooth="yes"/>
      <point x="183" y="270"/>
      <point x="114" y="258"/>
      <point x="56" y="168" type="curve" smooth="yes"/>
      <point x="-28" y="37" type="line" smooth="yes"/>
      <point x="-30" y="34"/>
      <point x="-34" y="30"/>
      <point x="-35" y="24" type="curve" smooth="yes"/>
      <point x="-37" y="11"/>
      <point x="-29" y="0"/>
    </contour>
    <contour>
      <point x="514" y="165" type="line"/>
      <point x="367" y="501" type="line"/>
      <point x="310" y="398" type="line"/>
      <point x="701" y="398" type="line"/>
      <point x="662" y="484" type="line"/>
      <point x="406" y="182" type="line"/>
    </contour>
  </outline>
</glyph>
<glyph name="Fita-cy" format="2">
  <advance width="742"/>
  <unicode hex="0472"/>
  <outline>
    <contour>
      <point x="279" y="289" type="line"/>
      <point x="461" y="289" type="line"/>
      <point x="487" y="411" type="line"/>
      <point x="305" y="411" type="line"/>
    </contour>
    <contour>
      <point x="306" y="-10" type="curve" smooth="yes"/>
      <point x="502" y="-10"/>
      <point x="652" y="81"/>
      <point x="698" y="260" type="curve" smooth="yes"/>
      <point x="711" y="314"/>
      <point x="725" y="379"/>
      <point x="735" y="436" type="curve" smooth="yes"/>
      <point x="765" y="611"/>
      <point x="656" y="710"/>
      <point x="460" y="710" type="curve" smooth="yes"/>
      <point x="264" y="710"/>
      <point x="111" y="611"/>
      <point x="67" y="436" type="curve" smooth="yes"/>
      <point x="53" y="379"/>
      <point x="39" y="314"/>
      <point x="30" y="260" type="curve" smooth="yes"/>
      <point x="0" y="81"/>
      <point x="110" y="-10"/>
    </contour>
    <contour>
      <point x="348" y="185" type="curve" smooth="yes"/>
      <point x="304" y="185"/>
      <point x="281" y="210"/>
      <point x="291" y="266" type="curve" smooth="yes"/>
      <point x="301" y="323"/>
      <point x="313" y="379"/>
      <point x="327" y="434" type="curve" smooth="yes"/>
      <point x="341" y="490"/>
      <point x="375" y="515"/>
      <point x="418" y="515" type="curve" smooth="yes"/>
      <point x="461" y="515"/>
      <point x="485" y="490"/>
      <point x="475" y="434" type="curve" smooth="yes"/>
      <point x="465" y="379"/>
      <point x="453" y="323"/>
      <point x="439" y="266" type="curve" smooth="yes"/>
      <point x="425" y="210"/>
      <point x="392" y="185"/>
    </contour>
  </outline>
</glyph>
<glyph name="fita-cy" format="2">
  <advance width="642"/>
  <unicode hex="0473"/>
  <outline>
    <contour>
      <point x="104" y="219" type="curve" smooth="yes"/>
      <point x="519" y="219" type="line" smooth="yes"/>
      <point x="534" y="219"/>
      <point x="549" y="231"/>
      <point x="552" y="246" type="curve" smooth="yes"/>
      <point x="558" y="274" type="line" smooth="yes"/>
      <point x="561" y="289"/>
      <point x="552" y="301"/>
      <point x="537" y="301" type="curve" smooth="yes"/>
      <point x="122" y="301" type="line" smooth="yes"/>
      <point x="107" y="301"/>
      <point x="92" y="289"/>
      <point x="89" y="274" type="curve" smooth="yes"/>
      <point x="83" y="246" type="line" smooth="yes"/>
      <point x="80" y="231"/>
      <point x="89" y="219"/>
    </contour>
    <contour>
      <point x="264" y="-10" type="curve" smooth="yes"/>
      <point x="448" y="-10"/>
      <point x="560" y="66"/>
      <point x="601" y="213" type="curve" smooth="yes"/>
      <point x="609" y="243"/>
      <point x="617" y="277"/>
      <point x="621" y="307" type="curve" smooth="yes"/>
      <point x="642" y="454"/>
      <point x="551" y="530"/>
      <point x="378" y="530" type="curve" smooth="yes"/>
      <point x="205" y="530"/>
      <point x="82" y="454"/>
      <point x="41" y="307" type="curve" smooth="yes"/>
      <point x="33" y="277"/>
      <point x="25" y="243"/>
      <point x="21" y="213" type="curve" smooth="yes"/>
      <point x="0" y="66"/>
      <point x="80" y="-10"/>
    </contour>
    <contour>
      <point x="293" y="130" type="curve" smooth="yes"/>
      <point x="255" y="130"/>
      <point x="256" y="151"/>
      <point x="263" y="198" type="curve" smooth="yes"/>
      <point x="266" y="218"/>
      <point x="284" y="302"/>
      <point x="289" y="322" type="curve" smooth="yes"/>
      <point x="302" y="366"/>
      <point x="311" y="390"/>
      <point x="349" y="390" type="curve" smooth="yes"/>
      <point x="387" y="390"/>
      <point x="386" y="366"/>
      <point x="379" y="322" type="curve" smooth="yes"/>
      <point x="376" y="302"/>
      <point x="358" y="218"/>
      <point x="353" y="198" type="curve" smooth="yes"/>
      <point x="340" y="151"/>
      <point x="331" y="130"/>
    </contour>
  </outline>
</glyph>
<glyph name="ghestroke-cy" format="2">
  <advance width="499"/>
  <unicode hex="0493"/>
  <outline>
    <contour>
      <point x="32" y="0" type="curve" smooth="yes"/>
      <point x="211" y="0" type="line" smooth="yes"/>
      <point x="226" y="0"/>
      <point x="240" y="12"/>
      <point x="243" y="27" type="curve" smooth="yes"/>
      <point x="311" y="345" type="line"/>
      <point x="470" y="345" type="line" smooth="yes"/>
      <point x="485" y="345"/>
      <point x="500" y="357"/>
      <point x="503" y="372" type="curve" smooth="yes"/>
      <point x="529" y="493" type="line" smooth="yes"/>
      <point x="532" y="508"/>
      <point x="522" y="520"/>
      <point x="507" y="520" type="curve" smooth="yes"/>
      <point x="142" y="520" type="line" smooth="yes"/>
      <point x="127" y="520"/>
      <point x="113" y="508"/>
      <point x="110" y="493" type="curve" smooth="yes"/>
      <point x="10" y="27" type="line" smooth="yes"/>
      <point x="7" y="12"/>
      <point x="17" y="0"/>
    </contour>
    <contour>
      <point x="10" y="179" type="curve" smooth="yes"/>
      <point x="345" y="179" type="line" smooth="yes"/>
      <point x="360" y="179"/>
      <point x="374" y="191"/>
      <point x="378" y="206" type="curve" smooth="yes"/>
      <point x="392" y="274" type="line" smooth="yes"/>
      <point x="395" y="289"/>
      <point x="386" y="301"/>
      <point x="371" y="301" type="curve" smooth="yes"/>
      <point x="36" y="301" type="line" smooth="yes"/>
      <point x="21" y="301"/>
      <point x="6" y="289"/>
      <point x="3" y="274" type="curve" smooth="yes"/>
      <point x="-11" y="206" type="line" smooth="yes"/>
      <point x="-15" y="191"/>
      <point x="-5" y="179"/>
    </contour>
  </outline>
</glyph>
<glyph name="ghemiddlehook-cy" format="2">
  <advance width="635"/>
  <unicode hex="0495"/>
  <outline>
    <contour>
      <point x="17" y="0" type="curve" smooth="yes"/>
      <point x="176" y="0" type="line" smooth="yes"/>
      <point x="191" y="0"/>
      <point x="205" y="12"/>
      <point x="209" y="27" type="curve" smooth="yes"/>
      <point x="276" y="345" type="line"/>
      <point x="455" y="345" type="line" smooth="yes"/>
      <point x="470" y="345"/>
      <point x="485" y="357"/>
      <point x="488" y="372" type="curve" smooth="yes"/>
      <point x="514" y="493" type="line" smooth="yes"/>
      <point x="517" y="508"/>
      <point x="507" y="520"/>
      <point x="492" y="520" type="curve" smooth="yes"/>
      <point x="127" y="520" type="line" smooth="yes"/>
      <point x="112" y="520"/>
      <point x="98" y="508"/>
      <point x="95" y="493" type="curve" smooth="yes"/>
      <point x="-4" y="27" type="line" smooth="yes"/>
      <point x="-8" y="12"/>
      <point x="2" y="0"/>
    </contour>
    <contour>
      <point x="257" y="256" type="curve"/>
      <point x="220" y="80" type="line"/>
      <point x="224" y="101"/>
      <point x="253" y="111"/>
      <point x="289" y="111" type="curve" smooth="yes"/>
      <point x="331" y="111"/>
      <point x="344" y="92"/>
      <point x="337" y="56" type="curve" smooth="yes"/>
      <point x="332" y="35" type="line" smooth="yes"/>
      <point x="325" y="2"/>
      <point x="308" y="-15"/>
      <point x="279" y="-15" type="curve" smooth="yes"/>
      <point x="258" y="-15" type="line" smooth="yes"/>
      <point x="243" y="-15"/>
      <point x="228" y="-27"/>
      <point x="225" y="-42" type="curve" smooth="yes"/>
      <point x="199" y="-163" type="line" smooth="yes"/>
      <point x="196" y="-178"/>
      <point x="206" y="-190"/>
      <point x="221" y="-190" type="curve" smooth="yes"/>
      <point x="252" y="-190" type="line" smooth="yes"/>
      <point x="405" y="-190"/>
      <point x="531" y="-114"/>
      <point x="561" y="29" type="curve" smooth="yes"/>
      <point x="568" y="63" type="line" smooth="yes"/>
      <point x="597" y="196"/>
      <point x="543" y="290"/>
      <point x="418" y="290" type="curve" smooth="yes"/>
      <point x="356" y="290"/>
      <point x="310" y="282"/>
    </contour>
  </outline>
</glyph>
<glyph name="Ustraitstroke-cy" format="2">
  <advance width="705"/>
  <unicode hex="04B0"/>
  <outline>
    <contour>
      <point x="101" y="167" type="curve" smooth="yes"/>
      <point x="544" y="167" type="line" smooth="yes"/>
      <point x="559" y="167"/>
      <point x="574" y="179"/>
      <point x="577" y="194" type="curve" smooth="yes"/>
      <point x="592" y="265" type="line" smooth="yes"/>
      <point x="595" y="280"/>
      <point x="586" y="292"/>
      <point x="571" y="292" type="curve" smooth="yes"/>
      <point x="128" y="292" type="line" smooth="yes"/>
      <point x="113" y="292"/>
      <point x="98" y="280"/>
      <point x="95" y="265" type="curve" smooth="yes"/>
      <point x="80" y="194" type="line" smooth="yes"/>
      <point x="77" y="179"/>
      <point x="86" y="167"/>
    </contour>
    <component base="Ustrait-cy"/>
  </outline>
</glyph>
<glyph name="Chedescender-cy" format="2">
  <advance width="787"/>
  <unicode hex="04B6"/>
  <outline>
    <contour>
      <point x="402" y="0" type="curve" smooth="yes"/>
      <point x="598" y="0" type="line" smooth="yes"/>
      <point x="613" y="0"/>
      <point x="628" y="12"/>
      <point x="631" y="27" type="curve" smooth="yes"/>
      <point x="769" y="673" type="line" smooth="yes"/>
      <point x="772" y="688"/>
      <point x="762" y="700"/>
      <point x="747" y="700" type="curve" smooth="yes"/>
      <point x="551" y="700" type="line" smooth="yes"/>
      <point x="536" y="700"/>
      <point x="522" y="688"/>
      <point x="519" y="673" type="curve" smooth="yes"/>
      <point x="467" y="430" type="line" smooth="yes"/>
      <point x="464" y="416"/>
      <point x="423" y="404"/>
      <point x="393" y="404" type="curve" smooth="yes"/>
      <point x="346" y="404"/>
      <point x="331" y="424"/>
      <point x="341" y="471" type="curve" smooth="yes"/>
      <point x="384" y="673" type="line" smooth="yes"/>
      <point x="387" y="688"/>
      <point x="377" y="700"/>
      <point x="362" y="700" type="curve" smooth="yes"/>
      <point x="166" y="700" type="line" smooth="yes"/>
      <point x="151" y="700"/>
      <point x="137" y="688"/>
      <point x="134" y="673" type="curve" smooth="yes"/>
      <point x="88" y="461" type="line" smooth="yes"/>
      <point x="46" y="265"/>
      <point x="115" y="176"/>
      <point x="291" y="176" type="curve" smooth="yes"/>
      <point x="340" y="176"/>
      <point x="383" y="186"/>
      <point x="419" y="206" type="curve"/>
      <point x="381" y="27" type="line" smooth="yes"/>
      <point x="378" y="12"/>
      <point x="387" y="0"/>
    </contour>
    <contour>
      <point x="445" y="-140" type="curve" smooth="yes"/>
      <point x="641" y="-140" type="line" smooth="yes"/>
      <point x="656" y="-140"/>
      <point x="670" y="-128"/>
      <point x="673" y="-113" type="curve" smooth="yes"/>
      <point x="739" y="193" type="line" smooth="yes"/>
      <point x="742" y="208"/>
      <point x="732" y="220"/>
      <point x="717" y="220" type="curve" smooth="yes"/>
      <point x="422" y="220" type="line"/>
      <point x="425" y="0" type="line"/>
      <point x="447" y="0" type="line"/>
      <point x="423" y="-113" type="line" smooth="yes"/>
      <point x="420" y="-128"/>
      <point x="430" y="-140"/>
    </contour>
  </outline>
</glyph>
<glyph name="Chekhakassian-cy" format="2">
  <advance width="743"/>
  <unicode hex="04CB"/>
  <outline>
    <contour>
      <point x="497" y="-140" type="line" smooth="yes"/>
      <point x="512" y="-140"/>
      <point x="526" y="-128"/>
      <point x="529" y="-113" type="curve" smooth="yes"/>
      <point x="553" y="0" type="line"/>
      <point x="575" y="0" type="line"/>
      <point x="651" y="120" type="line"/>
      <point x="356" y="120" type="line" smooth="yes"/>
      <point x="341" y="120"/>
      <point x="326" y="108"/>
      <point x="323" y="93" type="curve" smooth="yes"/>
      <point x="279" y="-113" type="line" smooth="yes"/>
      <point x="276" y="-128"/>
      <point x="286" y="-140"/>
      <point x="301" y="-140" type="curve" smooth="yes"/>
    </contour>
    <contour>
      <point x="402" y="0" type="curve" smooth="yes"/>
      <point x="598" y="0" type="line" smooth="yes"/>
      <point x="613" y="0"/>
      <point x="628" y="12"/>
      <point x="631" y="27" type="curve" smooth="yes"/>
      <point x="769" y="673" type="line" smooth="yes"/>
      <point x="772" y="688"/>
      <point x="762" y="700"/>
      <point x="747" y="700" type="curve" smooth="yes"/>
      <point x="551" y="700" type="line" smooth="yes"/>
      <point x="536" y="700"/>
      <point x="522" y="688"/>
      <point x="519" y="673" type="curve" smooth="yes"/>
      <point x="467" y="430" type="line" smooth="yes"/>
      <point x="464" y="416"/>
      <point x="423" y="404"/>
      <point x="393" y="404" type="curve" smooth="yes"/>
      <point x="346" y="404"/>
      <point x="331" y="424"/>
      <point x="341" y="471" type="curve" smooth="yes"/>
      <point x="384" y="673" type="line" smooth="yes"/>
      <point x="387" y="688"/>
      <point x="377" y="700"/>
      <point x="362" y="700" type="curve" smooth="yes"/>
      <point x="166" y="700" type="line" smooth="yes"/>
      <point x="151" y="700"/>
      <point x="137" y="688"/>
      <point x="134" y="673" type="curve" smooth="yes"/>
      <point x="88" y="461" type="line" smooth="yes"/>
      <point x="46" y="265"/>
      <point x="115" y="176"/>
      <point x="291" y="176" type="curve" smooth="yes"/>
      <point x="340" y="176"/>
      <point x="383" y="186"/>
      <point x="419" y="206" type="curve"/>
      <point x="381" y="27" type="line" smooth="yes"/>
      <point x="378" y="12"/>
      <point x="387" y="0"/>
    </contour>
  </outline>
</glyph>
<glyph name="chekhakassian-cy" format="2">
  <advance width="652"/>
  <unicode hex="04CC"/>
  <outline>
    <contour>
      <point x="440" y="-110" type="line" smooth="yes"/>
      <point x="455" y="-110"/>
      <point x="470" y="-98"/>
      <point x="473" y="-83" type="curve" smooth="yes"/>
      <point x="490" y="0" type="line"/>
      <point x="514" y="0" type="line"/>
      <point x="579" y="105" type="line"/>
      <point x="307" y="105" type="line" smooth="yes"/>
      <point x="292" y="105"/>
      <point x="277" y="93"/>
      <point x="274" y="78" type="curve" smooth="yes"/>
      <point x="240" y="-83" type="line" smooth="yes"/>
      <point x="237" y="-98"/>
      <point x="246" y="-110"/>
      <point x="261" y="-110" type="curve" smooth="yes"/>
    </contour>
    <contour>
      <point x="334" y="0" type="curve" smooth="yes"/>
      <point x="529" y="0" type="line" smooth="yes"/>
      <point x="544" y="0"/>
      <point x="559" y="12"/>
      <point x="562" y="27" type="curve" smooth="yes"/>
      <point x="661" y="493" type="line" smooth="yes"/>
      <point x="664" y="508"/>
      <point x="655" y="520"/>
      <point x="640" y="520" type="curve" smooth="yes"/>
      <point x="445" y="520" type="line" smooth="yes"/>
      <point x="430" y="520"/>
      <point x="415" y="508"/>
      <point x="412" y="493" type="curve" smooth="yes"/>
      <point x="381" y="347" type="line" smooth="yes"/>
      <point x="378" y="331"/>
      <point x="356" y="319"/>
      <point x="333" y="319" type="curve" smooth="yes"/>
      <point x="298" y="319"/>
      <point x="291" y="328"/>
      <point x="299" y="364" type="curve" smooth="yes"/>
      <point x="326" y="493" type="line" smooth="yes"/>
      <point x="329" y="508"/>
      <point x="320" y="520"/>
      <point x="305" y="520" type="curve" smooth="yes"/>
      <point x="119" y="520" type="line" smooth="yes"/>
      <point x="104" y="520"/>
      <point x="89" y="508"/>
      <point x="86" y="493" type="curve" smooth="yes"/>
      <point x="57" y="354" type="line" smooth="yes"/>
      <point x="22" y="190"/>
      <point x="79" y="120"/>
      <point x="211" y="120" type="curve" smooth="yes"/>
      <point x="263" y="120"/>
      <point x="308" y="131"/>
      <point x="339" y="148" type="curve"/>
      <point x="313" y="27" type="line" smooth="yes"/>
      <point x="310" y="12"/>
      <point x="319" y="0"/>
    </contour>
  </outline>
</glyph>
<glyph name="Aie-cy" format="2">
  <advance width="1005"/>
  <unicode hex="04D4"/>
  <outline>
    <contour>
      <point x="-36" y="0" type="curve" smooth="yes"/>
      <point x="149" y="0" type="line" smooth="yes"/>
      <point x="175" y="0"/>
      <point x="187" y="14"/>
      <point x="193" y="25" type="curve" smooth="yes"/>
      <point x="206" y="47"/>
      <point x="218" y="69"/>
      <point x="231" y="91" type="curve"/>
      <point x="380" y="91" type="line"/>
      <point x="366" y="27" type="line" smooth="yes"/>
      <point x="363" y="12"/>
      <point x="373" y="0"/>
      <point x="388" y="0" type="curve" smooth="yes"/>
      <point x="879" y="0" type="line" smooth="yes"/>
      <point x="894" y="0"/>
      <point x="908" y="12"/>
      <point x="911" y="27" type="curve" smooth="yes"/>
      <point x="941" y="168" type="line" smooth="yes"/>
      <point x="945" y="183"/>
      <point x="935" y="195"/>
      <point x="920" y="195" type="curve" smooth="yes"/>
      <point x="642" y="195" type="line"/>
      <point x="655" y="258" type="line"/>
      <point x="903" y="258" type="line" smooth="yes"/>
      <point x="918" y="258"/>
      <point x="933" y="270"/>
      <point x="936" y="285" type="curve" smooth="yes"/>
      <point x="964" y="415" type="line" smooth="yes"/>
      <point x="967" y="430"/>
      <point x="958" y="442"/>
      <point x="943" y="442" type="curve" smooth="yes"/>
      <point x="695" y="442" type="line"/>
      <point x="708" y="505" type="line"/>
      <point x="978" y="505" type="line" smooth="yes"/>
      <point x="993" y="505"/>
      <point x="1007" y="517"/>
      <point x="1011" y="532" type="curve" smooth="yes"/>
      <point x="1041" y="673" type="line" smooth="yes"/>
      <point x="1044" y="688"/>
      <point x="1034" y="700"/>
      <point x="1019" y="700" type="curve" smooth="yes"/>
      <point x="359" y="700" type="line" smooth="yes"/>
      <point x="332" y="700"/>
      <point x="315" y="682"/>
      <point x="307" y="667" type="curve"/>
      <point x="188" y="454"/>
      <point x="68" y="242"/>
      <point x="-51" y="29" type="curve" smooth="yes"/>
      <point x="-53" y="26"/>
      <point x="-53" y="24"/>
      <point x="-54" y="22" type="curve" smooth="yes"/>
      <point x="-56" y="10"/>
      <point x="-48" y="0"/>
    </contour>
    <contour>
      <point x="323" y="286" type="line"/>
      <point x="436" y="505" type="line"/>
      <point x="468" y="505" type="line"/>
      <point x="421" y="286" type="line"/>
    </contour>
  </outline>
</glyph>
<glyph name="he-hb" format="2">
  <advance width="668"/>
  <unicode hex="05D4"/>
  <guideline x="300" y="321" angle="0"/>
  <guideline x="350"/>
  <guideline x="633"/>
  <anchor x="285" y="0" name="bottom"/>
  <anchor x="-29" y="0" name="bottomleft"/>
  <anchor x="340" y="260" name="center"/>
  <anchor x="396" y="520" name="top"/>
  <anchor x="82" y="520" name="topleft"/>
  <outline>
    <contour>
      <point x="382" y="0" type="curve" smooth="yes"/>
      <point x="551" y="0" type="line" smooth="yes"/>
      <point x="566" y="0"/>
      <point x="581" y="12"/>
      <point x="584" y="27" type="curve" smooth="yes"/>
      <point x="646" y="317" type="line" smooth="yes"/>
      <point x="685" y="501"/>
      <point x="593" y="571"/>
      <point x="408" y="571" type="curve" smooth="yes"/>
      <point x="147" y="571" type="line" smooth="yes"/>
      <point x="132" y="571"/>
      <point x="117" y="559"/>
      <point x="114" y="544" type="curve" smooth="yes"/>
      <point x="88" y="423" type="line" smooth="yes"/>
      <point x="85" y="408"/>
      <point x="94" y="396"/>
      <point x="109" y="396" type="curve" smooth="yes"/>
      <point x="365" y="396" type="line" smooth="yes"/>
      <point x="414" y="396"/>
      <point x="434" y="371"/>
      <point x="423" y="321" type="curve" smooth="yes"/>
      <point x="361" y="26" type="line" smooth="yes"/>
      <point x="358" y="11"/>
      <point x="367" y="0"/>
    </contour>
    <contour>
      <point x="25" y="0" type="curve" smooth="yes"/>
      <point x="194" y="0" type="line" smooth="yes"/>
      <point x="209" y="0"/>
      <point x="224" y="12"/>
      <point x="227" y="27" type="curve"/>
      <point x="283" y="289" type="line" smooth="yes"/>
      <point x="286" y="304"/>
      <point x="276" y="316"/>
      <point x="261" y="316" type="curve" smooth="yes"/>
      <point x="92" y="316" type="line" smooth="yes"/>
      <point x="77" y="316"/>
      <point x="63" y="304"/>
      <point x="60" y="289" type="curve" smooth="yes"/>
      <point x="4" y="27" type="line" smooth="yes"/>
      <point x="1" y="12"/>
      <point x="10" y="0"/>
    </contour>
  </outline>
</glyph>
<glyph name="finalkaf-hb" format="2">
  <advance width="544"/>
  <unicode hex="05DA"/>
  <anchor x="131" y="231" name="bottom"/>
  <anchor x="-29" y="0" name="bottomleft"/>
  <anchor x="155" y="260" name="center"/>
  <anchor x="332" y="520" name="top"/>
  <anchor x="82" y="520" name="topleft"/>
  <outline>
    <contour>
      <point x="299" y="321" type="curve" smooth="yes"/>
      <point x="210" y="-98" type="line" smooth="yes"/>
      <point x="207" y="-113"/>
      <point x="217" y="-124"/>
      <point x="232" y="-124" type="curve" smooth="yes"/>
      <point x="401" y="-124" type="line" smooth="yes"/>
      <point x="416" y="-124"/>
      <point x="430" y="-112"/>
      <point x="434" y="-97" type="curve" smooth="yes"/>
      <point x="524" y="327" type="line" smooth="yes"/>
      <point x="564" y="516"/>
      <point x="470" y="571"/>
      <point x="285" y="571" type="curve" smooth="yes"/>
      <point x="112" y="571" type="line"/>
      <point x="97" y="571"/>
      <point x="82" y="559"/>
      <point x="79" y="544" type="curve" smooth="yes"/>
      <point x="53" y="423" type="line" smooth="yes"/>
      <point x="50" y="408"/>
      <point x="59" y="396"/>
      <point x="74" y="396" type="curve" smooth="yes"/>
      <point x="241" y="396" type="line" smooth="yes"/>
      <point x="290" y="396"/>
      <point x="310" y="371"/>
    </contour>
  </outline>
</glyph>
<glyph name="kaf-hb" format="2">
  <advance width="537"/>
  <unicode hex="05DB"/>
  <guideline x="320"/>
  <guideline x="494"/>
  <anchor x="200" y="0" name="bottom"/>
  <anchor x="-29" y="0" name="bottomleft"/>
  <anchor x="179" y="260" name="center"/>
  <anchor x="331" y="520" name="top"/>
  <anchor x="82" y="520" name="topleft"/>
  <outline>
    <contour>
      <point x="15" y="0" type="curve" smooth="yes"/>
      <point x="167" y="0" type="line" smooth="yes"/>
      <point x="372" y="0"/>
      <point x="474" y="109"/>
      <point x="515" y="263" type="curve" smooth="yes"/>
      <point x="520" y="283"/>
      <point x="521" y="288"/>
      <point x="525" y="308" type="curve" smooth="yes"/>
      <point x="549" y="462"/>
      <point x="494" y="571"/>
      <point x="289" y="571" type="curve" smooth="yes"/>
      <point x="137" y="571" type="line" smooth="yes"/>
      <point x="122" y="571"/>
      <point x="107" y="559"/>
      <point x="104" y="544" type="curve" smooth="yes"/>
      <point x="76" y="413" type="line" smooth="yes"/>
      <point x="73" y="398"/>
      <point x="82" y="386"/>
      <point x="97" y="386" type="curve" smooth="yes"/>
      <point x="244" y="386" type="line" smooth="yes"/>
      <point x="293" y="386"/>
      <point x="320" y="361"/>
      <point x="312" y="311" type="curve" smooth="yes"/>
      <point x="309" y="291"/>
      <point x="307" y="280"/>
      <point x="301" y="260" type="curve" smooth="yes"/>
      <point x="288" y="210"/>
      <point x="251" y="185"/>
      <point x="202" y="185" type="curve" smooth="yes"/>
      <point x="55" y="185" type="line" smooth="yes"/>
      <point x="40" y="185"/>
      <point x="25" y="173"/>
      <point x="22" y="158" type="curve" smooth="yes"/>
      <point x="-6" y="27" type="line" smooth="yes"/>
      <point x="-9" y="12"/>
      <point x="0" y="0"/>
    </contour>
  </outline>
</glyph>
<glyph name="samekh-hb" format="2">
  <advance width="656"/>
  <unicode hex="05E1"/>
  <guideline x="300" y="321" angle="0"/>
  <guideline x="300" y="246" angle="0"/>
  <guideline x="613"/>
  <guideline x="368" y="571" angle="0"/>
  <anchor x="261" y="0" name="bottom"/>
  <anchor x="-29" y="0" name="bottomleft"/>
  <anchor x="330" y="260" name="center"/>
  <anchor x="372" y="520" name="top"/>
  <anchor x="82" y="520" name="topleft"/>
  <outline>
    <contour>
      <point x="279" y="-10" type="curve" smooth="yes"/>
      <point x="497" y="-10"/>
      <point x="589" y="90"/>
      <point x="629" y="241" type="curve" smooth="yes"/>
      <point x="635" y="261"/>
      <point x="644" y="306"/>
      <point x="648" y="326" type="curve" smooth="yes"/>
      <point x="671" y="472"/>
      <point x="622" y="571"/>
      <point x="407" y="571" type="curve"/>
      <point x="141" y="571" type="line" smooth="yes"/>
      <point x="126" y="571"/>
      <point x="111" y="559"/>
      <point x="108" y="544" type="curve" smooth="yes"/>
      <point x="44" y="242" type="line" smooth="yes"/>
      <point x="11" y="88"/>
      <point x="82" y="-10"/>
    </contour>
    <contour>
      <point x="317" y="175" type="curve" smooth="yes"/>
      <point x="268" y="175"/>
      <point x="235" y="191"/>
      <point x="246" y="246" type="curve" smooth="yes"/>
      <point x="278" y="396" type="line"/>
      <point x="364" y="396" type="line" smooth="yes"/>
      <point x="433" y="396"/>
      <point x="442" y="371"/>
      <point x="434" y="321" type="curve" smooth="yes"/>
      <point x="431" y="301"/>
      <point x="424" y="266"/>
      <point x="418" y="246" type="curve" smooth="yes"/>
      <point x="404" y="191"/>
      <point x="385" y="175"/>
    </contour>
  </outline>
</glyph>
<glyph name="tsadi-hb" format="2">
  <advance width="629"/>
  <unicode hex="05E6"/>
  <anchor x="256" y="0" name="bottom"/>
  <anchor x="-29" y="0" name="bottomleft"/>
  <anchor x="124" y="235" name="center"/>
  <anchor x="367" y="520" name="top"/>
  <anchor x="82" y="520" name="topleft"/>
  <outline>
    <contour>
      <point x="39" y="0" type="curve" smooth="yes"/>
      <point x="475" y="0" type="line" smooth="yes"/>
      <point x="490" y="0"/>
      <point x="505" y="12"/>
      <point x="508" y="27" type="curve" smooth="yes"/>
      <point x="532" y="141" type="line" smooth="yes"/>
      <point x="536" y="159"/>
      <point x="529" y="168"/>
      <point x="525" y="176" type="curve" smooth="yes"/>
      <point x="321" y="552" type="line" smooth="yes"/>
      <point x="318" y="557"/>
      <point x="312" y="571"/>
      <point x="289" y="571" type="curve" smooth="yes"/>
      <point x="112" y="571" type="line" smooth="yes"/>
      <point x="100" y="571"/>
      <point x="88" y="563"/>
      <point x="85" y="551" type="curve" smooth="yes"/>
      <point x="84" y="545"/>
      <point x="86" y="540"/>
      <point x="87" y="537" type="curve" smooth="yes"/>
      <point x="286" y="180" type="line"/>
      <point x="77" y="180" type="line" smooth="yes"/>
      <point x="62" y="180"/>
      <point x="48" y="168"/>
      <point x="45" y="153" type="curve" smooth="yes"/>
      <point x="18" y="27" type="line" smooth="yes"/>
      <point x="15" y="12"/>
      <point x="24" y="0"/>
    </contour>
    <contour>
      <point x="466" y="243" type="line"/>
      <point x="561" y="299"/>
      <point x="621" y="381"/>
      <point x="639" y="463" type="curve" smooth="yes"/>
      <point x="655" y="542" type="line" smooth="yes"/>
      <point x="659" y="557"/>
      <point x="650" y="571"/>
      <point x="635" y="571" type="curve" smooth="yes"/>
      <point x="486" y="571" type="line" smooth="yes"/>
      <point x="471" y="571"/>
      <point x="456" y="559"/>
      <point x="452" y="542" type="curve" smooth="yes"/>
      <point x="445" y="506" type="line" smooth="yes"/>
      <point x="436" y="463"/>
      <point x="421" y="422"/>
      <point x="386" y="390" type="curve"/>
    </contour>
  </outline>
</glyph>
<glyph name="resh-hb" format="2">
  <advance width="562"/>
  <unicode hex="05E8"/>
  <guideline x="318" y="321" angle="0"/>
  <guideline x="532"/>
  <anchor x="354" y="0" name="bottom"/>
  <anchor x="-11" y="0" name="bottomleft"/>
  <anchor x="187" y="260" name="center"/>
  <anchor x="352" y="520" name="top"/>
  <anchor x="100" y="520" name="topleft"/>
  <outline>
    <contour>
      <point x="276" y="0" type="curve" smooth="yes"/>
      <point x="445" y="0" type="line" smooth="yes"/>
      <point x="460" y="0"/>
      <point x="475" y="12"/>
      <point x="478" y="27" type="curve" smooth="yes"/>
      <point x="542" y="327" type="line" smooth="yes"/>
      <point x="582" y="516"/>
      <point x="488" y="571"/>
      <point x="303" y="571" type="curve" smooth="yes"/>
      <point x="130" y="571" type="line"/>
      <point x="115" y="571"/>
      <point x="100" y="559"/>
      <point x="97" y="544" type="curve" smooth="yes"/>
      <point x="71" y="423" type="line" smooth="yes"/>
      <point x="68" y="408"/>
      <point x="77" y="396"/>
      <point x="92" y="396" type="curve" smooth="yes"/>
      <point x="259" y="396" type="line" smooth="yes"/>
      <point x="308" y="396"/>
      <point x="328" y="371"/>
      <point x="317" y="321" type="curve" smooth="yes"/>
      <point x="255" y="26" type="line" smooth="yes"/>
      <point x="252" y="11"/>
      <point x="261" y="0"/>
    </contour>
  </outline>
</glyph>
<glyph name="shin-hb" format="2">
  <advance width="806"/>
  <unicode hex="05E9"/>
  <guideline x="307" y="240" angle="0"/>
  <guideline x="104"/>
  <anchor x="352" y="0" name="bottom"/>
  <anchor x="-22" y="0" name="bottomleft"/>
  <anchor x="516" y="260" name="center"/>
  <anchor x="506" y="520" name="top"/>
  <anchor x="45" y="520" name="topleft"/>
  <anchor x="800" y="520" name="topright"/>
  <outline>
    <contour>
      <point x="385" y="164" type="curve"/>
      <point x="367" y="164" type="line"/>
      <point x="293" y="164"/>
      <point x="250" y="226"/>
      <point x="273" y="335" type="curve"/>
      <point x="318" y="545" type="line" smooth="yes"/>
      <point x="321" y="560"/>
      <point x="312" y="571"/>
      <point x="297" y="571" type="curve" smooth="yes"/>
      <point x="148" y="571" type="line" smooth="yes"/>
      <point x="133" y="571"/>
      <point x="118" y="559"/>
      <point x="115" y="544" type="curve" smooth="yes"/>
      <point x="45" y="217" type="line" smooth="yes"/>
      <point x="21" y="103"/>
      <point x="93" y="-10"/>
      <point x="283" y="-10" type="curve" smooth="yes"/>
      <point x="393" y="-10" type="line" smooth="yes"/>
      <point x="565" y="-10"/>
      <point x="739" y="107"/>
      <point x="778" y="293" type="curve" smooth="yes"/>
      <point x="832" y="544" type="line" smooth="yes"/>
      <point x="835" y="559"/>
      <point x="826" y="571"/>
      <point x="811" y="571" type="curve" smooth="yes"/>
      <point x="662" y="571" type="line" smooth="yes"/>
      <point x="647" y="571"/>
      <point x="632" y="560"/>
      <point x="629" y="545" type="curve" smooth="yes"/>
      <point x="577" y="298" type="line" smooth="yes"/>
      <point x="561" y="223"/>
      <point x="472" y="164"/>
    </contour>
    <contour>
      <point x="229" y="190" type="line"/>
      <point x="393" y="190"/>
      <point x="519" y="279"/>
      <point x="559" y="471" type="curve" smooth="yes"/>
      <point x="574" y="542" type="line" smooth="yes"/>
      <point x="578" y="557"/>
      <point x="569" y="571"/>
      <point x="554" y="571" type="curve" smooth="yes"/>
      <point x="406" y="571" type="line" smooth="yes"/>
      <point x="391" y="571"/>
      <point x="376" y="559"/>
      <point x="372" y="542" type="curve" smooth="yes"/>
      <point x="357" y="471" type="line" smooth="yes"/>
      <point x="337" y="375"/>
      <point x="307" y="333"/>
      <point x="260" y="333" type="curve"/>
    </contour>
  </outline>
</glyph>
<glyph name="tav-hb" format="2">
  <advance width="751"/>
  <unicode hex="05EA"/>
  <guideline x="300" y="175" angle="0"/>
  <guideline x="300" y="321" angle="0"/>
  <guideline x="306"/>
  <anchor x="367" y="0" name="bottom"/>
  <anchor x="-29" y="0" name="bottomleft"/>
  <anchor x="419" y="260" name="center"/>
  <anchor x="438" y="520" name="top"/>
  <anchor x="82" y="520" name="topleft"/>
  <outline>
    <contour>
      <point x="131" y="396" type="curve" smooth="yes"/>
      <point x="448" y="396" type="line" smooth="yes"/>
      <point x="497" y="396"/>
      <point x="517" y="371"/>
      <point x="506" y="321" type="curve" smooth="yes"/>
      <point x="444" y="26" type="line" smooth="yes"/>
      <point x="441" y="11"/>
      <point x="450" y="0"/>
      <point x="465" y="0" type="curve" smooth="yes"/>
      <point x="634" y="0" type="line" smooth="yes"/>
      <point x="649" y="0"/>
      <point x="664" y="12"/>
      <point x="667" y="27" type="curve" smooth="yes"/>
      <point x="731" y="326" type="line" smooth="yes"/>
      <point x="769" y="505"/>
      <point x="677" y="571"/>
      <point x="492" y="571" type="curve" smooth="yes"/>
      <point x="169" y="571" type="line" smooth="yes"/>
      <point x="154" y="571"/>
      <point x="139" y="559"/>
      <point x="136" y="544" type="curve" smooth="yes"/>
      <point x="110" y="423" type="line" smooth="yes"/>
      <point x="107" y="408"/>
      <point x="116" y="396"/>
    </contour>
    <contour>
      <point x="304" y="482" type="line"/>
      <point x="254" y="482"/>
      <point x="232" y="462"/>
      <point x="219" y="441" type="curve" smooth="yes"/>
      <point x="186" y="388"/>
      <point x="168" y="333"/>
      <point x="158" y="284" type="curve"/>
      <point x="132" y="165" type="line"/>
      <point x="48" y="165" type="line" smooth="yes"/>
      <point x="33" y="165"/>
      <point x="19" y="153"/>
      <point x="16" y="138" type="curve" smooth="yes"/>
      <point x="-8" y="27" type="line" smooth="yes"/>
      <point x="-11" y="12"/>
      <point x="-2" y="0"/>
      <point x="13" y="0" type="curve" smooth="yes"/>
      <point x="275" y="0" type="line" smooth="yes"/>
      <point x="290" y="0"/>
      <point x="305" y="12"/>
      <point x="308" y="27" type="curve"/>
      <point x="351" y="284" type="line"/>
      <point x="365" y="350"/>
      <point x="380" y="394"/>
      <point x="413" y="441" type="curve" smooth="yes"/>
      <point x="426" y="459"/>
      <point x="416" y="482"/>
      <point x="365" y="482" type="curve"/>
    </contour>
  </outline>
</glyph>
<glyph name="guilsinglleft" format="2">
  <advance width="342"/>
  <unicode hex="2039"/>
  <outline>
    <contour>
      <point x="228" y="52" type="curve" smooth="yes"/>
      <point x="240" y="52"/>
      <point x="252" y="62"/>
      <point x="255" y="74" type="curve" smooth="yes"/>
      <point x="285" y="215" type="line" smooth="yes"/>
      <point x="290" y="238"/>
      <point x="287" y="247"/>
      <point x="276" y="260" type="curve" smooth="yes"/>
      <point x="222" y="329" type="line"/>
      <point x="306" y="398" type="line" smooth="yes"/>
      <point x="322" y="411"/>
      <point x="328" y="420"/>
      <point x="333" y="443" type="curve" smooth="yes"/>
      <point x="363" y="584" type="line" smooth="yes"/>
      <point x="366" y="596"/>
      <point x="358" y="606"/>
      <point x="346" y="606" type="curve" smooth="yes"/>
      <point x="345" y="606"/>
      <point x="338" y="606"/>
      <point x="331" y="601" type="curve" smooth="yes"/>
      <point x="69" y="390" type="line" smooth="yes"/>
      <point x="60" y="383"/>
      <point x="52" y="374"/>
      <point x="49" y="362" type="curve" smooth="yes"/>
      <point x="35" y="296" type="line" smooth="yes"/>
      <point x="33" y="284"/>
      <point x="37" y="275"/>
      <point x="43" y="268" type="curve" smooth="yes"/>
      <point x="215" y="57" type="line" smooth="yes"/>
      <point x="220" y="52"/>
      <point x="227" y="52"/>
    </contour>
  </outline>
</glyph>
<glyph name="zeroinferior" format="2">
  <advance width="382"/>
  <unicode hex="2080"/>
  <guideline x="350" y="185" angle="0"/>
  <guideline x="350" y="-175" angle="0"/>
  <guideline x="350" y="46" angle="0"/>
  <guideline x="382"/>
  <outline>
    <contour>
      <point x="105" y="-175" type="curve" smooth="yes"/>
      <point x="198" y="-175"/>
      <point x="272" y="-124"/>
      <point x="295" y="-44" type="curve" smooth="yes"/>
      <point x="305" y="-10"/>
      <point x="310" y="16"/>
      <point x="315" y="53" type="curve" smooth="yes"/>
      <point x="328" y="134"/>
      <point x="280" y="185"/>
      <point x="182" y="185" type="curve" smooth="yes"/>
      <point x="84" y="185"/>
      <point x="14" y="134"/>
      <point x="-9" y="53" type="curve" smooth="yes"/>
      <point x="-18" y="16"/>
      <point x="-25" y="-10"/>
      <point x="-29" y="-44" type="curve" smooth="yes"/>
      <point x="-40" y="-124"/>
      <point x="12" y="-175"/>
    </contour>
    <contour>
      <point x="128" y="-67" type="curve" smooth="yes"/>
      <point x="111" y="-67"/>
      <point x="107" y="-54"/>
      <point x="109" y="-37" type="curve" smooth="yes"/>
      <point x="113" y="-10"/>
      <point x="120" y="21"/>
      <point x="127" y="46" type="curve" smooth="yes"/>
      <point x="132" y="63"/>
      <point x="141" y="76"/>
      <point x="158" y="76" type="curve" smooth="yes"/>
      <point x="175" y="76"/>
      <point x="180" y="63"/>
      <point x="177" y="46" type="curve" smooth="yes"/>
      <point x="174" y="21"/>
      <point x="167" y="-10"/>
      <point x="159" y="-37" type="curve" smooth="yes"/>
      <point x="155" y="-54"/>
      <point x="145" y="-67"/>
    </contour>
  </outline>
</glyph>
<glyph name="oneinferior" format="2">
  <advance width="297"/>
  <unicode hex="2081"/>
  <guideline x="350" y="180" angle="0"/>
  <guideline x="350" y="-170" angle="0"/>
  <outline>
    <contour>
      <point x="62" y="-170" type="curve" smooth="yes"/>
      <point x="153" y="-170" type="line" smooth="yes"/>
      <point x="166" y="-170"/>
      <point x="177" y="-161"/>
      <point x="180" y="-148" type="curve" smooth="yes"/>
      <point x="245" y="158" type="line" smooth="yes"/>
      <point x="248" y="171"/>
      <point x="240" y="180"/>
      <point x="227" y="180" type="curve" smooth="yes"/>
      <point x="139" y="180" type="line" smooth="yes"/>
      <point x="129" y="180"/>
      <point x="123" y="178"/>
      <point x="115" y="173" type="curve" smooth="yes"/>
      <point x="-16" y="86" type="line" smooth="yes"/>
      <point x="-27" y="78"/>
      <point x="-32" y="65"/>
      <point x="-26" y="55" type="curve" smooth="yes"/>
      <point x="2" y="5" type="line" smooth="yes"/>
      <point x="8" y="-6"/>
      <point x="22" y="-7"/>
      <point x="32" y="0" type="curve" smooth="yes"/>
      <point x="83" y="34" type="line"/>
      <point x="45" y="-148" type="line" smooth="yes"/>
      <point x="42" y="-161"/>
      <point x="49" y="-170"/>
    </contour>
  </outline>
</glyph>
<glyph name="sixinferior" format="2">
  <advance width="362"/>
  <unicode hex="2086"/>
  <guideline x="350" y="-170" angle="0"/>
  <outline>
    <contour>
      <point x="101" y="-175" type="curve" smooth="yes"/>
      <point x="195" y="-175"/>
      <point x="272" y="-122"/>
      <point x="288" y="-46" type="curve" smooth="yes"/>
      <point x="305" y="34"/>
      <point x="238" y="66"/>
      <point x="194" y="73" type="curve"/>
      <point x="259" y="140" type="line" smooth="yes"/>
      <point x="267" y="148"/>
      <point x="271" y="154"/>
      <point x="272" y="160" type="curve" smooth="yes"/>
      <point x="275" y="171"/>
      <point x="267" y="180"/>
      <point x="256" y="180" type="curve" smooth="yes"/>
      <point x="171" y="180" type="line" smooth="yes"/>
      <point x="160" y="180"/>
      <point x="148" y="173"/>
      <point x="139" y="165" type="curve" smooth="yes"/>
      <point x="34" y="58" type="line" smooth="yes"/>
      <point x="17" y="41"/>
      <point x="-28" y="-6"/>
      <point x="-37" y="-49" type="curve" smooth="yes"/>
      <point x="-55" y="-131"/>
      <point x="7" y="-175"/>
    </contour>
    <contour>
      <point x="122" y="-78" type="curve" smooth="yes"/>
      <point x="105" y="-78"/>
      <point x="93" y="-67"/>
      <point x="97" y="-48" type="curve" smooth="yes"/>
      <point x="101" y="-29"/>
      <point x="117" y="-19"/>
      <point x="134" y="-19" type="curve" smooth="yes"/>
      <point x="152" y="-19"/>
      <point x="164" y="-29"/>
      <point x="160" y="-48" type="curve" smooth="yes"/>
      <point x="156" y="-67"/>
      <point x="139" y="-78"/>
    </contour>
  </outline>
</glyph>
<glyph name="nineinferior" format="2">
  <advance width="362"/>
  <unicode hex="2089"/>
  <guideline x="350" y="-170" angle="0"/>
  <guideline x="350" y="180" angle="0"/>
  <outline>
    <contour>
      <point x="10" y="-171" type="curve" smooth="yes"/>
      <point x="95" y="-171" type="line" smooth="yes"/>
      <point x="106" y="-171"/>
      <point x="118" y="-164"/>
      <point x="127" y="-156" type="curve" smooth="yes"/>
      <point x="233" y="-49" type="line" smooth="yes"/>
      <point x="249" y="-32"/>
      <point x="294" y="15"/>
      <point x="304" y="58" type="curve" smooth="yes"/>
      <point x="321" y="140"/>
      <point x="259" y="184"/>
      <point x="165" y="184" type="curve" smooth="yes"/>
      <point x="71" y="184"/>
      <point x="-6" y="131"/>
      <point x="-22" y="55" type="curve" smooth="yes"/>
      <point x="-39" y="-25"/>
      <point x="28" y="-57"/>
      <point x="73" y="-64" type="curve"/>
      <point x="7" y="-131" type="line" smooth="yes"/>
      <point x="0" y="-139"/>
      <point x="-5" y="-145"/>
      <point x="-6" y="-151" type="curve" smooth="yes"/>
      <point x="-8" y="-162"/>
      <point x="-1" y="-171"/>
    </contour>
    <contour>
      <point x="132" y="27" type="curve" smooth="yes"/>
      <point x="114" y="27"/>
      <point x="102" y="37"/>
      <point x="106" y="56" type="curve" smooth="yes"/>
      <point x="110" y="75"/>
      <point x="127" y="86"/>
      <point x="144" y="86" type="curve" smooth="yes"/>
      <point x="161" y="86"/>
      <point x="173" y="75"/>
      <point x="169" y="56" type="curve" smooth="yes"/>
      <point x="165" y="37"/>
      <point x="149" y="27"/>
    </contour>
  </outline>
</glyph>
<glyph name="sheqel" format="2">
  <advance width="1089"/>
  <unicode hex="20AA"/>
  <outline>
    <contour>
      <point x="272" y="0" type="curve"/>
      <point x="698" y="0" type="line"/>
      <point x="908" y="0"/>
      <point x="992" y="58"/>
      <point x="1033" y="254" type="curve" smooth="yes"/>
      <point x="1095" y="544" type="line" smooth="yes"/>
      <point x="1098" y="559"/>
      <point x="1089" y="571"/>
      <point x="1074" y="571" type="curve" smooth="yes"/>
      <point x="905" y="571" type="line" smooth="yes"/>
      <point x="890" y="571"/>
      <point x="876" y="560"/>
      <point x="872" y="545" type="curve" smooth="yes"/>
      <point x="810" y="250" type="line" smooth="yes"/>
      <point x="799" y="200"/>
      <point x="769" y="175"/>
      <point x="720" y="175" type="curve" smooth="yes"/>
      <point x="505" y="175" type="line"/>
      <point x="538" y="334" type="line" smooth="yes"/>
      <point x="542" y="349"/>
      <point x="532" y="361"/>
      <point x="517" y="361" type="curve" smooth="yes"/>
      <point x="348" y="361" type="line" smooth="yes"/>
      <point x="333" y="361"/>
      <point x="319" y="349"/>
      <point x="315" y="334" type="curve" smooth="yes"/>
      <point x="250" y="27" type="line" smooth="yes"/>
      <point x="247" y="12"/>
      <point x="257" y="0"/>
    </contour>
    <contour>
      <point x="16" y="0" type="curve" smooth="yes"/>
      <point x="185" y="0" type="line" smooth="yes"/>
      <point x="200" y="0"/>
      <point x="214" y="12"/>
      <point x="217" y="27" type="curve" smooth="yes"/>
      <point x="296" y="396" type="line"/>
      <point x="511" y="396" type="line" smooth="yes"/>
      <point x="560" y="396"/>
      <point x="579" y="371"/>
      <point x="569" y="321" type="curve" smooth="yes"/>
      <point x="551" y="236" type="line" smooth="yes"/>
      <point x="547" y="221"/>
      <point x="557" y="210"/>
      <point x="572" y="210" type="curve" smooth="yes"/>
      <point x="741" y="210" type="line" smooth="yes"/>
      <point x="756" y="210"/>
      <point x="771" y="222"/>
      <point x="774" y="237" type="curve" smooth="yes"/>
      <point x="791" y="317" type="line" smooth="yes"/>
      <point x="833" y="513"/>
      <point x="713" y="571"/>
      <point x="543" y="571" type="curve" smooth="yes"/>
      <point x="137" y="571" type="line" smooth="yes"/>
      <point x="122" y="571"/>
      <point x="107" y="559"/>
      <point x="104" y="544" type="curve" smooth="yes"/>
      <point x="-6" y="27" type="line" smooth="yes"/>
      <point x="-9" y="12"/>
      <point x="1" y="0"/>
    </contour>
  </outline>
</glyph>
<glyph name="tenge" format="2">
  <advance width="672"/>
  <unicode hex="20B8"/>
  <outline>
    <contour>
      <point x="173" y="0" type="curve" smooth="yes"/>
      <point x="373" y="0" type="line" smooth="yes"/>
      <point x="388" y="0"/>
      <point x="402" y="12"/>
      <point x="405" y="27" type="curve" smooth="yes"/>
      <point x="475" y="352" type="line"/>
      <point x="641" y="352" type="line" smooth="yes"/>
      <point x="656" y="352"/>
      <point x="670" y="364"/>
      <point x="673" y="379" type="curve" smooth="yes"/>
      <point x="697" y="490" type="line" smooth="yes"/>
      <point x="700" y="505"/>
      <point x="691" y="517"/>
      <point x="676" y="517" type="curve" smooth="yes"/>
      <point x="90" y="517" type="line" smooth="yes"/>
      <point x="75" y="517"/>
      <point x="60" y="505"/>
      <point x="57" y="490" type="curve" smooth="yes"/>
      <point x="33" y="379" type="line" smooth="yes"/>
      <point x="30" y="364"/>
      <point x="40" y="352"/>
      <point x="55" y="352" type="curve" smooth="yes"/>
      <point x="221" y="352" type="line"/>
      <point x="151" y="27" type="line" smooth="yes"/>
      <point x="148" y="12"/>
      <point x="158" y="0"/>
    </contour>
    <contour>
      <point x="102" y="577" type="curve" smooth="yes"/>
      <point x="688" y="577" type="line" smooth="yes"/>
      <point x="703" y="577"/>
      <point x="718" y="589"/>
      <point x="721" y="604" type="curve" smooth="yes"/>
      <point x="736" y="672" type="line" smooth="yes"/>
      <point x="739" y="687"/>
      <point x="729" y="699"/>
      <point x="714" y="699" type="curve" smooth="yes"/>
      <point x="128" y="699" type="line" smooth="yes"/>
      <point x="113" y="699"/>
      <point x="99" y="687"/>
      <point x="96" y="672" type="curve" smooth="yes"/>
      <point x="81" y="604" type="line" smooth="yes"/>
      <point x="78" y="589"/>
      <point x="87" y="577"/>
    </contour>
  </outline>
</glyph>
<glyph name="ruble" format="2">
  <advance width="753"/>
  <unicode hex="20BD"/>
  <outline>
    <contour>
      <point x="67" y="0" type="curve" smooth="yes"/>
      <point x="273" y="0" type="line" smooth="yes"/>
      <point x="288" y="0"/>
      <point x="302" y="12"/>
      <point x="305" y="27" type="curve" smooth="yes"/>
      <point x="318" y="87" type="line"/>
      <point x="401" y="87" type="line" smooth="yes"/>
      <point x="416" y="87"/>
      <point x="431" y="99"/>
      <point x="434" y="114" type="curve" smooth="yes"/>
      <point x="445" y="166" type="line" smooth="yes"/>
      <point x="448" y="181"/>
      <point x="439" y="193"/>
      <point x="424" y="193" type="curve" smooth="yes"/>
      <point x="341" y="193" type="line"/>
      <point x="350" y="238" type="line"/>
      <point x="420" y="238" type="line" smooth="yes"/>
      <point x="601" y="238"/>
      <point x="735" y="303"/>
      <point x="767" y="455" type="curve" smooth="yes"/>
      <point x="803" y="621"/>
      <point x="699" y="700"/>
      <point x="518" y="700" type="curve" smooth="yes"/>
      <point x="215" y="700" type="line" smooth="yes"/>
      <point x="200" y="700"/>
      <point x="186" y="688"/>
      <point x="183" y="673" type="curve" smooth="yes"/>
      <point x="125" y="403" type="line"/>
      <point x="53" y="403" type="line" smooth="yes"/>
      <point x="38" y="403"/>
      <point x="24" y="391"/>
      <point x="21" y="376" type="curve" smooth="yes"/>
      <point x="-3" y="265" type="line" smooth="yes"/>
      <point x="-6" y="250"/>
      <point x="3" y="238"/>
      <point x="18" y="238" type="curve" smooth="yes"/>
      <point x="90" y="238" type="line"/>
      <point x="81" y="193" type="line"/>
      <point x="9" y="193" type="line" smooth="yes"/>
      <point x="-6" y="193"/>
      <point x="-21" y="181"/>
      <point x="-24" y="166" type="curve" smooth="yes"/>
      <point x="-35" y="114" type="line" smooth="yes"/>
      <point x="-38" y="99"/>
      <point x="-29" y="87"/>
      <point x="-14" y="87" type="curve" smooth="yes"/>
      <point x="58" y="87" type="line"/>
      <point x="45" y="27" type="line" smooth="yes"/>
      <point x="42" y="12"/>
      <point x="52" y="0"/>
    </contour>
    <contour>
      <point x="380" y="403" type="line"/>
      <point x="404" y="514" type="line"/>
      <point x="474" y="514" type="line" smooth="yes"/>
      <point x="510" y="514"/>
      <point x="513" y="482"/>
      <point x="508" y="457" type="curve" smooth="yes"/>
      <point x="499" y="418"/>
      <point x="471" y="403"/>
      <point x="450" y="403" type="curve" smooth="yes"/>
    </contour>
  </outline>
</glyph>
<glyph name="estimated" format="2">
  <advance width="682"/>
  <unicode hex="212E"/>
  <outline>
    <contour>
      <point x="295" y="-10" type="curve" smooth="yes"/>
      <point x="499" y="-10"/>
      <point x="603" y="82"/>
      <point x="618" y="153" type="curve" smooth="yes"/>
      <point x="621" y="169"/>
      <point x="613" y="179"/>
      <point x="599" y="179" type="curve" smooth="yes"/>
      <point x="411" y="179" type="line" smooth="yes"/>
      <point x="393" y="179"/>
      <point x="388" y="177"/>
      <point x="372" y="163" type="curve" smooth="yes"/>
      <point x="357" y="149"/>
      <point x="339" y="146"/>
      <point x="326" y="146" type="curve" smooth="yes"/>
      <point x="294" y="146"/>
      <point x="279" y="171"/>
      <point x="287" y="209" type="curve" smooth="yes"/>
      <point x="290" y="223" type="line"/>
      <point x="618" y="223" type="line" smooth="yes"/>
      <point x="634" y="223"/>
      <point x="650" y="238"/>
      <point x="654" y="256" type="curve" smooth="yes"/>
      <point x="666" y="312" type="line" smooth="yes"/>
      <point x="703" y="488"/>
      <point x="632" y="610"/>
      <point x="426" y="610" type="curve" smooth="yes"/>
      <point x="247" y="610"/>
      <point x="110" y="508"/>
      <point x="63" y="333" type="curve" smooth="yes"/>
      <point x="60" y="323"/>
      <point x="52" y="285"/>
      <point x="51" y="275" type="curve" smooth="yes"/>
      <point x="21" y="87"/>
      <point x="104" y="-10"/>
    </contour>
    <contour>
      <point x="323" y="378" type="line"/>
      <point x="323" y="381" type="line" smooth="yes"/>
      <point x="336" y="440"/>
      <point x="365" y="460"/>
      <point x="394" y="460" type="curve" smooth="yes"/>
      <point x="421" y="460"/>
      <point x="446" y="450"/>
      <point x="431" y="381" type="curve" smooth="yes"/>
      <point x="431" y="378" type="line"/>
    </contour>
  </outline>
</glyph>
<glyph name="minus" format="2">
  <advance width="643"/>
  <unicode hex="2212"/>
  <outline>
    <contour>
      <point x="62" y="219" type="curve" smooth="yes"/>
      <point x="546" y="219" type="line" smooth="yes"/>
      <point x="561" y="219"/>
      <point x="576" y="231"/>
      <point x="579" y="246" type="curve" smooth="yes"/>
      <point x="602" y="355" type="line" smooth="yes"/>
      <point x="605" y="370"/>
      <point x="596" y="382"/>
      <point x="581" y="382" type="curve" smooth="yes"/>
      <point x="97" y="382" type="line" smooth="yes"/>
      <point x="82" y="382"/>
      <point x="67" y="370"/>
      <point x="64" y="355" type="curve" smooth="yes"/>
      <point x="41" y="246" type="line" smooth="yes"/>
      <point x="38" y="231"/>
      <point x="47" y="219"/>
    </contour>
  </outline>
</glyph>
<glyph name="radical" format="2">
  <advance width="783"/>
  <unicode hex="221A"/>
  <outline>
    <contour>
      <point x="143" y="0" type="curve" smooth="yes"/>
      <point x="303" y="0" type="line" smooth="yes"/>
      <point x="323" y="0"/>
      <point x="333" y="11"/>
      <point x="341" y="25" type="curve" smooth="yes"/>
      <point x="703" y="700" type="line"/>
      <point x="826" y="700" type="line" smooth="yes"/>
      <point x="841" y="700"/>
      <point x="856" y="712"/>
      <point x="859" y="727" type="curve" smooth="yes"/>
      <point x="882" y="833" type="line" smooth="yes"/>
      <point x="885" y="848"/>
      <point x="875" y="860"/>
      <point x="860" y="860" type="curve" smooth="yes"/>
      <point x="597" y="860" type="line" smooth="yes"/>
      <point x="577" y="860"/>
      <point x="566" y="847"/>
      <point x="559" y="836" type="curve"/>
      <point x="268" y="263" type="line"/>
      <point x="238" y="496" type="line" smooth="yes"/>
      <point x="236" y="507"/>
      <point x="230" y="520"/>
      <point x="210" y="520" type="curve" smooth="yes"/>
      <point x="81" y="520" type="line" smooth="yes"/>
      <point x="62" y="520"/>
      <point x="49" y="505"/>
      <point x="51" y="489" type="curve"/>
      <point x="115" y="25" type="line"/>
      <point x="117" y="11"/>
      <point x="123" y="0"/>
    </contour>
  </outline>
</glyph>
<glyph name="approxequal.case" format="2">
  <advance width="559"/>
  <guideline x="350" y="300" angle="0"/>
  <outline>
    <contour>
      <point x="105" y="366" type="curve"/>
      <point x="114" y="367"/>
      <point x="121" y="371"/>
      <point x="127" y="375" type="curve" smooth="yes"/>
      <point x="139" y="384"/>
      <point x="168" y="401"/>
      <point x="199" y="401" type="curve" smooth="yes"/>
      <point x="292" y="401"/>
      <point x="323" y="359"/>
      <point x="422" y="359" type="curve" smooth="yes"/>
      <point x="490" y="359"/>
      <point x="539" y="395"/>
      <point x="549" y="439" type="curve" smooth="yes"/>
      <point x="571" y="547" type="line" smooth="yes"/>
      <point x="577" y="572"/>
      <point x="576" y="584"/>
      <point x="557" y="584" type="curve"/>
      <point x="548" y="583"/>
      <point x="541" y="579"/>
      <point x="535" y="575" type="curve" smooth="yes"/>
      <point x="524" y="566"/>
      <point x="494" y="549"/>
      <point x="463" y="549" type="curve" smooth="yes"/>
      <point x="370" y="549"/>
      <point x="340" y="591"/>
      <point x="241" y="591" type="curve" smooth="yes"/>
      <point x="173" y="591"/>
      <point x="123" y="555"/>
      <point x="114" y="511" type="curve" smooth="yes"/>
      <point x="91" y="403" type="line" smooth="yes"/>
      <point x="86" y="378"/>
      <point x="86" y="366"/>
    </contour>
    <contour>
      <point x="52" y="116" type="curve"/>
      <point x="61" y="117"/>
      <point x="68" y="121"/>
      <point x="74" y="125" type="curve" smooth="yes"/>
      <point x="86" y="134"/>
      <point x="115" y="151"/>
      <point x="146" y="151" type="curve" smooth="yes"/>
      <point x="239" y="151"/>
      <point x="269" y="109"/>
      <point x="368" y="109" type="curve" smooth="yes"/>
      <point x="436" y="109"/>
      <point x="486" y="145"/>
      <point x="495" y="189" type="curve" smooth="yes"/>
      <point x="518" y="297" type="line" smooth="yes"/>
      <point x="524" y="322"/>
      <point x="523" y="334"/>
      <point x="504" y="334" type="curve"/>
      <point x="495" y="333"/>
      <point x="488" y="329"/>
      <point x="482" y="325" type="curve" smooth="yes"/>
      <point x="470" y="316"/>
      <point x="441" y="299"/>
      <point x="410" y="299" type="curve" smooth="yes"/>
      <point x="317" y="299"/>
      <point x="287" y="341"/>
      <point x="188" y="341" type="curve" smooth="yes"/>
      <point x="120" y="341"/>
      <point x="70" y="305"/>
      <point x="61" y="261" type="curve" smooth="yes"/>
      <point x="38" y="153" type="line" smooth="yes"/>
      <point x="32" y="128"/>
      <point x="33" y="116"/>
    </contour>
  </outline>
</glyph>
<glyph name="at.case" format="2">
  <advance width="856"/>
  <outline>
    <contour>
      <point x="380" y="-72" type="curve" smooth="yes"/>
      <point x="555" y="-72"/>
      <point x="676" y="-7"/>
      <point x="749" y="64" type="curve" smooth="yes"/>
      <point x="754" y="69"/>
      <point x="758" y="73"/>
      <point x="759" y="79" type="curve" smooth="yes"/>
      <point x="764" y="96"/>
      <point x="753" y="107"/>
      <point x="738" y="107" type="curve" smooth="yes"/>
      <point x="640" y="107" type="line" smooth="yes"/>
      <point x="626" y="107"/>
      <point x="618" y="102"/>
      <point x="602" y="92" type="curve" smooth="yes"/>
      <point x="553" y="60"/>
      <point x="515" y="49"/>
      <point x="406" y="49" type="curve" smooth="yes"/>
      <point x="222" y="49"/>
      <point x="159" y="128"/>
      <point x="173" y="259" type="curve" smooth="yes"/>
      <point x="177" y="297"/>
      <point x="196" y="385"/>
      <point x="207" y="420" type="curve" smooth="yes"/>
      <point x="247" y="540"/>
      <point x="336" y="632"/>
      <point x="510" y="632" type="curve" smooth="yes"/>
      <point x="715" y="632"/>
      <point x="765" y="568"/>
      <point x="740" y="420" type="curve" smooth="yes"/>
      <point x="735" y="386"/>
      <point x="727" y="354"/>
      <point x="720" y="318" type="curve" smooth="yes"/>
      <point x="713" y="288"/>
      <point x="696" y="269"/>
      <point x="666" y="269" type="curve" smooth="yes"/>
      <point x="637" y="269"/>
      <point x="626" y="287"/>
      <point x="633" y="319" type="curve" smooth="yes"/>
      <point x="674" y="512" type="line" smooth="yes"/>
      <point x="677" y="527"/>
      <point x="668" y="539"/>
      <point x="653" y="539" type="curve" smooth="yes"/>
      <point x="581" y="539" type="line" smooth="yes"/>
      <point x="566" y="539"/>
      <point x="551" y="527"/>
      <point x="548" y="512" type="curve" smooth="yes"/>
      <point x="546" y="503" type="line"/>
      <point x="530" y="532"/>
      <point x="506" y="547"/>
      <point x="456" y="547" type="curve" smooth="yes"/>
      <point x="357" y="547"/>
      <point x="286" y="464"/>
      <point x="260" y="342" type="curve" smooth="yes"/>
      <point x="234" y="220"/>
      <point x="275" y="138"/>
      <point x="375" y="138" type="curve" smooth="yes"/>
      <point x="469" y="138"/>
      <point x="499" y="170"/>
      <point x="518" y="194" type="curve"/>
      <point x="533" y="172"/>
      <point x="574" y="148"/>
      <point x="641" y="148" type="curve" smooth="yes"/>
      <point x="717" y="148"/>
      <point x="813" y="202"/>
      <point x="841" y="303" type="curve" smooth="yes"/>
      <point x="850" y="339"/>
      <point x="862" y="391"/>
      <point x="867" y="425" type="curve" smooth="yes"/>
      <point x="889" y="601"/>
      <point x="838" y="753"/>
      <point x="535" y="753" type="curve" smooth="yes"/>
      <point x="283" y="753"/>
      <point x="129" y="581"/>
      <point x="83" y="425" type="curve" smooth="yes"/>
      <point x="72" y="390"/>
      <point x="51" y="291"/>
      <point x="46" y="254" type="curve" smooth="yes"/>
      <point x="23" y="75"/>
      <point x="109" y="-72"/>
    </contour>
    <contour>
      <point x="430" y="259" type="curve" smooth="yes"/>
      <point x="394" y="259"/>
      <point x="371" y="277"/>
      <point x="385" y="342" type="curve" smooth="yes"/>
      <point x="399" y="407"/>
      <point x="430" y="426"/>
      <point x="466" y="426" type="curve" smooth="yes"/>
      <point x="505" y="426"/>
      <point x="526" y="407"/>
      <point x="512" y="342" type="curve" smooth="yes"/>
      <point x="498" y="276"/>
      <point x="469" y="259"/>
    </contour>
  </outline>
</glyph>
<glyph name="brevecomb-cy.case" format="2">
  <anchor x="269" y="700" name="_top"/>
  <outline>
    <contour>
      <point x="278" y="741" type="curve" smooth="yes"/>
      <point x="412" y="741"/>
      <point x="489" y="809"/>
      <point x="509" y="901" type="curve" smooth="yes"/>
      <point x="511" y="911"/>
      <point x="506" y="920"/>
      <point x="494" y="920" type="curve" smooth="yes"/>
      <point x="375" y="920" type="line" smooth="yes"/>
      <point x="363" y="920"/>
      <point x="354" y="911"/>
      <point x="352" y="901" type="curve" smooth="yes"/>
      <point x="347" y="876"/>
      <point x="334" y="856"/>
      <point x="302" y="856" type="curve" smooth="yes"/>
      <point x="270" y="856"/>
      <point x="267" y="876"/>
      <point x="272" y="901" type="curve" smooth="yes"/>
      <point x="274" y="911"/>
      <point x="269" y="920"/>
      <point x="257" y="920" type="curve" smooth="yes"/>
      <point x="138" y="920" type="line" smooth="yes"/>
      <point x="125" y="920"/>
      <point x="117" y="911"/>
      <point x="115" y="901" type="curve" smooth="yes"/>
      <point x="95" y="809"/>
      <point x="144" y="741"/>
    </contour>
  </outline>
</glyph>
<glyph name="brevecomb-cy" format="2">
  <anchor x="264" y="520" name="_top"/>
  <outline>
    <contour>
      <point x="278" y="586" type="curve" smooth="yes"/>
      <point x="412" y="586"/>
      <point x="489" y="654"/>
      <point x="509" y="746" type="curve" smooth="yes"/>
      <point x="511" y="756"/>
      <point x="506" y="765"/>
      <point x="494" y="765" type="curve" smooth="yes"/>
      <point x="375" y="765" type="line" smooth="yes"/>
      <point x="363" y="765"/>
      <point x="354" y="756"/>
      <point x="352" y="746" type="curve" smooth="yes"/>
      <point x="347" y="721"/>
      <point x="334" y="701"/>
      <point x="302" y="701" type="curve" smooth="yes"/>
      <point x="270" y="701"/>
      <point x="267" y="721"/>
      <point x="272" y="746" type="curve" smooth="yes"/>
      <point x="274" y="756"/>
      <point x="269" y="765"/>
      <point x="257" y="765" type="curve" smooth="yes"/>
      <point x="138" y="765" type="line" smooth="yes"/>
      <point x="125" y="765"/>
      <point x="117" y="756"/>
      <point x="115" y="746" type="curve" smooth="yes"/>
      <point x="95" y="654"/>
      <point x="144" y="586"/>
    </contour>
  </outline>
</glyph>
<glyph name="dieresiscomb.case" format="2">
  <anchor x="235" y="700" name="_top"/>
  <anchor x="282" y="920" name="top"/>
  <outline>
    <contour>
      <point x="318" y="750" type="curve" smooth="yes"/>
      <point x="442" y="750" type="line" smooth="yes"/>
      <point x="455" y="750"/>
      <point x="467" y="760"/>
      <point x="470" y="773" type="curve" smooth="yes"/>
      <point x="496" y="897" type="line" smooth="yes"/>
      <point x="499" y="910"/>
      <point x="491" y="920"/>
      <point x="478" y="920" type="curve" smooth="yes"/>
      <point x="354" y="920" type="line" smooth="yes"/>
      <point x="341" y="920"/>
      <point x="329" y="910"/>
      <point x="326" y="897" type="curve" smooth="yes"/>
      <point x="300" y="773" type="line" smooth="yes"/>
      <point x="297" y="760"/>
      <point x="305" y="750"/>
    </contour>
    <contour>
      <point x="49" y="750" type="curve" smooth="yes"/>
      <point x="173" y="750" type="line" smooth="yes"/>
      <point x="186" y="750"/>
      <point x="198" y="760"/>
      <point x="201" y="773" type="curve" smooth="yes"/>
      <point x="227" y="897" type="line" smooth="yes"/>
      <point x="230" y="910"/>
      <point x="222" y="920"/>
      <point x="209" y="920" type="curve" smooth="yes"/>
      <point x="85" y="920" type="line" smooth="yes"/>
      <point x="72" y="920"/>
      <point x="60" y="910"/>
      <point x="57" y="897" type="curve" smooth="yes"/>
      <point x="31" y="773" type="line" smooth="yes"/>
      <point x="28" y="760"/>
      <point x="36" y="750"/>
    </contour>
  </outline>
</glyph>
<glyph name="eight.otlf" format="2">
  <advance width="700"/>
  <guideline x="350" y="433" angle="0"/>
  <guideline x="350" y="277" angle="0"/>
  <guideline x="380"/>
  <outline>
    <contour>
      <point x="298" y="-10" type="curve" smooth="yes"/>
      <point x="531" y="-10"/>
      <point x="643" y="103"/>
      <point x="667" y="216" type="curve" smooth="yes"/>
      <point x="681" y="283"/>
      <point x="659" y="343"/>
      <point x="611" y="370" type="curve"/>
      <point x="659" y="402"/>
      <point x="686" y="447"/>
      <point x="698" y="502" type="curve" smooth="yes"/>
      <point x="720" y="608"/>
      <point x="668" y="710"/>
      <point x="451" y="710" type="curve" smooth="yes"/>
      <point x="232" y="710"/>
      <point x="135" y="606"/>
      <point x="112" y="500" type="curve" smooth="yes"/>
      <point x="101" y="445"/>
      <point x="112" y="400"/>
      <point x="147" y="370" type="curve"/>
      <point x="91" y="341"/>
      <point x="42" y="284"/>
      <point x="28" y="218" type="curve" smooth="yes"/>
      <point x="3" y="104"/>
      <point x="64" y="-10"/>
    </contour>
    <contour>
      <point x="334" y="158" type="curve" smooth="yes"/>
      <point x="294" y="158"/>
      <point x="268" y="180"/>
      <point x="276" y="217" type="curve" smooth="yes"/>
      <point x="284" y="254"/>
      <point x="319" y="276"/>
      <point x="359" y="276" type="curve" smooth="yes"/>
      <point x="399" y="276"/>
      <point x="424" y="254"/>
      <point x="416" y="217" type="curve" smooth="yes"/>
      <point x="408" y="180"/>
      <point x="374" y="158"/>
    </contour>
    <contour>
      <point x="392" y="433" type="curve" smooth="yes"/>
      <point x="352" y="433"/>
      <point x="334" y="457"/>
      <point x="341" y="487" type="curve" smooth="yes"/>
      <point x="347" y="517"/>
      <point x="375" y="541"/>
      <point x="415" y="541" type="curve" smooth="yes"/>
      <point x="455" y="541"/>
      <point x="474" y="517"/>
      <point x="468" y="487" type="curve" smooth="yes"/>
      <point x="461" y="457"/>
      <point x="432" y="433"/>
    </contour>
  </outline>
</glyph>
<glyph name="endash.case" format="2">
  <advance width="572"/>
  <outline>
    <contour>
      <point x="68" y="252" type="curve" smooth="yes"/>
      <point x="483" y="252" type="line" smooth="yes"/>
      <point x="498" y="252"/>
      <point x="513" y="264"/>
      <point x="516" y="279" type="curve" smooth="yes"/>
      <point x="546" y="421" type="line"/>
      <point x="550" y="436"/>
      <point x="540" y="448"/>
      <point x="525" y="448" type="curve" smooth="yes"/>
      <point x="110" y="448" type="line" smooth="yes"/>
      <point x="95" y="448"/>
      <point x="81" y="436"/>
      <point x="77" y="421" type="curve"/>
      <point x="47" y="279" type="line" smooth="yes"/>
      <point x="44" y="264"/>
      <point x="53" y="252"/>
    </contour>
  </outline>
</glyph>
<glyph name="gravecomb.case" format="2">
  <anchor x="241" y="700" name="_top"/>
  <anchor x="208" y="920" name="top"/>
  <outline>
    <contour>
      <point x="193" y="750" type="curve" smooth="yes"/>
      <point x="330" y="750" type="line" smooth="yes"/>
      <point x="340" y="750"/>
      <point x="347" y="756"/>
      <point x="349" y="766" type="curve" smooth="yes"/>
      <point x="350" y="771"/>
      <point x="349" y="776"/>
      <point x="347" y="779" type="curve" smooth="yes"/>
      <point x="273" y="901" type="line"/>
      <point x="262" y="918"/>
      <point x="255" y="920"/>
      <point x="240" y="920" type="curve" smooth="yes"/>
      <point x="54" y="920" type="line" smooth="yes"/>
      <point x="42" y="920"/>
      <point x="33" y="912"/>
      <point x="31" y="900" type="curve" smooth="yes"/>
      <point x="30" y="895"/>
      <point x="31" y="891"/>
      <point x="33" y="888" type="curve" smooth="yes"/>
      <point x="155" y="767" type="line" smooth="yes"/>
      <point x="164" y="758"/>
      <point x="172" y="750"/>
    </contour>
  </outline>
</glyph>
<glyph name="guillemetleft.case" format="2">
  <advance width="637"/>
  <outline>
    <contour>
      <point x="527" y="73" type="curve" smooth="yes"/>
      <point x="539" y="73"/>
      <point x="551" y="83"/>
      <point x="553" y="95" type="curve" smooth="yes"/>
      <point x="583" y="236" type="line" smooth="yes"/>
      <point x="588" y="259"/>
      <point x="585" y="268"/>
      <point x="575" y="281" type="curve" smooth="yes"/>
      <point x="521" y="350" type="line"/>
      <point x="604" y="419" type="line" smooth="yes"/>
      <point x="620" y="432"/>
      <point x="627" y="441"/>
      <point x="632" y="464" type="curve" smooth="yes"/>
      <point x="662" y="605" type="line" smooth="yes"/>
      <point x="664" y="617"/>
      <point x="656" y="627"/>
      <point x="644" y="627" type="curve" smooth="yes"/>
      <point x="643" y="627"/>
      <point x="636" y="627"/>
      <point x="629" y="622" type="curve" smooth="yes"/>
      <point x="368" y="411" type="line" smooth="yes"/>
      <point x="358" y="404"/>
      <point x="350" y="395"/>
      <point x="348" y="383" type="curve" smooth="yes"/>
      <point x="334" y="317" type="line" smooth="yes"/>
      <point x="331" y="305"/>
      <point x="335" y="296"/>
      <point x="342" y="289" type="curve" smooth="yes"/>
      <point x="514" y="78" type="line" smooth="yes"/>
      <point x="519" y="73"/>
      <point x="526" y="73"/>
    </contour>
    <contour>
      <point x="237" y="73" type="curve" smooth="yes"/>
      <point x="249" y="73"/>
      <point x="261" y="83"/>
      <point x="263" y="95" type="curve" smooth="yes"/>
      <point x="293" y="236" type="line" smooth="yes"/>
      <point x="298" y="259"/>
      <point x="295" y="268"/>
      <point x="285" y="281" type="curve" smooth="yes"/>
      <point x="231" y="350" type="line"/>
      <point x="314" y="419" type="line" smooth="yes"/>
      <point x="330" y="432"/>
      <point x="337" y="441"/>
      <point x="342" y="464" type="curve" smooth="yes"/>
      <point x="372" y="605" type="line" smooth="yes"/>
      <point x="374" y="617"/>
      <point x="366" y="627"/>
      <point x="354" y="627" type="curve" smooth="yes"/>
      <point x="353" y="627"/>
      <point x="346" y="627"/>
      <point x="339" y="622" type="curve" smooth="yes"/>
      <point x="78" y="411" type="line" smooth="yes"/>
      <point x="68" y="404"/>
      <point x="60" y="395"/>
      <point x="58" y="383" type="curve"/>
      <point x="44" y="317" type="line" smooth="yes"/>
      <point x="41" y="305"/>
      <point x="45" y="296"/>
      <point x="52" y="289" type="curve" smooth="yes"/>
      <point x="224" y="78" type="line" smooth="yes"/>
      <point x="229" y="73"/>
      <point x="236" y="73"/>
    </contour>
  </outline>
</glyph>
<glyph name="guillemetright.case" format="2">
  <advance width="637"/>
  <outline>
    <contour>
      <point x="334" y="73" type="curve" smooth="yes"/>
      <point x="335" y="73"/>
      <point x="342" y="73"/>
      <point x="349" y="78" type="curve" smooth="yes"/>
      <point x="611" y="289" type="line" smooth="yes"/>
      <point x="620" y="296"/>
      <point x="628" y="305"/>
      <point x="631" y="317" type="curve" smooth="yes"/>
      <point x="645" y="383" type="line" smooth="yes"/>
      <point x="647" y="395"/>
      <point x="643" y="404"/>
      <point x="637" y="411" type="curve" smooth="yes"/>
      <point x="464" y="622" type="line" smooth="yes"/>
      <point x="459" y="627"/>
      <point x="452" y="627"/>
      <point x="451" y="627" type="curve" smooth="yes"/>
      <point x="439" y="627"/>
      <point x="427" y="617"/>
      <point x="425" y="605" type="curve" smooth="yes"/>
      <point x="395" y="464" type="line" smooth="yes"/>
      <point x="390" y="441"/>
      <point x="393" y="432"/>
      <point x="403" y="419" type="curve" smooth="yes"/>
      <point x="458" y="350" type="line"/>
      <point x="374" y="281" type="line" smooth="yes"/>
      <point x="358" y="268"/>
      <point x="351" y="259"/>
      <point x="346" y="236" type="curve" smooth="yes"/>
      <point x="316" y="95" type="line" smooth="yes"/>
      <point x="314" y="83"/>
      <point x="322" y="73"/>
    </contour>
    <contour>
      <point x="44" y="73" type="curve" smooth="yes"/>
      <point x="45" y="73"/>
      <point x="52" y="73"/>
      <point x="59" y="78" type="curve" smooth="yes"/>
      <point x="321" y="289" type="line" smooth="yes"/>
      <point x="330" y="296"/>
      <point x="338" y="305"/>
      <point x="341" y="317" type="curve" smooth="yes"/>
      <point x="355" y="383" type="line" smooth="yes"/>
      <point x="357" y="395"/>
      <point x="353" y="404"/>
      <point x="347" y="411" type="curve" smooth="yes"/>
      <point x="174" y="622" type="line" smooth="yes"/>
      <point x="169" y="627"/>
      <point x="162" y="627"/>
      <point x="161" y="627" type="curve" smooth="yes"/>
      <point x="149" y="627"/>
      <point x="137" y="617"/>
      <point x="135" y="605" type="curve" smooth="yes"/>
      <point x="105" y="464" type="line" smooth="yes"/>
      <point x="100" y="441"/>
      <point x="103" y="432"/>
      <point x="113" y="419" type="curve" smooth="yes"/>
      <point x="168" y="350" type="line"/>
      <point x="84" y="281" type="line" smooth="yes"/>
      <point x="68" y="268"/>
      <point x="61" y="259"/>
      <point x="56" y="236" type="curve" smooth="yes"/>
      <point x="26" y="95" type="line" smooth="yes"/>
      <point x="24" y="83"/>
      <point x="32" y="73"/>
    </contour>
  </outline>
</glyph>
<glyph name="guilsinglleft.case" format="2">
  <advance width="347"/>
  <outline>
    <contour>
      <point x="237" y="73" type="curve" smooth="yes"/>
      <point x="249" y="73"/>
      <point x="261" y="83"/>
      <point x="263" y="95" type="curve" smooth="yes"/>
      <point x="293" y="236" type="line" smooth="yes"/>
      <point x="298" y="259"/>
      <point x="295" y="268"/>
      <point x="285" y="281" type="curve" smooth="yes"/>
      <point x="231" y="350" type="line"/>
      <point x="314" y="419" type="line" smooth="yes"/>
      <point x="330" y="432"/>
      <point x="337" y="441"/>
      <point x="342" y="464" type="curve" smooth="yes"/>
      <point x="372" y="605" type="line" smooth="yes"/>
      <point x="374" y="617"/>
      <point x="366" y="627"/>
      <point x="354" y="627" type="curve" smooth="yes"/>
      <point x="353" y="627"/>
      <point x="346" y="627"/>
      <point x="339" y="622" type="curve" smooth="yes"/>
      <point x="78" y="411" type="line" smooth="yes"/>
      <point x="68" y="404"/>
      <point x="60" y="395"/>
      <point x="58" y="383" type="curve" smooth="yes"/>
      <point x="44" y="317" type="line" smooth="yes"/>
      <point x="41" y="305"/>
      <point x="45" y="296"/>
      <point x="52" y="289" type="curve" smooth="yes"/>
      <point x="224" y="78" type="line" smooth="yes"/>
      <point x="229" y="73"/>
      <point x="236" y="73"/>
    </contour>
  </outline>
</glyph>
<glyph name="guilsinglright.case" format="2">
  <advance width="347"/>
  <outline>
    <contour>
      <point x="44" y="73" type="curve" smooth="yes"/>
      <point x="45" y="73"/>
      <point x="52" y="73"/>
      <point x="59" y="78" type="curve" smooth="yes"/>
      <point x="321" y="289" type="line" smooth="yes"/>
      <point x="330" y="296"/>
      <point x="338" y="305"/>
      <point x="341" y="317" type="curve" smooth="yes"/>
      <point x="355" y="383" type="line" smooth="yes"/>
      <point x="357" y="395"/>
      <point x="353" y="404"/>
      <point x="347" y="411" type="curve" smooth="yes"/>
      <point x="174" y="622" type="line" smooth="yes"/>
      <point x="169" y="627"/>
      <point x="162" y="627"/>
      <point x="161" y="627" type="curve" smooth="yes"/>
      <point x="149" y="627"/>
      <point x="137" y="617"/>
      <point x="135" y="605" type="curve" smooth="yes"/>
      <point x="105" y="464" type="line" smooth="yes"/>
      <point x="100" y="441"/>
      <point x="103" y="432"/>
      <point x="113" y="419" type="curve" smooth="yes"/>
      <point x="168" y="350" type="line"/>
      <point x="84" y="281" type="line" smooth="yes"/>
      <point x="68" y="268"/>
      <point x="61" y="259"/>
      <point x="56" y="236" type="curve" smooth="yes"/>
      <point x="26" y="95" type="line" smooth="yes"/>
      <point x="24" y="83"/>
      <point x="32" y="73"/>
    </contour>
  </outline>
</glyph>
<glyph name="one.otlf" format="2">
  <advance width="700"/>
  <guideline x="389"/>
  <guideline x="674"/>
  <outline>
    <contour>
      <point x="37" y="0" type="curve"/>
      <point x="587" y="0" type="line"/>
      <point x="602" y="0"/>
      <point x="617" y="12"/>
      <point x="620" y="27" type="curve"/>
      <point x="652" y="179" type="line"/>
      <point x="655" y="194"/>
      <point x="646" y="206"/>
      <point x="631" y="206" type="curve"/>
      <point x="501" y="206" type="line"/>
      <point x="600" y="673" type="line"/>
      <point x="603" y="688"/>
      <point x="594" y="700"/>
      <point x="579" y="700" type="curve"/>
      <point x="390" y="700" type="line"/>
      <point x="381" y="700"/>
      <point x="375" y="698"/>
      <point x="367" y="693" type="curve"/>
      <point x="114" y="527" type="line"/>
      <point x="100" y="519"/>
      <point x="93" y="501"/>
      <point x="97" y="488" type="curve"/>
      <point x="161" y="374" type="line"/>
      <point x="168" y="361"/>
      <point x="182" y="356"/>
      <point x="197" y="366" type="curve"/>
      <point x="299" y="431" type="line"/>
      <point x="251" y="206" type="line"/>
      <point x="81" y="206" type="line"/>
      <point x="66" y="206"/>
      <point x="51" y="194"/>
      <point x="48" y="179" type="curve"/>
      <point x="16" y="27" type="line"/>
      <point x="13" y="12"/>
      <point x="22" y="0"/>
    </contour>
  </outline>
</glyph>
<glyph name="three.otlf" format="2">
  <advance width="700"/>
  <guideline x="374"/>
  <guideline x="1026"/>
  <guideline x="700"/>
  <outline>
    <contour>
      <point x="293" y="-10" type="curve" smooth="yes"/>
      <point x="482" y="-10"/>
      <point x="639" y="80"/>
      <point x="669" y="219" type="curve" smooth="yes"/>
      <point x="696" y="345"/>
      <point x="627" y="401"/>
      <point x="533" y="426" type="curve"/>
      <point x="533" y="427" type="line"/>
      <point x="667" y="506" type="line" smooth="yes"/>
      <point x="678" y="513"/>
      <point x="691" y="527"/>
      <point x="695" y="546" type="curve" smooth="yes"/>
      <point x="722" y="673" type="line" smooth="yes"/>
      <point x="725" y="688"/>
      <point x="716" y="700"/>
      <point x="701" y="700" type="curve" smooth="yes"/>
      <point x="189" y="700" type="line" smooth="yes"/>
      <point x="174" y="700"/>
      <point x="159" y="688"/>
      <point x="156" y="673" type="curve" smooth="yes"/>
      <point x="126" y="532" type="line" smooth="yes"/>
      <point x="123" y="517"/>
      <point x="133" y="505"/>
      <point x="148" y="505" type="curve" smooth="yes"/>
      <point x="411" y="505" type="line"/>
      <point x="255" y="429" type="line" smooth="yes"/>
      <point x="244" y="423"/>
      <point x="231" y="409"/>
      <point x="227" y="389" type="curve" smooth="yes"/>
      <point x="210" y="308" type="line" smooth="yes"/>
      <point x="206" y="293"/>
      <point x="216" y="281"/>
      <point x="231" y="281" type="curve" smooth="yes"/>
      <point x="356" y="281" type="line" smooth="yes"/>
      <point x="400" y="281"/>
      <point x="419" y="267"/>
      <point x="413" y="237" type="curve" smooth="yes"/>
      <point x="406" y="208"/>
      <point x="382" y="184"/>
      <point x="335" y="184" type="curve" smooth="yes"/>
      <point x="293" y="184"/>
      <point x="279" y="193"/>
      <point x="271" y="204" type="curve" smooth="yes"/>
      <point x="263" y="213"/>
      <point x="258" y="220"/>
      <point x="240" y="220" type="curve" smooth="yes"/>
      <point x="39" y="220" type="line" smooth="yes"/>
      <point x="27" y="220"/>
      <point x="15" y="210"/>
      <point x="12" y="198" type="curve" smooth="yes"/>
      <point x="-1" y="119"/>
      <point x="52" y="-10"/>
    </contour>
  </outline>
</glyph>
<glyph name="two.otlf" format="2">
  <advance width="700"/>
  <guideline x="350" y="176" angle="0"/>
  <guideline x="385"/>
  <guideline x="1000"/>
  <outline>
    <contour>
      <point x="11" y="0" type="curve" smooth="yes"/>
      <point x="587" y="0" type="line" smooth="yes"/>
      <point x="602" y="0"/>
      <point x="617" y="12"/>
      <point x="620" y="27" type="curve" smooth="yes"/>
      <point x="652" y="179" type="line" smooth="yes"/>
      <point x="655" y="194"/>
      <point x="646" y="206"/>
      <point x="631" y="206" type="curve" smooth="yes"/>
      <point x="420" y="206" type="line"/>
      <point x="429" y="211" type="line"/>
      <point x="576" y="300"/>
      <point x="680" y="379"/>
      <point x="703" y="490" type="curve" smooth="yes"/>
      <point x="734" y="632"/>
      <point x="634" y="714"/>
      <point x="452" y="714" type="curve" smooth="yes"/>
      <point x="280" y="714"/>
      <point x="130" y="616"/>
      <point x="95" y="465" type="curve" smooth="yes"/>
      <point x="92" y="453"/>
      <point x="100" y="443"/>
      <point x="112" y="443" type="curve" smooth="yes"/>
      <point x="300" y="443" type="line" smooth="yes"/>
      <point x="318" y="443"/>
      <point x="334" y="447"/>
      <point x="345" y="466" type="curve" smooth="yes"/>
      <point x="355" y="482"/>
      <point x="370" y="517"/>
      <point x="411" y="517" type="curve" smooth="yes"/>
      <point x="446" y="517"/>
      <point x="443" y="496"/>
      <point x="439" y="477" type="curve" smooth="yes"/>
      <point x="426" y="418"/>
      <point x="301" y="343"/>
      <point x="59" y="192" type="curve"/>
      <point x="49" y="185" type="line"/>
      <point x="20" y="167"/>
      <point x="14" y="139"/>
      <point x="12" y="131" type="curve" smooth="yes"/>
      <point x="-10" y="27" type="line" smooth="yes"/>
      <point x="-13" y="12"/>
      <point x="-4" y="0"/>
    </contour>
  </outline>
</glyph>
